SplineFontDB: 3.0
FontName: Tienne
FullName: Tienne
FamilyName: Tienne
Weight: Book
Copyright: Copyright (c) 2011 by vernon adams. All rights reserved.
Version: 1.000
ItalicAngle: 0
UnderlinePosition: -103
UnderlineWidth: 102
Ascent: 1638
Descent: 410
sfntRevision: 0x00010000
LayerCount: 2
Layer: 0 1 "Back"  1
Layer: 1 1 "Fore"  0
XUID: [1021 759 1887733602 3764528]
FSType: 0
OS2Version: 3
OS2_WeightWidthSlopeOnly: 0
OS2_UseTypoMetrics: 1
CreationTime: 1310127060
ModificationTime: 1310124442
PfmFamily: 17
TTFWeight: 400
TTFWidth: 5
LineGap: 0
VLineGap: 0
Panose: 2 4 6 3 4 5 6 3 2 4
OS2TypoAscent: 1121
OS2TypoAOffset: 1
OS2TypoDescent: -313
OS2TypoDOffset: 1
OS2TypoLinegap: 0
OS2WinAscent: 0
OS2WinAOffset: 1
OS2WinDescent: 0
OS2WinDOffset: 1
HheadAscent: 0
HheadAOffset: 1
HheadDescent: 0
HheadDOffset: 1
OS2SubXSize: 1331
OS2SubYSize: 1229
OS2SubXOff: 0
OS2SubYOff: 154
OS2SupXSize: 1331
OS2SupYSize: 1229
OS2SupXOff: 0
OS2SupYOff: 717
OS2StrikeYSize: 102
OS2StrikeYPos: 512
OS2Vendor: 'newt'
OS2CodePages: 20000003.00000000
OS2UnicodeRanges: 800000ef.4000204a.00000000.00000000
Lookup: 258 0 0 "'kern' Horizontal Kerning in Latin lookup 0"  {"'kern' Horizontal Kerning in Latin lookup 0 subtable"  } ['kern' ('DFLT' <'dflt' > 'latn' <'dflt' > ) ]
Lookup: 258 0 0 "'kern' Horizontal Kerning lookup 1"  {"'kern' Horizontal Kerning lookup 1 subtable"  } ['kern' () ]
Lookup: 258 0 0 "'kern' Horizontal Kerning lookup 2"  {"'kern' Horizontal Kerning lookup 2 subtable"  } ['kern' () ]
Lookup: 258 0 0 "'kern' Horizontal Kerning lookup 3"  {"'kern' Horizontal Kerning lookup 3 subtable"  } ['kern' () ]
Lookup: 258 0 0 "'kern' Horizontal Kerning lookup 4"  {"'kern' Horizontal Kerning lookup 4 subtable"  } ['kern' () ]
Lookup: 258 0 0 "'kern' Horizontal Kerning lookup 5"  {"'kern' Horizontal Kerning lookup 5 subtable"  } ['kern' () ]
Lookup: 258 0 0 "'kern' Horizontal Kerning lookup 6"  {"'kern' Horizontal Kerning lookup 6 subtable"  } ['kern' () ]

StartChar: .notdef
Encoding: 65536 -1 0
Width: 531
Flags: W
LayerCount: 2
Fore
SplineSet
0 1490 m 1,0,-1
 1063 1490 l 1,1,-1
 1063 0 l 1,2,-1
 0 0 l 1,3,-1
 0 1490 l 1,0,-1
894 1383 m 1,4,-1
 171 1383 l 1,5,-1
 532 841 l 1,6,-1
 894 1383 l 1,4,-1
957 203 m 1,7,-1
 957 1287 l 1,8,-1
 595 745 l 1,9,-1
 957 203 l 1,7,-1
894 106 m 1,10,-1
 532 649 l 1,11,-1
 171 106 l 1,12,-1
 894 106 l 1,10,-1
106 203 m 1,13,-1
 468 745 l 1,14,-1
 106 1287 l 1,15,-1
 106 203 l 1,13,-1
EndSplineSet
EndChar

StartChar: exclam
Encoding: 33 33 8
Width: 704
Flags: W
LayerCount: 2
Fore
SplineSet
429 403 m 1,0,1
 397 391 397 391 358 391 c 0,2,3
 332 391 332 391 316.5 395 c 128,-1,4
 301 399 301 399 292 408.5 c 128,-1,5
 283 418 283 418 279.5 433 c 128,-1,6
 276 448 276 448 275 470 c 2,7,-1
 240 1135 l 2,8,9
 235 1235 235 1235 227 1301 c 128,-1,10
 219 1367 219 1367 219 1392 c 0,11,12
 219 1399 219 1399 219 1405.5 c 128,-1,13
 219 1412 219 1412 220 1419 c 1,14,15
 242 1438 242 1438 273.5 1447.5 c 128,-1,16
 305 1457 305 1457 353 1457 c 0,17,18
 416 1457 416 1457 441 1433 c 128,-1,19
 466 1409 466 1409 466 1358 c 0,20,21
 466 1341 466 1341 465 1319.5 c 128,-1,22
 464 1298 464 1298 462 1272 c 2,23,-1
 437 791 l 1,24,25
 425 597 425 597 425 493 c 0,26,27
 425 469 425 469 426 446 c 128,-1,28
 427 423 427 423 429 403 c 1,0,1
351 -22 m 0,29,30
 315 -22 315 -22 289 -10.5 c 128,-1,31
 263 1 263 1 245.5 20.5 c 128,-1,32
 228 40 228 40 219.5 64.5 c 128,-1,33
 211 89 211 89 211 115 c 0,34,35
 211 140 211 140 220 165.5 c 128,-1,36
 229 191 229 191 246.5 211 c 128,-1,37
 264 231 264 231 290 243.5 c 128,-1,38
 316 256 316 256 351 256 c 0,39,40
 385 256 385 256 411.5 243.5 c 128,-1,41
 438 231 438 231 455.5 211 c 128,-1,42
 473 191 473 191 482 165.5 c 128,-1,43
 491 140 491 140 491 115 c 0,44,45
 491 89 491 89 482.5 64.5 c 128,-1,46
 474 40 474 40 456.5 20.5 c 128,-1,47
 439 1 439 1 412.5 -10.5 c 128,-1,48
 386 -22 386 -22 351 -22 c 0,29,30
EndSplineSet
EndChar

StartChar: quotedbl
Encoding: 34 34 9
Width: 792
Flags: W
LayerCount: 2
Fore
SplineSet
277 983 m 1,0,1
 266 974 266 974 252 966.5 c 128,-1,2
 238 959 238 959 215 959 c 256,3,4
 192 959 192 959 178.5 969 c 128,-1,5
 165 979 165 979 158 994.5 c 128,-1,6
 151 1010 151 1010 148.5 1030.5 c 128,-1,7
 146 1051 146 1051 144 1072 c 2,8,-1
 128 1260 l 2,9,10
 124 1305 124 1305 120.5 1351.5 c 128,-1,11
 117 1398 117 1398 117 1450 c 1,12,13
 134 1470 134 1470 160.5 1482 c 128,-1,14
 187 1494 187 1494 226 1494 c 0,15,16
 274 1494 274 1494 292.5 1472.5 c 128,-1,17
 311 1451 311 1451 311 1409 c 0,18,19
 311 1387 311 1387 310 1370 c 128,-1,20
 309 1353 309 1353 307 1337 c 2,21,-1
 277 983 l 1,0,1
642 983 m 1,22,23
 631 974 631 974 617 966.5 c 128,-1,24
 603 959 603 959 580 959 c 0,25,26
 556 959 556 959 543 969 c 128,-1,27
 530 979 530 979 523 994.5 c 128,-1,28
 516 1010 516 1010 513.5 1030.5 c 128,-1,29
 511 1051 511 1051 509 1072 c 2,30,-1
 493 1260 l 2,31,32
 489 1305 489 1305 485.5 1351.5 c 128,-1,33
 482 1398 482 1398 481 1450 c 1,34,35
 499 1470 499 1470 525.5 1482 c 128,-1,36
 552 1494 552 1494 591 1494 c 0,37,38
 639 1494 639 1494 657 1472.5 c 128,-1,39
 675 1451 675 1451 675 1409 c 0,40,41
 675 1368 675 1368 672 1337 c 2,42,-1
 642 983 l 1,22,23
EndSplineSet
EndChar

StartChar: numbersign
Encoding: 35 35 10
Width: 1240
Flags: W
LayerCount: 2
Fore
SplineSet
845 445 m 1,0,-1
 768 73 l 1,1,-1
 714 73 l 2,2,3
 680 73 680 73 659.5 80 c 128,-1,4
 639 87 639 87 630 107 c 1,5,6
 633 131 633 131 641 164.5 c 128,-1,7
 649 198 649 198 657 240 c 2,8,-1
 698 445 l 1,9,-1
 433 445 l 1,10,-1
 356 73 l 1,11,-1
 292 73 l 2,12,13
 280 73 280 73 267 73.5 c 128,-1,14
 254 74 254 74 243.5 77 c 128,-1,15
 233 80 233 80 226.5 85 c 128,-1,16
 220 90 220 90 220 99 c 0,17,18
 220 120 220 120 225.5 152.5 c 128,-1,19
 231 185 231 185 243 240 c 2,20,-1
 287 445 l 1,21,-1
 82 445 l 1,22,-1
 82 498 l 2,23,24
 82 520 82 520 83.5 536 c 128,-1,25
 85 552 85 552 92.5 562 c 128,-1,26
 100 572 100 572 115 577 c 128,-1,27
 130 582 130 582 157 582 c 2,28,-1
 313 582 l 1,29,-1
 368 848 l 1,30,-1
 156 848 l 1,31,-1
 156 920 l 2,32,33
 156 943 156 943 160.5 956 c 128,-1,34
 165 969 165 969 174.5 975.5 c 128,-1,35
 184 982 184 982 198 983.5 c 128,-1,36
 212 985 212 985 232 985 c 2,37,-1
 397 985 l 1,38,-1
 474 1351 l 1,39,-1
 529 1351 l 2,40,41
 563 1351 563 1351 584.5 1346.5 c 128,-1,42
 606 1342 606 1342 615 1322 c 1,43,44
 610 1305 610 1305 608 1285 c 128,-1,45
 606 1265 606 1265 601 1245 c 2,46,-1
 546 985 l 1,47,-1
 808 985 l 1,48,-1
 886 1351 l 1,49,-1
 939 1351 l 2,50,51
 965 1351 965 1351 985.5 1349.5 c 128,-1,52
 1006 1348 1006 1348 1020 1341 c 1,53,54
 1020 1336 1020 1336 1020.5 1332 c 128,-1,55
 1021 1328 1021 1328 1021 1323 c 0,56,57
 1019 1303 1019 1303 1014.5 1271 c 128,-1,58
 1010 1239 1010 1239 999 1188 c 2,59,-1
 955 985 l 1,60,-1
 1158 985 l 1,61,-1
 1158 933 l 2,62,63
 1158 910 1158 910 1156.5 894 c 128,-1,64
 1155 878 1155 878 1147.5 867.5 c 128,-1,65
 1140 857 1140 857 1125 852.5 c 128,-1,66
 1110 848 1110 848 1083 848 c 2,67,-1
 929 848 l 1,68,-1
 872 582 l 1,69,-1
 1085 582 l 1,70,-1
 1085 510 l 2,71,72
 1085 478 1085 478 1074 464 c 128,-1,73
 1063 450 1063 450 1038 445 c 1,74,-1
 845 445 l 1,0,-1
461 582 m 1,75,-1
 726 582 l 1,76,-1
 781 848 l 1,77,-1
 517 848 l 1,78,-1
 461 582 l 1,75,-1
EndSplineSet
EndChar

StartChar: dollar
Encoding: 36 36 11
Width: 1302
Flags: W
LayerCount: 2
Fore
SplineSet
724 1468 m 1,0,1
 787 1468 787 1468 846 1461.5 c 128,-1,2
 905 1455 905 1455 954 1442.5 c 128,-1,3
 1003 1430 1003 1430 1039.5 1411 c 128,-1,4
 1076 1392 1076 1392 1094 1368 c 1,5,6
 1093 1345 1093 1345 1092 1321 c 128,-1,7
 1091 1297 1091 1297 1088 1274 c 1,8,-1
 1042 1123 l 1,9,-1
 949 1148 l 1,10,11
 917 1224 917 1224 864.5 1275 c 128,-1,12
 812 1326 812 1326 724 1340 c 1,13,-1
 724 796 l 1,14,15
 822 755 822 755 902 712 c 128,-1,16
 982 669 982 669 1039 617.5 c 128,-1,17
 1096 566 1096 566 1127 502.5 c 128,-1,18
 1158 439 1158 439 1158 357 c 0,19,20
 1158 274 1158 274 1126 205 c 128,-1,21
 1094 136 1094 136 1036.5 85.5 c 128,-1,22
 979 35 979 35 899 4 c 128,-1,23
 819 -27 819 -27 724 -34 c 1,24,-1
 724 -238 l 1,25,-1
 656 -238 l 2,26,27
 630 -238 630 -238 615.5 -234 c 128,-1,28
 601 -230 601 -230 594 -220.5 c 128,-1,29
 587 -211 587 -211 585.5 -196 c 128,-1,30
 584 -181 584 -181 584 -159 c 2,31,-1
 584 -35 l 1,32,33
 374 -24 374 -24 200 72 c 0,34,35
 174 86 174 86 158.5 98.5 c 128,-1,36
 143 111 143 111 135 132 c 1,37,38
 135 188 135 188 144 244 c 1,39,-1
 203 375 l 1,40,-1
 303 335 l 1,41,42
 349 217 349 217 416.5 159.5 c 128,-1,43
 484 102 484 102 584 91 c 1,44,-1
 584 642 l 1,45,46
 485 686 485 686 407 728.5 c 128,-1,47
 329 771 329 771 275 820 c 128,-1,48
 221 869 221 869 192.5 929 c 128,-1,49
 164 989 164 989 164 1068 c 0,50,51
 164 1153 164 1153 193 1219.5 c 128,-1,52
 222 1286 222 1286 276.5 1335 c 128,-1,53
 331 1384 331 1384 408.5 1414.5 c 128,-1,54
 486 1445 486 1445 584 1458 c 1,55,-1
 584 1596 l 1,56,-1
 651 1596 l 2,57,58
 683 1596 683 1596 700 1585.5 c 128,-1,59
 717 1575 717 1575 724 1550 c 1,60,-1
 724 1468 l 1,0,1
372 1167 m 1,61,62
 367 1153 367 1153 365.5 1138.5 c 128,-1,63
 364 1124 364 1124 364 1108 c 0,64,65
 364 1059 364 1059 379 1021 c 128,-1,66
 394 983 394 983 422.5 952.5 c 128,-1,67
 451 922 451 922 492 898 c 128,-1,68
 533 874 533 874 584 853 c 1,69,-1
 584 1343 l 1,70,71
 493 1331 493 1331 441 1285 c 128,-1,72
 389 1239 389 1239 372 1167 c 1,61,62
943 324 m 0,73,74
 943 370 943 370 928 407 c 128,-1,75
 913 444 913 444 884.5 474.5 c 128,-1,76
 856 505 856 505 815.5 531.5 c 128,-1,77
 775 558 775 558 724 583 c 1,78,-1
 724 89 l 1,79,80
 773 96 773 96 813 116 c 128,-1,81
 853 136 853 136 882 166 c 128,-1,82
 911 196 911 196 927 236 c 128,-1,83
 943 276 943 276 943 324 c 0,73,74
EndSplineSet
EndChar

StartChar: percent
Encoding: 37 37 12
Width: 1643
Flags: W
LayerCount: 2
Fore
SplineSet
440 -34 m 1,0,-1
 383 -22 l 1,1,2
 355 -11 355 -11 338.5 -3.5 c 128,-1,3
 322 4 322 4 314 13 c 1,4,5
 325 34 325 34 337.5 57.5 c 128,-1,6
 350 81 350 81 364 104 c 2,7,-1
 1193 1460 l 1,8,-1
 1256 1443 l 1,9,10
 1273 1435 1273 1435 1282.5 1427.5 c 128,-1,11
 1292 1420 1292 1420 1292 1410 c 1,12,13
 1297 1406 1297 1406 1302.5 1401.5 c 128,-1,14
 1308 1397 1308 1397 1312 1392 c 1,15,-1
 440 -34 l 1,0,-1
405 1375 m 0,16,17
 324 1375 324 1375 285 1305.5 c 128,-1,18
 246 1236 246 1236 246 1081 c 0,19,20
 246 928 246 928 285.5 858.5 c 128,-1,21
 325 789 325 789 405 789 c 0,22,23
 484 789 484 789 523 858.5 c 128,-1,24
 562 928 562 928 562 1081 c 0,25,26
 562 1236 562 1236 523 1305.5 c 128,-1,27
 484 1375 484 1375 405 1375 c 0,16,17
718 1081 m 0,28,29
 718 940 718 940 670 856.5 c 128,-1,30
 622 773 622 773 531 733 c 0,31,32
 499 719 499 719 469.5 713 c 128,-1,33
 440 707 440 707 411 707 c 0,34,35
 345 707 345 707 287 729.5 c 128,-1,36
 229 752 229 752 185.5 798 c 128,-1,37
 142 844 142 844 117 915 c 128,-1,38
 92 986 92 986 92 1083 c 256,39,40
 92 1180 92 1180 116.5 1251 c 128,-1,41
 141 1322 141 1322 183.5 1367.5 c 128,-1,42
 226 1413 226 1413 283 1435 c 128,-1,43
 340 1457 340 1457 405 1457 c 256,44,45
 470 1457 470 1457 527 1435 c 128,-1,46
 584 1413 584 1413 626.5 1367.5 c 128,-1,47
 669 1322 669 1322 693.5 1251 c 128,-1,48
 718 1180 718 1180 718 1081 c 0,28,29
1237 643 m 0,49,50
 1158 643 1158 643 1119 573.5 c 128,-1,51
 1080 504 1080 504 1080 349 c 0,52,53
 1080 195 1080 195 1119 125.5 c 128,-1,54
 1158 56 1158 56 1238 56 c 0,55,56
 1317 56 1317 56 1356 125.5 c 128,-1,57
 1395 195 1395 195 1395 349 c 0,58,59
 1395 504 1395 504 1356 573.5 c 128,-1,60
 1317 643 1317 643 1237 643 c 0,49,50
1237 -26 m 0,61,62
 1168 -26 1168 -26 1110 -1.5 c 128,-1,63
 1052 23 1052 23 1010 70.5 c 128,-1,64
 968 118 968 118 944.5 188 c 128,-1,65
 921 258 921 258 921 349 c 0,66,67
 921 441 921 441 944 511.5 c 128,-1,68
 967 582 967 582 1008.5 629.5 c 128,-1,69
 1050 677 1050 677 1108 701 c 128,-1,70
 1166 725 1166 725 1237 725 c 0,71,72
 1307 725 1307 725 1365 701 c 128,-1,73
 1423 677 1423 677 1464 629.5 c 128,-1,74
 1505 582 1505 582 1528 512 c 128,-1,75
 1551 442 1551 442 1551 349 c 0,76,77
 1551 258 1551 258 1527.5 188 c 128,-1,78
 1504 118 1504 118 1462 70.5 c 128,-1,79
 1420 23 1420 23 1362.5 -1.5 c 128,-1,80
 1305 -26 1305 -26 1237 -26 c 0,61,62
EndSplineSet
EndChar

StartChar: ampersand
Encoding: 38 38 13
Width: 1399
Flags: W
LayerCount: 2
Fore
SplineSet
605 657 m 2,0,1
 537 657 537 657 482 637.5 c 128,-1,2
 427 618 427 618 387.5 581 c 128,-1,3
 348 544 348 544 326.5 490.5 c 128,-1,4
 305 437 305 437 305 369 c 0,5,6
 305 309 305 309 322 258.5 c 128,-1,7
 339 208 339 208 377.5 171.5 c 128,-1,8
 416 135 416 135 477 114.5 c 128,-1,9
 538 94 538 94 625 94 c 0,10,11
 695 94 695 94 755 113.5 c 128,-1,12
 815 133 815 133 858.5 173 c 128,-1,13
 902 213 902 213 926.5 274.5 c 128,-1,14
 951 336 951 336 951 421 c 1,15,16
 950 466 950 466 948.5 507 c 128,-1,17
 947 548 947 548 943 582 c 2,18,-1
 935 657 l 1,19,-1
 605 657 l 2,0,1
1207 788 m 1,20,-1
 1380 788 l 1,21,-1
 1376 691 l 2,22,23
 1374 649 1374 649 1371.5 600.5 c 128,-1,24
 1369 552 1369 552 1367 509 c 1,25,-1
 1304 510 l 1,26,27
 1292 556 1292 556 1280.5 584.5 c 128,-1,28
 1269 613 1269 613 1254 629 c 128,-1,29
 1239 645 1239 645 1220 651 c 128,-1,30
 1201 657 1201 657 1174 657 c 2,31,-1
 1104 657 l 1,32,33
 1114 587 1114 587 1123.5 505.5 c 128,-1,34
 1133 424 1133 424 1133 343 c 0,35,36
 1133 253 1133 253 1097.5 182.5 c 128,-1,37
 1062 112 1062 112 994.5 63 c 128,-1,38
 927 14 927 14 829 -11.5 c 128,-1,39
 731 -37 731 -37 607 -37 c 0,40,41
 460 -37 460 -37 358.5 -7 c 128,-1,42
 257 23 257 23 194 77 c 128,-1,43
 131 131 131 131 102.5 206.5 c 128,-1,44
 74 282 74 282 74 374 c 0,45,46
 74 434 74 434 93 490.5 c 128,-1,47
 112 547 112 547 151 594 c 128,-1,48
 190 641 190 641 248.5 676.5 c 128,-1,49
 307 712 307 712 385 729 c 1,50,-1
 385 734 l 1,51,52
 323 749 323 749 273.5 777 c 128,-1,53
 224 805 224 805 189 846 c 128,-1,54
 154 887 154 887 135 939.5 c 128,-1,55
 116 992 116 992 116 1057 c 0,56,57
 116 1137 116 1137 145 1204 c 128,-1,58
 174 1271 174 1271 232.5 1319 c 128,-1,59
 291 1367 291 1367 379 1394 c 128,-1,60
 467 1421 467 1421 585 1421 c 0,61,62
 657 1421 657 1421 723 1411 c 128,-1,63
 789 1401 789 1401 844.5 1385.5 c 128,-1,64
 900 1370 900 1370 942 1352 c 128,-1,65
 984 1334 984 1334 1009 1318 c 1,66,-1
 985 1039 l 1,67,-1
 862 1039 l 1,68,69
 840 1109 840 1109 817 1159.5 c 128,-1,70
 794 1210 794 1210 764.5 1242.5 c 128,-1,71
 735 1275 735 1275 695 1290.5 c 128,-1,72
 655 1306 655 1306 600 1306 c 0,73,74
 527 1306 527 1306 475 1285.5 c 128,-1,75
 423 1265 423 1265 389.5 1229.5 c 128,-1,76
 356 1194 356 1194 340 1147 c 128,-1,77
 324 1100 324 1100 324 1048 c 0,78,79
 324 998 324 998 342 951.5 c 128,-1,80
 360 905 360 905 397 868.5 c 128,-1,81
 434 832 434 832 490.5 810 c 128,-1,82
 547 788 547 788 625 788 c 2,83,-1
 1207 788 l 1,20,-1
EndSplineSet
EndChar

StartChar: quotesingle
Encoding: 39 39 14
Width: 429
Flags: W
LayerCount: 2
Fore
SplineSet
277 983 m 1,0,1
 266 974 266 974 252 966.5 c 128,-1,2
 238 959 238 959 215 959 c 256,3,4
 192 959 192 959 178.5 969 c 128,-1,5
 165 979 165 979 158.5 994.5 c 128,-1,6
 152 1010 152 1010 149.5 1030.5 c 128,-1,7
 147 1051 147 1051 145 1072 c 2,8,-1
 128 1260 l 2,9,10
 124 1302 124 1302 120.5 1344.5 c 128,-1,11
 117 1387 117 1387 117 1435 c 0,12,13
 117 1449 117 1449 126.5 1460 c 128,-1,14
 136 1471 136 1471 151.5 1478.5 c 128,-1,15
 167 1486 167 1486 187 1490 c 128,-1,16
 207 1494 207 1494 227 1494 c 0,17,18
 273 1494 273 1494 292.5 1472.5 c 128,-1,19
 312 1451 312 1451 312 1409 c 0,20,21
 312 1387 312 1387 311 1370 c 128,-1,22
 310 1353 310 1353 308 1337 c 2,23,-1
 277 983 l 1,0,1
EndSplineSet
EndChar

StartChar: parenleft
Encoding: 40 40 15
Width: 588
Flags: W
LayerCount: 2
Fore
SplineSet
117 672 m 256,0,1
 117 792 117 792 135.5 909 c 128,-1,2
 154 1026 154 1026 189.5 1135 c 128,-1,3
 225 1244 225 1244 275 1342.5 c 128,-1,4
 325 1441 325 1441 388 1524 c 0,5,6
 403 1544 403 1544 422.5 1550.5 c 128,-1,7
 442 1557 442 1557 460 1557 c 0,8,9
 467 1557 467 1557 479 1552 c 2,10,-1
 522 1532 l 1,11,12
 466 1440 466 1440 425 1337 c 128,-1,13
 384 1234 384 1234 357.5 1124 c 128,-1,14
 331 1014 331 1014 318 900 c 128,-1,15
 305 786 305 786 305 672 c 256,16,17
 305 558 305 558 318 444 c 128,-1,18
 331 330 331 330 357.5 220 c 128,-1,19
 384 110 384 110 425 7 c 128,-1,20
 466 -96 466 -96 522 -188 c 1,21,-1
 479 -208 l 2,22,23
 467 -213 467 -213 460 -213 c 0,24,25
 442 -213 442 -213 423.5 -206 c 128,-1,26
 405 -199 405 -199 388 -180 c 1,27,28
 325 -99 325 -99 275 -0.5 c 128,-1,29
 225 98 225 98 189.5 207.5 c 128,-1,30
 154 317 154 317 135.5 434.5 c 128,-1,31
 117 552 117 552 117 672 c 256,0,1
EndSplineSet
EndChar

StartChar: parenright
Encoding: 41 41 16
Width: 588
Flags: W
LayerCount: 2
Fore
SplineSet
471 672 m 256,0,1
 471 552 471 552 452.5 434.5 c 128,-1,2
 434 317 434 317 398.5 207.5 c 128,-1,3
 363 98 363 98 313 -0.5 c 128,-1,4
 263 -99 263 -99 200 -180 c 1,5,6
 183 -199 183 -199 164.5 -206 c 128,-1,7
 146 -213 146 -213 128 -213 c 0,8,9
 121 -213 121 -213 109 -208 c 2,10,-1
 66 -188 l 1,11,12
 122 -96 122 -96 163 7 c 128,-1,13
 204 110 204 110 230.5 220 c 128,-1,14
 257 330 257 330 270 444 c 128,-1,15
 283 558 283 558 283 672 c 256,16,17
 283 786 283 786 270 900 c 128,-1,18
 257 1014 257 1014 230.5 1124 c 128,-1,19
 204 1234 204 1234 163 1337 c 128,-1,20
 122 1440 122 1440 66 1532 c 1,21,-1
 109 1552 l 2,22,23
 121 1557 121 1557 128 1557 c 0,24,25
 146 1557 146 1557 165 1550.5 c 128,-1,26
 184 1544 184 1544 200 1524 c 0,27,28
 263 1442 263 1442 313 1343.5 c 128,-1,29
 363 1245 363 1245 398 1135.5 c 128,-1,30
 433 1026 433 1026 452 909 c 128,-1,31
 471 792 471 792 471 672 c 256,0,1
EndSplineSet
EndChar

StartChar: asterisk
Encoding: 42 42 17
Width: 926
Flags: W
LayerCount: 2
Fore
SplineSet
379 680 m 2,0,1
 333 686 333 686 324 721 c 1,2,3
 316 728 316 728 307.5 736 c 128,-1,4
 299 744 299 744 290 753 c 1,5,-1
 320 808 l 1,6,7
 328 825 328 825 336 842.5 c 128,-1,8
 344 860 344 860 353 881.5 c 128,-1,9
 362 903 362 903 372 930.5 c 128,-1,10
 382 958 382 958 394 994 c 1,11,-1
 126 859 l 1,12,-1
 95 950 l 2,13,14
 84 982 84 982 84 1014 c 1,15,16
 104 1028 104 1028 145 1036 c 2,17,-1
 370 1080 l 1,18,-1
 122 1249 l 1,19,20
 138 1265 138 1265 153.5 1282.5 c 128,-1,21
 169 1300 169 1300 185 1316 c 128,-1,22
 201 1332 201 1332 217.5 1344.5 c 128,-1,23
 234 1357 234 1357 252 1362 c 1,24,25
 276 1339 276 1339 290 1316 c 1,26,-1
 430 1139 l 1,27,-1
 460 1440 l 1,28,-1
 554 1419 l 1,29,30
 610 1410 610 1410 628 1369 c 1,31,32
 593 1315 593 1315 569 1251 c 128,-1,33
 545 1187 545 1187 521 1126 c 1,34,-1
 791 1252 l 1,35,-1
 822 1162 l 1,36,37
 830 1125 830 1125 830 1099 c 1,38,39
 810 1082 810 1082 771 1076 c 2,40,-1
 549 1041 l 1,41,-1
 791 843 l 1,42,-1
 718 774 l 2,43,44
 702 759 702 759 687.5 750.5 c 128,-1,45
 673 742 673 742 659 737 c 1,46,47
 635 754 635 754 616 787 c 1,48,-1
 484 982 l 1,49,-1
 457 670 l 1,50,-1
 379 680 l 2,0,1
EndSplineSet
EndChar

StartChar: plus
Encoding: 43 43 18
Width: 1289
Flags: W
LayerCount: 2
Fore
SplineSet
716 677 m 1,0,-1
 1156 677 l 1,1,-1
 1156 610 l 2,2,3
 1156 581 1156 581 1150.5 565 c 128,-1,4
 1145 549 1145 549 1133.5 542 c 128,-1,5
 1122 535 1122 535 1105.5 534 c 128,-1,6
 1089 533 1089 533 1067 533 c 2,7,-1
 716 533 l 1,8,-1
 716 93 l 1,9,-1
 648 93 l 2,10,11
 619 93 619 93 603 98.5 c 128,-1,12
 587 104 587 104 580 114.5 c 128,-1,13
 573 125 573 125 572 141.5 c 128,-1,14
 571 158 571 158 571 181 c 2,15,-1
 571 533 l 1,16,-1
 133 533 l 1,17,-1
 133 601 l 2,18,19
 133 629 133 629 138.5 644.5 c 128,-1,20
 144 660 144 660 155 667.5 c 128,-1,21
 166 675 166 675 182.5 676 c 128,-1,22
 199 677 199 677 222 677 c 2,23,-1
 571 677 l 1,24,-1
 571 1115 l 1,25,-1
 639 1115 l 2,26,27
 673 1115 673 1115 690.5 1104.5 c 128,-1,28
 708 1094 708 1094 716 1068 c 1,29,-1
 716 677 l 1,0,-1
EndSplineSet
EndChar

StartChar: comma
Encoding: 44 44 19
Width: 462
Flags: W
LayerCount: 2
Fore
SplineSet
118 -316 m 1,0,1
 87 -316 87 -316 74 -298 c 1,2,-1
 61 -267 l 1,3,4
 95 -219 95 -219 122.5 -149 c 128,-1,5
 150 -79 150 -79 157 3 c 2,6,-1
 160 41 l 1,7,8
 143 41 143 41 127.5 47 c 128,-1,9
 112 53 112 53 100.5 63 c 128,-1,10
 89 73 89 73 82.5 85.5 c 128,-1,11
 76 98 76 98 76 112 c 0,12,13
 79 154 79 154 91.5 180.5 c 128,-1,14
 104 207 104 207 122 222 c 128,-1,15
 140 237 140 237 162 243 c 128,-1,16
 184 249 184 249 205 249 c 0,17,18
 286 249 286 249 316.5 218.5 c 128,-1,19
 347 188 347 188 347 137 c 0,20,21
 347 122 347 122 344.5 104.5 c 128,-1,22
 342 87 342 87 338 66 c 0,23,24
 317 -54 317 -54 261.5 -149 c 128,-1,25
 206 -244 206 -244 118 -316 c 1,0,1
EndSplineSet
EndChar

StartChar: hyphen
Encoding: 45 45 20
Width: 683
Flags: W
LayerCount: 2
Fore
SplineSet
51 519 m 1,0,-1
 51 589 l 2,1,2
 51 611 51 611 57 623.5 c 128,-1,3
 63 636 63 636 73.5 642 c 128,-1,4
 84 648 84 648 99 649.5 c 128,-1,5
 114 651 114 651 133 651 c 2,6,-1
 632 651 l 1,7,-1
 632 599 l 2,8,9
 632 565 632 565 621 546.5 c 128,-1,10
 610 528 610 528 584 519 c 1,11,-1
 51 519 l 1,0,-1
EndSplineSet
EndChar

StartChar: period
Encoding: 46 46 21
Width: 600
Flags: W
LayerCount: 2
Fore
SplineSet
302 -34 m 1,0,1
 267 -34 267 -34 241 -22 c 128,-1,2
 215 -10 215 -10 198 9.5 c 128,-1,3
 181 29 181 29 172.5 53.5 c 128,-1,4
 164 78 164 78 164 104 c 256,5,6
 164 130 164 130 172.5 155.5 c 128,-1,7
 181 181 181 181 198 201 c 128,-1,8
 215 221 215 221 240.5 233 c 128,-1,9
 266 245 266 245 300 245 c 0,10,11
 333 245 333 245 358.5 233 c 128,-1,12
 384 221 384 221 401.5 201 c 128,-1,13
 419 181 419 181 427.5 155.5 c 128,-1,14
 436 130 436 130 436 103 c 0,15,16
 436 78 436 78 428 54 c 128,-1,17
 420 30 420 30 403.5 10.5 c 128,-1,18
 387 -9 387 -9 361.5 -21 c 128,-1,19
 336 -33 336 -33 302 -34 c 1,0,1
EndSplineSet
EndChar

StartChar: slash
Encoding: 47 47 22
Width: 853
Flags: W
LayerCount: 2
Fore
SplineSet
771 1518 m 2,0,1
 836 1518 836 1518 853 1491 c 1,2,3
 845 1468 845 1468 837 1445 c 128,-1,4
 829 1422 829 1422 818 1398 c 2,5,-1
 153 -157 l 1,6,-1
 81 -157 l 2,7,8
 16 -157 16 -157 0 -127 c 1,9,-1
 35 -37 l 1,10,-1
 701 1518 l 1,11,-1
 771 1518 l 2,0,1
EndSplineSet
EndChar

StartChar: zero
Encoding: 48 48 23
Width: 1277
Flags: W
LayerCount: 2
Fore
SplineSet
963 710 m 0,0,1
 963 878 963 878 942.5 997 c 128,-1,2
 922 1116 922 1116 881 1191.5 c 128,-1,3
 840 1267 840 1267 779.5 1302 c 128,-1,4
 719 1337 719 1337 638 1337 c 0,5,6
 558 1337 558 1337 497.5 1301.5 c 128,-1,7
 437 1266 437 1266 396 1190.5 c 128,-1,8
 355 1115 355 1115 334 996 c 128,-1,9
 313 877 313 877 313 710 c 0,10,11
 313 546 313 546 333.5 428 c 128,-1,12
 354 310 354 310 395 234.5 c 128,-1,13
 436 159 436 159 496.5 123 c 128,-1,14
 557 87 557 87 638 87 c 0,15,16
 718 87 718 87 779 122.5 c 128,-1,17
 840 158 840 158 881 233.5 c 128,-1,18
 922 309 922 309 942.5 427 c 128,-1,19
 963 545 963 545 963 710 c 0,0,1
638 -37 m 0,20,21
 509 -37 509 -37 407.5 13.5 c 128,-1,22
 306 64 306 64 236 159.5 c 128,-1,23
 166 255 166 255 129 394 c 128,-1,24
 92 533 92 533 92 710 c 0,25,26
 92 889 92 889 128.5 1028.5 c 128,-1,27
 165 1168 165 1168 235 1263.5 c 128,-1,28
 305 1359 305 1359 406.5 1408.5 c 128,-1,29
 508 1458 508 1458 638 1458 c 256,30,31
 768 1458 768 1458 870 1408.5 c 128,-1,32
 972 1359 972 1359 1042 1263.5 c 128,-1,33
 1112 1168 1112 1168 1148.5 1028.5 c 128,-1,34
 1185 889 1185 889 1185 710 c 0,35,36
 1185 533 1185 533 1147.5 394 c 128,-1,37
 1110 255 1110 255 1039.5 159 c 128,-1,38
 969 63 969 63 867.5 13 c 128,-1,39
 766 -37 766 -37 638 -37 c 0,20,21
EndSplineSet
EndChar

StartChar: one
Encoding: 49 49 24
Width: 986
Flags: W
LayerCount: 2
Fore
SplineSet
610 252 m 2,0,1
 610 210 610 210 613.5 180.5 c 128,-1,2
 617 151 617 151 624 128 c 1,3,4
 647 122 647 122 672.5 120.5 c 128,-1,5
 698 119 698 119 727 119 c 2,6,-1
 818 119 l 1,7,-1
 818 -17 l 1,8,9
 733 -6 733 -6 658 -2 c 128,-1,10
 583 2 583 2 511 2 c 0,11,12
 430 2 430 2 353 -3 c 128,-1,13
 276 -8 276 -8 195 -17 c 1,14,-1
 195 119 l 1,15,-1
 284 119 l 2,16,17
 313 119 313 119 339 120 c 128,-1,18
 365 121 365 121 387 128 c 1,19,20
 394 151 394 151 398.5 180.5 c 128,-1,21
 403 210 403 210 403 249 c 2,22,-1
 403 1246 l 1,23,24
 384 1261 384 1261 361.5 1268 c 128,-1,25
 339 1275 339 1275 307 1275 c 0,26,27
 294 1275 294 1275 279.5 1274 c 128,-1,28
 265 1273 265 1273 249 1270 c 2,29,-1
 154 1253 l 1,30,-1
 135 1347 l 1,31,32
 183 1364 183 1364 238 1383.5 c 128,-1,33
 293 1403 293 1403 347.5 1419.5 c 128,-1,34
 402 1436 402 1436 453.5 1447 c 128,-1,35
 505 1458 505 1458 547 1458 c 0,36,37
 576 1458 576 1458 589 1449.5 c 128,-1,38
 602 1441 602 1441 610 1428 c 1,39,-1
 610 252 l 2,0,1
EndSplineSet
EndChar

StartChar: two
Encoding: 50 50 25
Width: 1251
Flags: W
LayerCount: 2
Fore
SplineSet
611 1336 m 0,0,1
 557 1336 557 1336 502 1319 c 128,-1,2
 447 1302 447 1302 401 1268.5 c 128,-1,3
 355 1235 355 1235 322 1185.5 c 128,-1,4
 289 1136 289 1136 279 1071 c 1,5,-1
 134 1192 l 1,6,7
 144 1258 144 1258 186.5 1308 c 128,-1,8
 229 1358 229 1358 292.5 1391 c 128,-1,9
 356 1424 356 1424 434.5 1441 c 128,-1,10
 513 1458 513 1458 595 1458 c 0,11,12
 705 1458 705 1458 790.5 1430 c 128,-1,13
 876 1402 876 1402 934.5 1351 c 128,-1,14
 993 1300 993 1300 1023 1228.5 c 128,-1,15
 1053 1157 1053 1157 1053 1069 c 0,16,17
 1053 1008 1053 1008 1038 950 c 128,-1,18
 1023 892 1023 892 989 830.5 c 128,-1,19
 955 769 955 769 900 700 c 128,-1,20
 845 631 845 631 764.5 548.5 c 128,-1,21
 684 466 684 466 576 366.5 c 128,-1,22
 468 267 468 267 329 144 c 1,23,-1
 726 144 l 2,24,25
 761 144 761 144 803 149 c 128,-1,26
 845 154 845 154 887.5 173.5 c 128,-1,27
 930 193 930 193 969.5 232.5 c 128,-1,28
 1009 272 1009 272 1038 340 c 1,29,30
 1058 340 1058 340 1074 334.5 c 128,-1,31
 1090 329 1090 329 1101 329 c 1,32,33
 1101 244 1101 244 1098.5 170 c 128,-1,34
 1096 96 1096 96 1088 27 c 1,35,36
 1059 18 1059 18 1025.5 12.5 c 128,-1,37
 992 7 992 7 947 4.5 c 128,-1,38
 902 2 902 2 841.5 1 c 128,-1,39
 781 0 781 0 699 0 c 2,40,-1
 197 0 l 2,41,42
 153 0 153 0 133.5 12 c 128,-1,43
 114 24 114 24 104 50 c 1,44,45
 104 67 104 67 108 88 c 128,-1,46
 112 109 112 109 118 134 c 1,47,48
 287 301 287 301 423.5 441.5 c 128,-1,49
 560 582 560 582 672 704 c 1,50,51
 726 768 726 768 759 821 c 128,-1,52
 792 874 792 874 811 919 c 128,-1,53
 830 964 830 964 836.5 1003.5 c 128,-1,54
 843 1043 843 1043 843 1079 c 0,55,56
 843 1208 843 1208 784 1272 c 128,-1,57
 725 1336 725 1336 611 1336 c 0,0,1
EndSplineSet
EndChar

StartChar: three
Encoding: 51 51 26
Width: 1200
Flags: W
LayerCount: 2
Fore
SplineSet
836 1097 m 0,0,1
 836 1157 836 1157 815 1202 c 128,-1,2
 794 1247 794 1247 758.5 1276.5 c 128,-1,3
 723 1306 723 1306 677 1321 c 128,-1,4
 631 1336 631 1336 581 1336 c 0,5,6
 529 1336 529 1336 476 1319.5 c 128,-1,7
 423 1303 423 1303 379 1270.5 c 128,-1,8
 335 1238 335 1238 303 1190 c 128,-1,9
 271 1142 271 1142 261 1080 c 1,10,-1
 126 1191 l 1,11,12
 136 1257 136 1257 177 1307 c 128,-1,13
 218 1357 218 1357 278.5 1390 c 128,-1,14
 339 1423 339 1423 414 1440 c 128,-1,15
 489 1457 489 1457 567 1457 c 0,16,17
 653 1457 653 1457 736 1434.5 c 128,-1,18
 819 1412 819 1412 884.5 1367 c 128,-1,19
 950 1322 950 1322 990 1254 c 128,-1,20
 1030 1186 1030 1186 1030 1095 c 0,21,22
 1030 1042 1030 1042 1007.5 988.5 c 128,-1,23
 985 935 985 935 940.5 888.5 c 128,-1,24
 896 842 896 842 830 805 c 128,-1,25
 764 768 764 768 676 748 c 1,26,27
 876 722 876 722 978.5 631.5 c 128,-1,28
 1081 541 1081 541 1081 378 c 0,29,30
 1081 282 1081 282 1046 205 c 128,-1,31
 1011 128 1011 128 946.5 74.5 c 128,-1,32
 882 21 882 21 791.5 -8 c 128,-1,33
 701 -37 701 -37 590 -37 c 0,34,35
 505 -37 505 -37 426.5 -20.5 c 128,-1,36
 348 -4 348 -4 285 24 c 128,-1,37
 222 52 222 52 179 88.5 c 128,-1,38
 136 125 136 125 121 166 c 1,39,-1
 126 198 l 2,40,41
 129 220 129 220 135 265.5 c 128,-1,42
 141 311 141 311 155 392 c 1,43,-1
 265 373 l 1,44,45
 265 290 265 290 292.5 235 c 128,-1,46
 320 180 320 180 364.5 147 c 128,-1,47
 409 114 409 114 465 100.5 c 128,-1,48
 521 87 521 87 577 87 c 0,49,50
 648 87 648 87 704 110.5 c 128,-1,51
 760 134 760 134 799 174.5 c 128,-1,52
 838 215 838 215 858.5 270 c 128,-1,53
 879 325 879 325 879 389 c 0,54,55
 879 464 879 464 849.5 518 c 128,-1,56
 820 572 820 572 764.5 606 c 128,-1,57
 709 640 709 640 629.5 656 c 128,-1,58
 550 672 550 672 450 672 c 2,59,-1
 409 672 l 1,60,-1
 409 733 l 2,61,62
 409 769 409 769 419 789 c 1,63,-1
 475 791 l 2,64,65
 508 792 508 792 548 800.5 c 128,-1,66
 588 809 588 809 628 825 c 128,-1,67
 668 841 668 841 705.5 865.5 c 128,-1,68
 743 890 743 890 772 923.5 c 128,-1,69
 801 957 801 957 818.5 1000 c 128,-1,70
 836 1043 836 1043 836 1097 c 0,0,1
EndSplineSet
EndChar

StartChar: four
Encoding: 52 52 27
Width: 1210
Flags: W
LayerCount: 2
Fore
SplineSet
900 250 m 2,0,1
 900 208 900 208 903 178.5 c 128,-1,2
 906 149 906 149 914 126 c 1,3,4
 937 120 937 120 962.5 118.5 c 128,-1,5
 988 117 988 117 1017 117 c 2,6,-1
 1107 117 l 1,7,-1
 1107 -19 l 1,8,9
 1026 -8 1026 -8 952.5 -4 c 128,-1,10
 879 0 879 0 810 0 c 0,11,12
 729 0 729 0 652 -5 c 128,-1,13
 575 -10 575 -10 494 -19 c 1,14,-1
 494 117 l 1,15,-1
 583 117 l 2,16,17
 612 117 612 117 638 118 c 128,-1,18
 664 119 664 119 686 126 c 1,19,20
 702 171 702 171 702 247 c 2,21,-1
 702 385 l 1,22,-1
 75 385 l 1,23,24
 35 416 35 416 35 472 c 1,25,26
 39 486 39 486 47 498.5 c 128,-1,27
 55 511 55 511 65 525 c 0,28,29
 224 754 224 754 338 916.5 c 128,-1,30
 452 1079 452 1079 529.5 1186.5 c 128,-1,31
 607 1294 607 1294 652 1353.5 c 128,-1,32
 697 1413 697 1413 719 1437 c 1,33,-1
 807 1437 l 2,34,35
 837 1437 837 1437 855.5 1433.5 c 128,-1,36
 874 1430 874 1430 883.5 1421.5 c 128,-1,37
 893 1413 893 1413 896.5 1398 c 128,-1,38
 900 1383 900 1383 900 1360 c 2,39,-1
 900 512 l 1,40,-1
 1181 512 l 1,41,-1
 1181 458 l 2,42,43
 1181 432 1181 432 1176.5 417 c 128,-1,44
 1172 402 1172 402 1162.5 395 c 128,-1,45
 1153 388 1153 388 1137.5 386.5 c 128,-1,46
 1122 385 1122 385 1101 385 c 2,47,-1
 900 385 l 1,48,-1
 900 250 l 2,0,1
702 512 m 1,49,-1
 702 1137 l 1,50,-1
 698 1185 l 1,51,-1
 244 544 l 1,52,-1
 226 512 l 1,53,-1
 702 512 l 1,49,-1
EndSplineSet
EndChar

StartChar: five
Encoding: 53 53 28
Width: 1234
Flags: W
LayerCount: 2
Fore
SplineSet
379 836 m 1,0,1
 449 869 449 869 510.5 881.5 c 128,-1,2
 572 894 572 894 639 894 c 0,3,4
 736 894 736 894 821 862.5 c 128,-1,5
 906 831 906 831 969 773 c 128,-1,6
 1032 715 1032 715 1068 632.5 c 128,-1,7
 1104 550 1104 550 1104 449 c 0,8,9
 1104 336 1104 336 1069.5 246 c 128,-1,10
 1035 156 1035 156 970.5 93 c 128,-1,11
 906 30 906 30 814 -3.5 c 128,-1,12
 722 -37 722 -37 608 -37 c 0,13,14
 514 -37 514 -37 442.5 -25.5 c 128,-1,15
 371 -14 371 -14 318.5 4 c 128,-1,16
 266 22 266 22 230.5 43.5 c 128,-1,17
 195 65 195 65 173 85 c 1,18,-1
 173 401 l 1,19,-1
 295 389 l 1,20,-1
 341 147 l 1,21,22
 366 134 366 134 391.5 123 c 128,-1,23
 417 112 417 112 446.5 104 c 128,-1,24
 476 96 476 96 510.5 91.5 c 128,-1,25
 545 87 545 87 587 87 c 0,26,27
 672 87 672 87 731.5 117 c 128,-1,28
 791 147 791 147 828 196 c 128,-1,29
 865 245 865 245 881.5 305.5 c 128,-1,30
 898 366 898 366 898 428 c 0,31,32
 898 588 898 588 804.5 674.5 c 128,-1,33
 711 761 711 761 533 761 c 0,34,35
 470 761 470 761 407 741 c 128,-1,36
 344 721 344 721 286 672 c 1,37,38
 263 679 263 679 243 684 c 128,-1,39
 223 689 223 689 207 691 c 1,40,-1
 217 1394 l 1,41,42
 235 1421 235 1421 261.5 1429 c 128,-1,43
 288 1437 288 1437 324 1437 c 0,44,45
 420 1437 420 1437 499 1436.5 c 128,-1,46
 578 1436 578 1436 646 1436 c 0,47,48
 704 1436 704 1436 754.5 1437 c 128,-1,49
 805 1438 805 1438 851.5 1440.5 c 128,-1,50
 898 1443 898 1443 941.5 1448 c 128,-1,51
 985 1453 985 1453 1028 1461 c 1,52,-1
 1035 1317 l 1,53,54
 1023 1302 1023 1302 1004.5 1292 c 128,-1,55
 986 1282 986 1282 958.5 1276 c 128,-1,56
 931 1270 931 1270 893.5 1267.5 c 128,-1,57
 856 1265 856 1265 805 1265 c 0,58,59
 718 1265 718 1265 615 1276.5 c 128,-1,60
 512 1288 512 1288 386 1312 c 1,61,-1
 379 836 l 1,0,1
EndSplineSet
EndChar

StartChar: six
Encoding: 54 54 29
Width: 1225
Flags: W
LayerCount: 2
Fore
SplineSet
345 497 m 1,0,1
 345 404 345 404 365.5 328 c 128,-1,2
 386 252 386 252 424.5 198.5 c 128,-1,3
 463 145 463 145 517 116 c 128,-1,4
 571 87 571 87 637 87 c 0,5,6
 700 87 700 87 752 110.5 c 128,-1,7
 804 134 804 134 841.5 179 c 128,-1,8
 879 224 879 224 900 290 c 128,-1,9
 921 356 921 356 921 441 c 0,10,11
 921 519 921 519 903.5 578.5 c 128,-1,12
 886 638 886 638 854.5 678.5 c 128,-1,13
 823 719 823 719 779 740 c 128,-1,14
 735 761 735 761 681 761 c 0,15,16
 622 761 622 761 563 735 c 128,-1,17
 504 709 504 709 456 669.5 c 128,-1,18
 408 630 408 630 377.5 583.5 c 128,-1,19
 347 537 347 537 345 497 c 1,0,1
337 714 m 1,20,21
 425 802 425 802 517.5 844.5 c 128,-1,22
 610 887 610 887 715 887 c 0,23,24
 803 887 803 887 879 856.5 c 128,-1,25
 955 826 955 826 1010.5 769 c 128,-1,26
 1066 712 1066 712 1098 630 c 128,-1,27
 1130 548 1130 548 1130 445 c 0,28,29
 1130 339 1130 339 1094.5 250.5 c 128,-1,30
 1059 162 1059 162 993 98 c 128,-1,31
 927 34 927 34 834 -1.5 c 128,-1,32
 741 -37 741 -37 626 -37 c 0,33,34
 504 -37 504 -37 411 3.5 c 128,-1,35
 318 44 318 44 254 129.5 c 128,-1,36
 190 215 190 215 157.5 346.5 c 128,-1,37
 125 478 125 478 125 660 c 0,38,39
 125 855 125 855 159 1004 c 128,-1,40
 193 1153 193 1153 264 1254 c 128,-1,41
 335 1355 335 1355 445 1406.5 c 128,-1,42
 555 1458 555 1458 707 1458 c 0,43,44
 759 1458 759 1458 810.5 1453 c 128,-1,45
 862 1448 862 1448 908 1438 c 128,-1,46
 954 1428 954 1428 991.5 1414 c 128,-1,47
 1029 1400 1029 1400 1052 1382 c 1,48,-1
 1038 1068 l 1,49,-1
 918 1068 l 1,50,-1
 886 1281 l 1,51,52
 832 1310 832 1310 783.5 1323.5 c 128,-1,53
 735 1337 735 1337 690 1337 c 0,54,55
 607 1337 607 1337 541 1295.5 c 128,-1,56
 475 1254 475 1254 429 1180.5 c 128,-1,57
 383 1107 383 1107 358 1005 c 128,-1,58
 333 903 333 903 333 782 c 0,59,60
 333 765 333 765 334 748.5 c 128,-1,61
 335 732 335 732 337 714 c 1,20,21
EndSplineSet
EndChar

StartChar: seven
Encoding: 55 55 30
Width: 1201
Flags: W
LayerCount: 2
Fore
SplineSet
111 1381 m 1,0,1
 165 1410 165 1410 289 1423.5 c 128,-1,2
 413 1437 413 1437 613 1437 c 2,3,-1
 1077 1437 l 1,4,5
 1083 1421 1083 1421 1088 1406 c 128,-1,6
 1093 1391 1093 1391 1096 1373.5 c 128,-1,7
 1099 1356 1099 1356 1101 1334.5 c 128,-1,8
 1103 1313 1103 1313 1103 1285 c 1,9,-1
 626 188 l 1,10,11
 602 137 602 137 582.5 99.5 c 128,-1,12
 563 62 563 62 541.5 37.5 c 128,-1,13
 520 13 520 13 492 1 c 128,-1,14
 464 -11 464 -11 423 -11 c 0,15,16
 351 -11 351 -11 330 24 c 1,17,18
 341 56 341 56 357 89 c 2,19,-1
 937 1304 l 1,20,-1
 500 1304 l 2,21,22
 433 1304 433 1304 382 1299 c 128,-1,23
 331 1294 331 1294 297 1281 c 1,24,-1
 271 1067 l 1,25,-1
 156 1067 l 1,26,-1
 111 1381 l 1,0,1
EndSplineSet
EndChar

StartChar: eight
Encoding: 56 56 31
Width: 1174
Flags: W
LayerCount: 2
Fore
SplineSet
1030 1108 m 0,0,1
 1030 1042 1030 1042 1008.5 991 c 128,-1,2
 987 940 987 940 951.5 897 c 128,-1,3
 916 854 916 854 870 816 c 128,-1,4
 824 778 824 778 775 740 c 1,5,6
 833 714 833 714 888 680 c 128,-1,7
 943 646 943 646 985.5 600.5 c 128,-1,8
 1028 555 1028 555 1054 497.5 c 128,-1,9
 1080 440 1080 440 1080 367 c 0,10,11
 1080 262 1080 262 1041 185.5 c 128,-1,12
 1002 109 1002 109 933.5 59.5 c 128,-1,13
 865 10 865 10 773 -13.5 c 128,-1,14
 681 -37 681 -37 575 -37 c 0,15,16
 472 -37 472 -37 384 -12.5 c 128,-1,17
 296 12 296 12 231.5 58 c 128,-1,18
 167 104 167 104 130.5 171 c 128,-1,19
 94 238 94 238 94 323 c 0,20,21
 94 390 94 390 110.5 450 c 128,-1,22
 127 510 127 510 162 562 c 128,-1,23
 197 614 197 614 250.5 657.5 c 128,-1,24
 304 701 304 701 379 735 c 1,25,26
 306 771 306 771 255.5 811.5 c 128,-1,27
 205 852 205 852 174 898.5 c 128,-1,28
 143 945 143 945 129.5 998 c 128,-1,29
 116 1051 116 1051 116 1111 c 0,30,31
 116 1196 116 1196 153 1260.5 c 128,-1,32
 190 1325 190 1325 253 1369 c 128,-1,33
 316 1413 316 1413 399 1435.5 c 128,-1,34
 482 1458 482 1458 575 1458 c 0,35,36
 665 1458 665 1458 747.5 1435.5 c 128,-1,37
 830 1413 830 1413 893 1369 c 128,-1,38
 956 1325 956 1325 993 1259.5 c 128,-1,39
 1030 1194 1030 1194 1030 1108 c 0,0,1
506 676 m 1,40,41
 403 624 403 624 346 543 c 128,-1,42
 289 462 289 462 289 356 c 0,43,44
 289 289 289 289 311 238.5 c 128,-1,45
 333 188 333 188 371 154.5 c 128,-1,46
 409 121 409 121 461.5 104 c 128,-1,47
 514 87 514 87 575 87 c 0,48,49
 650 87 650 87 705 107.5 c 128,-1,50
 760 128 760 128 796 162.5 c 128,-1,51
 832 197 832 197 850 242 c 128,-1,52
 868 287 868 287 868 335 c 0,53,54
 868 434 868 434 795.5 512.5 c 128,-1,55
 723 591 723 591 592 642 c 2,56,-1
 506 676 l 1,40,41
837 1099 m 0,57,58
 837 1156 837 1156 818 1200 c 128,-1,59
 799 1244 799 1244 764.5 1274.5 c 128,-1,60
 730 1305 730 1305 681.5 1321 c 128,-1,61
 633 1337 633 1337 575 1337 c 0,62,63
 516 1337 516 1337 468 1321.5 c 128,-1,64
 420 1306 420 1306 385.5 1275.5 c 128,-1,65
 351 1245 351 1245 332.5 1200.5 c 128,-1,66
 314 1156 314 1156 314 1099 c 0,67,68
 314 1045 314 1045 335.5 999.5 c 128,-1,69
 357 954 357 954 396.5 916.5 c 128,-1,70
 436 879 436 879 491 850 c 128,-1,71
 546 821 546 821 614 800 c 1,72,73
 723 834 723 834 780 909.5 c 128,-1,74
 837 985 837 985 837 1099 c 0,57,58
EndSplineSet
EndChar

StartChar: nine
Encoding: 57 57 32
Width: 1223
Flags: W
LayerCount: 2
Fore
SplineSet
879 945 m 1,0,1
 879 1042 879 1042 858.5 1115.5 c 128,-1,2
 838 1189 838 1189 799.5 1238.5 c 128,-1,3
 761 1288 761 1288 707 1312.5 c 128,-1,4
 653 1337 653 1337 587 1337 c 0,5,6
 526 1337 526 1337 475.5 1314 c 128,-1,7
 425 1291 425 1291 389 1246.5 c 128,-1,8
 353 1202 353 1202 333 1137.5 c 128,-1,9
 313 1073 313 1073 313 990 c 0,10,11
 313 912 313 912 329 852.5 c 128,-1,12
 345 793 345 793 373.5 752.5 c 128,-1,13
 402 712 402 712 442.5 691 c 128,-1,14
 483 670 483 670 533 670 c 0,15,16
 610 670 610 670 673 697 c 128,-1,17
 736 724 736 724 781 765.5 c 128,-1,18
 826 807 826 807 851.5 855 c 128,-1,19
 877 903 877 903 879 945 c 1,0,1
887 707 m 1,20,21
 799 626 799 626 707 583.5 c 128,-1,22
 615 541 615 541 510 541 c 0,23,24
 424 541 424 541 349.5 572 c 128,-1,25
 275 603 275 603 220.5 660.5 c 128,-1,26
 166 718 166 718 135 800.5 c 128,-1,27
 104 883 104 883 104 987 c 0,28,29
 104 1090 104 1090 139 1177 c 128,-1,30
 174 1264 174 1264 238.5 1326 c 128,-1,31
 303 1388 303 1388 394 1423 c 128,-1,32
 485 1458 485 1458 598 1458 c 0,33,34
 720 1458 720 1458 813.5 1419 c 128,-1,35
 907 1380 907 1380 970 1299 c 128,-1,36
 1033 1218 1033 1218 1065.5 1092 c 128,-1,37
 1098 966 1098 966 1098 792 c 0,38,39
 1098 589 1098 589 1065.5 434 c 128,-1,40
 1033 279 1033 279 964.5 174.5 c 128,-1,41
 896 70 896 70 790 16.5 c 128,-1,42
 684 -37 684 -37 537 -37 c 0,43,44
 483 -37 483 -37 427.5 -30 c 128,-1,45
 372 -23 372 -23 322 -9 c 128,-1,46
 272 5 272 5 232 24.5 c 128,-1,47
 192 44 192 44 168 70 c 1,48,-1
 168 374 l 1,49,-1
 295 363 l 1,50,-1
 337 133 l 1,51,52
 442 87 442 87 534 87 c 0,53,54
 616 87 616 87 682.5 128.5 c 128,-1,55
 749 170 749 170 795 244.5 c 128,-1,56
 841 319 841 319 866 422 c 128,-1,57
 891 525 891 525 891 649 c 0,58,59
 891 664 891 664 890 678 c 128,-1,60
 889 692 889 692 887 707 c 1,20,21
EndSplineSet
EndChar

StartChar: colon
Encoding: 58 58 33
Width: 608
Flags: W
LayerCount: 2
Fore
SplineSet
421 162 m 1,0,1
 442 129 442 129 442 99 c 0,2,3
 442 63 442 63 430 38 c 128,-1,4
 418 13 418 13 399.5 -3 c 128,-1,5
 381 -19 381 -19 358 -26.5 c 128,-1,6
 335 -34 335 -34 313 -34 c 0,7,8
 274 -34 274 -34 246 -23 c 128,-1,9
 218 -12 218 -12 200.5 6.5 c 128,-1,10
 183 25 183 25 174.5 48.5 c 128,-1,11
 166 72 166 72 166 97 c 0,12,13
 166 173 166 173 205 208.5 c 128,-1,14
 244 244 244 244 305 244 c 0,15,16
 350 244 350 244 380 222.5 c 128,-1,17
 410 201 410 201 421 162 c 1,0,1
270 1051 m 0,18,19
 287 1055 287 1055 310 1055 c 0,20,21
 340 1055 340 1055 364.5 1044.5 c 128,-1,22
 389 1034 389 1034 407 1016 c 128,-1,23
 425 998 425 998 434.5 975 c 128,-1,24
 444 952 444 952 444 927 c 0,25,26
 444 889 444 889 433 861 c 128,-1,27
 422 833 422 833 404 815 c 128,-1,28
 386 797 386 797 362 788 c 128,-1,29
 338 779 338 779 313 779 c 0,30,31
 235 779 235 779 200.5 819 c 128,-1,32
 166 859 166 859 166 919 c 0,33,34
 166 973 166 973 192 1007 c 128,-1,35
 218 1041 218 1041 270 1051 c 0,18,19
EndSplineSet
EndChar

StartChar: semicolon
Encoding: 59 59 34
Width: 474
Flags: W
LayerCount: 2
Fore
SplineSet
186 1051 m 0,0,1
 203 1055 203 1055 224 1055 c 0,2,3
 254 1055 254 1055 279 1044.5 c 128,-1,4
 304 1034 304 1034 322 1016 c 128,-1,5
 340 998 340 998 349.5 975 c 128,-1,6
 359 952 359 952 359 927 c 0,7,8
 359 889 359 889 348 861 c 128,-1,9
 337 833 337 833 319 815 c 128,-1,10
 301 797 301 797 277 788 c 128,-1,11
 253 779 253 779 228 779 c 0,12,13
 189 779 189 779 161 789.5 c 128,-1,14
 133 800 133 800 115 819 c 128,-1,15
 97 838 97 838 89 863.5 c 128,-1,16
 81 889 81 889 81 919 c 0,17,18
 81 973 81 973 107.5 1007 c 128,-1,19
 134 1041 134 1041 186 1051 c 0,0,1
67 -232 m 1,20,21
 98 -190 98 -190 121 -131.5 c 128,-1,22
 144 -73 144 -73 158 -10 c 1,23,24
 158 -5 158 -5 158 -1.5 c 128,-1,25
 158 2 158 2 157 7 c 1,26,-1
 160 41 l 1,27,28
 145 41 145 41 130 45.5 c 128,-1,29
 115 50 115 50 103 60.5 c 128,-1,30
 91 71 91 71 84 88 c 128,-1,31
 77 105 77 105 77 129 c 1,32,33
 81 180 81 180 114 214 c 128,-1,34
 147 248 147 248 207 248 c 0,35,36
 249 248 249 248 276 239 c 128,-1,37
 303 230 303 230 318 214.5 c 128,-1,38
 333 199 333 199 339 177 c 128,-1,39
 345 155 345 155 345 129 c 0,40,41
 345 115 345 115 343 100 c 128,-1,42
 341 85 341 85 338 66 c 0,43,44
 328 9 328 9 308.5 -45.5 c 128,-1,45
 289 -100 289 -100 262 -149 c 128,-1,46
 235 -198 235 -198 201 -240 c 128,-1,47
 167 -282 167 -282 128 -314 c 1,48,49
 123 -316 123 -316 113 -316 c 0,50,51
 93 -316 93 -316 81 -312.5 c 128,-1,52
 69 -309 69 -309 61 -298 c 1,53,-1
 67 -232 l 1,20,21
EndSplineSet
EndChar

StartChar: less
Encoding: 60 60 35
Width: 1387
Flags: W
LayerCount: 2
Fore
SplineSet
1094 1071 m 2,0,1
 1123 1084 1123 1084 1149.5 1095 c 128,-1,2
 1176 1106 1176 1106 1201 1114 c 1,3,4
 1221 1097 1221 1097 1236 1054 c 1,5,-1
 1254 985 l 1,6,-1
 347 572 l 1,7,-1
 347 569 l 1,8,-1
 1252 157 l 1,9,-1
 1236 87 l 1,10,11
 1221 42 1221 42 1201 25 c 1,12,13
 1121 58 1121 58 855 179.5 c 128,-1,14
 589 301 589 301 133 510 c 1,15,-1
 133 574 l 2,16,17
 133 602 133 602 154 611 c 1,18,-1
 159 644 l 1,19,-1
 1094 1071 l 2,0,1
EndSplineSet
EndChar

StartChar: equal
Encoding: 61 61 36
Width: 1288
Flags: W
LayerCount: 2
Fore
SplineSet
133 733 m 1,0,-1
 133 802 l 2,1,2
 133 832 133 832 140.5 847.5 c 128,-1,3
 148 863 148 863 162 870 c 128,-1,4
 176 877 176 877 195.5 877.5 c 128,-1,5
 215 878 215 878 240 878 c 2,6,-1
 1155 878 l 1,7,-1
 1155 811 l 2,8,9
 1155 776 1155 776 1144 758.5 c 128,-1,10
 1133 741 1133 741 1108 733 c 1,11,-1
 133 733 l 1,0,-1
133 332 m 1,12,-1
 133 399 l 2,13,14
 133 424 133 424 136 439 c 128,-1,15
 139 454 139 454 148 462 c 128,-1,16
 157 470 157 470 172.5 472.5 c 128,-1,17
 188 475 188 475 213 475 c 2,18,-1
 1155 475 l 1,19,-1
 1155 410 l 2,20,21
 1155 375 1155 375 1144 357.5 c 128,-1,22
 1133 340 1133 340 1108 332 c 1,23,-1
 133 332 l 1,12,-1
EndSplineSet
EndChar

StartChar: greater
Encoding: 62 62 37
Width: 1386
Flags: W
LayerCount: 2
Fore
SplineSet
1228 643 m 1,0,1
 1236 629 1236 629 1244.5 614 c 128,-1,2
 1253 599 1253 599 1253 573 c 2,3,-1
 1253 509 l 1,4,-1
 257 54 l 2,5,6
 237 45 237 45 219.5 37 c 128,-1,7
 202 29 202 29 186 24 c 1,8,9
 169 32 169 32 163 47.5 c 128,-1,10
 157 63 157 63 152 86 c 2,11,-1
 135 155 l 1,12,-1
 1039 568 l 1,13,-1
 1039 571 l 1,14,-1
 133 984 l 1,15,-1
 152 1053 l 1,16,17
 165 1081 165 1081 186 1081 c 1,18,19
 197 1098 197 1098 214 1106 c 1,20,-1
 1228 643 l 1,0,1
EndSplineSet
EndChar

StartChar: question
Encoding: 63 63 38
Width: 984
Flags: W
LayerCount: 2
Fore
SplineSet
565 162 m 1,0,1
 587 131 587 131 587 98 c 0,2,3
 587 63 587 63 575 38 c 128,-1,4
 563 13 563 13 544 -3 c 128,-1,5
 525 -19 525 -19 502.5 -26.5 c 128,-1,6
 480 -34 480 -34 458 -34 c 0,7,8
 418 -34 418 -34 390 -22.5 c 128,-1,9
 362 -11 362 -11 344.5 7.5 c 128,-1,10
 327 26 327 26 319 49.5 c 128,-1,11
 311 73 311 73 311 97 c 0,12,13
 311 172 311 172 348.5 208 c 128,-1,14
 386 244 386 244 449 244 c 0,15,16
 495 244 495 244 524.5 222.5 c 128,-1,17
 554 201 554 201 565 162 c 1,0,1
540 387 m 1,18,19
 523 383 523 383 503 382 c 128,-1,20
 483 381 483 381 462 381 c 1,21,22
 441 393 441 393 417.5 413 c 128,-1,23
 394 433 394 433 374.5 458.5 c 128,-1,24
 355 484 355 484 342 514 c 128,-1,25
 329 544 329 544 329 577 c 0,26,27
 329 627 329 627 353.5 669.5 c 128,-1,28
 378 712 378 712 414.5 751.5 c 128,-1,29
 451 791 451 791 493.5 830.5 c 128,-1,30
 536 870 536 870 572.5 914 c 128,-1,31
 609 958 609 958 633.5 1008.5 c 128,-1,32
 658 1059 658 1059 658 1122 c 0,33,34
 658 1171 658 1171 644.5 1210.5 c 128,-1,35
 631 1250 631 1250 606.5 1277.5 c 128,-1,36
 582 1305 582 1305 547.5 1319.5 c 128,-1,37
 513 1334 513 1334 471 1334 c 0,38,39
 396 1334 396 1334 335 1291.5 c 128,-1,40
 274 1249 274 1249 225 1171 c 1,41,42
 189 1162 189 1162 161.5 1157.5 c 128,-1,43
 134 1153 134 1153 116 1151 c 1,44,45
 107 1191 107 1191 97.5 1231 c 128,-1,46
 88 1271 88 1271 88 1305 c 0,47,48
 88 1349 88 1349 119.5 1380 c 128,-1,49
 151 1411 151 1411 200 1430.5 c 128,-1,50
 249 1450 249 1450 309 1459 c 128,-1,51
 369 1468 369 1468 425 1468 c 0,52,53
 527 1468 527 1468 611 1444.5 c 128,-1,54
 695 1421 695 1421 754.5 1376 c 128,-1,55
 814 1331 814 1331 847 1266 c 128,-1,56
 880 1201 880 1201 880 1118 c 0,57,58
 880 1068 880 1068 868 1026 c 128,-1,59
 856 984 856 984 832 946 c 128,-1,60
 808 908 808 908 772 871.5 c 128,-1,61
 736 835 736 835 689 796 c 2,62,-1
 601 723 l 1,63,64
 573 703 573 703 557.5 690 c 128,-1,65
 542 677 542 677 534.5 667.5 c 128,-1,66
 527 658 527 658 525 650.5 c 128,-1,67
 523 643 523 643 523 635 c 1,68,69
 519 626 519 626 519 612 c 0,70,71
 519 596 519 596 526 581.5 c 128,-1,72
 533 567 533 567 541 551.5 c 128,-1,73
 549 536 549 536 556 518.5 c 128,-1,74
 563 501 563 501 563 479 c 0,75,76
 563 424 563 424 540 387 c 1,18,19
EndSplineSet
EndChar

StartChar: at
Encoding: 64 64 39
Width: 1859
Flags: W
LayerCount: 2
Fore
SplineSet
1554 0 m 1,0,1
 1422 -85 1422 -85 1277.5 -128.5 c 128,-1,2
 1133 -172 1133 -172 992 -172 c 0,3,4
 864 -172 864 -172 750.5 -143 c 128,-1,5
 637 -114 637 -114 541.5 -61 c 128,-1,6
 446 -8 446 -8 370 65.5 c 128,-1,7
 294 139 294 139 241.5 228 c 128,-1,8
 189 317 189 317 161 419 c 128,-1,9
 133 521 133 521 133 630 c 0,10,11
 133 754 133 754 164.5 864 c 128,-1,12
 196 974 196 974 252.5 1067 c 128,-1,13
 309 1160 309 1160 388.5 1234.5 c 128,-1,14
 468 1309 468 1309 565 1361 c 128,-1,15
 662 1413 662 1413 772.5 1440.5 c 128,-1,16
 883 1468 883 1468 1003 1468 c 0,17,18
 1162 1468 1162 1468 1298.5 1418 c 128,-1,19
 1435 1368 1435 1368 1535.5 1276.5 c 128,-1,20
 1636 1185 1636 1185 1693.5 1055.5 c 128,-1,21
 1751 926 1751 926 1751 767 c 0,22,23
 1751 667 1751 667 1720.5 569.5 c 128,-1,24
 1690 472 1690 472 1635.5 395 c 128,-1,25
 1581 318 1581 318 1505.5 270.5 c 128,-1,26
 1430 223 1430 223 1340 223 c 0,27,28
 1294 223 1294 223 1257 236.5 c 128,-1,29
 1220 250 1220 250 1192.5 273 c 128,-1,30
 1165 296 1165 296 1146 327.5 c 128,-1,31
 1127 359 1127 359 1117 395 c 1,32,-1
 1109 395 l 1,33,34
 1088 357 1088 357 1060.5 325.5 c 128,-1,35
 1033 294 1033 294 999 271.5 c 128,-1,36
 965 249 965 249 926 236 c 128,-1,37
 887 223 887 223 842 223 c 0,38,39
 789 223 789 223 739.5 241 c 128,-1,40
 690 259 690 259 652.5 297 c 128,-1,41
 615 335 615 335 592.5 393.5 c 128,-1,42
 570 452 570 452 570 533 c 0,43,44
 570 642 570 642 606 744 c 128,-1,45
 642 846 642 846 706.5 924 c 128,-1,46
 771 1002 771 1002 861 1049 c 128,-1,47
 951 1096 951 1096 1059 1096 c 0,48,49
 1110 1096 1110 1096 1150.5 1077.5 c 128,-1,50
 1191 1059 1191 1059 1214 1017 c 1,51,-1
 1217 1017 l 1,52,-1
 1236 1097 l 1,53,54
 1293 1091 1293 1091 1325.5 1073 c 128,-1,55
 1358 1055 1358 1055 1375 1035 c 1,56,-1
 1360 972 l 1,57,58
 1360 967 1360 967 1359 965 c 2,59,-1
 1267 552 l 2,60,61
 1254 496 1254 496 1254 446 c 0,62,63
 1254 383 1254 383 1281 353.5 c 128,-1,64
 1308 324 1308 324 1362 324 c 0,65,66
 1413 324 1413 324 1461.5 360.5 c 128,-1,67
 1510 397 1510 397 1548.5 458.5 c 128,-1,68
 1587 520 1587 520 1610 601 c 128,-1,69
 1633 682 1633 682 1633 772 c 0,70,71
 1633 896 1633 896 1588 1003.5 c 128,-1,72
 1543 1111 1543 1111 1460.5 1190.5 c 128,-1,73
 1378 1270 1378 1270 1261.5 1316 c 128,-1,74
 1145 1362 1145 1362 1001 1362 c 0,75,76
 867 1362 867 1362 742.5 1313 c 128,-1,77
 618 1264 618 1264 522.5 1170 c 128,-1,78
 427 1076 427 1076 370 938.5 c 128,-1,79
 313 801 313 801 313 623 c 0,80,81
 313 464 313 464 368 336 c 128,-1,82
 423 208 423 208 517.5 117 c 128,-1,83
 612 26 612 26 738 -23 c 128,-1,84
 864 -72 864 -72 1007 -72 c 0,85,86
 1144 -72 1144 -72 1271 -35.5 c 128,-1,87
 1398 1 1398 1 1515 73 c 1,88,-1
 1554 0 l 1,0,1
839 357 m 1,89,90
 866 330 866 330 901 330 c 0,91,92
 942 330 942 330 975 347 c 128,-1,93
 1008 364 1008 364 1033.5 394 c 128,-1,94
 1059 424 1059 424 1078 465 c 128,-1,95
 1097 506 1097 506 1111 554 c 0,96,97
 1134 635 1134 635 1152.5 722.5 c 128,-1,98
 1171 810 1171 810 1184 906 c 1,99,100
 1176 952 1176 952 1147 978.5 c 128,-1,101
 1118 1005 1118 1005 1064 1005 c 0,102,103
 1005 1005 1005 1005 949.5 963.5 c 128,-1,104
 894 922 894 922 850.5 855 c 128,-1,105
 807 788 807 788 780.5 703.5 c 128,-1,106
 754 619 754 619 754 533 c 0,107,108
 754 458 754 458 777 416 c 128,-1,109
 800 374 800 374 839 357 c 1,89,90
EndSplineSet
EndChar

StartChar: A
Encoding: 65 65 40
Width: 1581
Flags: W
LayerCount: 2
Fore
SplineSet
750 1259 m 1,0,-1
 499 526 l 1,1,-1
 1005 526 l 1,2,-1
 759 1259 l 1,3,-1
 750 1259 l 1,0,-1
1352 259 m 2,4,5
 1368 217 1368 217 1382.5 187.5 c 128,-1,6
 1397 158 1397 158 1412 135 c 1,7,8
 1435 129 1435 129 1458.5 127.5 c 128,-1,9
 1482 126 1482 126 1508 126 c 2,10,-1
 1552 126 l 1,11,-1
 1581 -14 l 1,12,13
 1505 -3 1505 -3 1438.5 -1.5 c 128,-1,14
 1372 0 1372 0 1309 0 c 0,15,16
 1237 0 1237 0 1173.5 -2.5 c 128,-1,17
 1110 -5 1110 -5 1041 -14 c 1,18,-1
 1022 126 l 1,19,-1
 1039 126 l 2,20,21
 1068 126 1068 126 1093 127 c 128,-1,22
 1118 128 1118 128 1138 135 c 1,23,24
 1138 181 1138 181 1109 256 c 2,25,-1
 1043 423 l 1,26,-1
 466 423 l 1,27,-1
 412 259 l 2,28,29
 400 223 400 223 394.5 196.5 c 128,-1,30
 389 170 389 170 389 147 c 0,31,32
 389 138 389 138 397 134 c 128,-1,33
 405 130 405 130 416.5 128 c 128,-1,34
 428 126 428 126 442 126 c 128,-1,35
 456 126 456 126 468 126 c 2,36,-1
 507 126 l 1,37,-1
 498 -14 l 1,38,39
 435 -3 435 -3 375.5 -1.5 c 128,-1,40
 316 0 316 0 259 0 c 0,41,42
 192 0 192 0 130.5 -2.5 c 128,-1,43
 69 -5 69 -5 0 -14 c 1,44,-1
 30 126 l 1,45,-1
 76 126 l 2,46,47
 103 126 103 126 126.5 127 c 128,-1,48
 150 128 150 128 172 135 c 1,49,50
 189 158 189 158 204 188 c 128,-1,51
 219 218 219 218 233 256 c 0,52,53
 245 289 245 289 271 357.5 c 128,-1,54
 297 426 297 426 331.5 515 c 128,-1,55
 366 604 366 604 407 707.5 c 128,-1,56
 448 811 448 811 489 913 c 2,57,-1
 697 1437 l 1,58,-1
 789 1437 l 2,59,60
 834 1437 834 1437 860.5 1433 c 128,-1,61
 887 1429 887 1429 911 1421 c 1,62,-1
 1352 259 l 2,4,5
EndSplineSet
EndChar

StartChar: B
Encoding: 66 66 41
Width: 1457
Flags: W
LayerCount: 2
Fore
SplineSet
529 126 m 1,0,-1
 775 126 l 2,1,2
 948 126 948 126 1027.5 194.5 c 128,-1,3
 1107 263 1107 263 1107 386 c 0,4,5
 1107 533 1107 533 1018 606.5 c 128,-1,6
 929 680 929 680 737 680 c 2,7,-1
 655 680 l 2,8,9
 624 680 624 680 592.5 680 c 128,-1,10
 561 680 561 680 529 678 c 1,11,-1
 529 126 l 1,0,-1
1076 1064 m 0,12,13
 1076 1128 1076 1128 1056.5 1176.5 c 128,-1,14
 1037 1225 1037 1225 994.5 1258 c 128,-1,15
 952 1291 952 1291 885 1307.5 c 128,-1,16
 818 1324 818 1324 723 1324 c 0,17,18
 674 1324 674 1324 640 1322.5 c 128,-1,19
 606 1321 606 1321 583.5 1319.5 c 128,-1,20
 561 1318 561 1318 548.5 1317 c 128,-1,21
 536 1316 536 1316 529 1316 c 1,22,-1
 529 804 l 1,23,24
 571 801 571 801 613.5 798.5 c 128,-1,25
 656 796 656 796 701 796 c 0,26,27
 787 796 787 796 856.5 812.5 c 128,-1,28
 926 829 926 829 974.5 862.5 c 128,-1,29
 1023 896 1023 896 1049.5 946 c 128,-1,30
 1076 996 1076 996 1076 1064 c 0,12,13
306 1154 m 2,31,32
 306 1244 306 1244 290 1298 c 1,33,34
 273 1300 273 1300 252.5 1301.5 c 128,-1,35
 232 1303 232 1303 209 1303 c 0,36,37
 178 1303 178 1303 144 1301.5 c 128,-1,38
 110 1300 110 1300 78 1299 c 1,39,-1
 78 1413 l 1,40,41
 212 1432 212 1432 382.5 1441.5 c 128,-1,42
 553 1451 553 1451 770 1453 c 1,43,44
 1030 1453 1030 1453 1162.5 1357 c 128,-1,45
 1295 1261 1295 1261 1295 1070 c 0,46,47
 1295 1010 1295 1010 1273 956 c 128,-1,48
 1251 902 1251 902 1211.5 859.5 c 128,-1,49
 1172 817 1172 817 1117 788 c 128,-1,50
 1062 759 1062 759 996 750 c 1,51,-1
 996 748 l 1,52,53
 1332 703 1332 703 1332 393 c 0,54,55
 1332 301 1332 301 1304.5 236.5 c 128,-1,56
 1277 172 1277 172 1228 128 c 128,-1,57
 1179 84 1179 84 1111 58.5 c 128,-1,58
 1043 33 1043 33 963 20 c 128,-1,59
 883 7 883 7 793 3.5 c 128,-1,60
 703 0 703 0 609 0 c 0,61,62
 480 0 480 0 353.5 -3.5 c 128,-1,63
 227 -7 227 -7 98 -14 c 1,64,-1
 98 126 l 1,65,-1
 187 126 l 2,66,67
 216 126 216 126 242 127 c 128,-1,68
 268 128 268 128 290 135 c 1,69,70
 306 177 306 177 306 256 c 2,71,-1
 306 1154 l 2,31,32
EndSplineSet
EndChar

StartChar: C
Encoding: 67 67 42
Width: 1375
Flags: W
LayerCount: 2
Fore
SplineSet
1306 82 m 1,0,1
 1209 25 1209 25 1088 -6 c 128,-1,2
 967 -37 967 -37 814 -37 c 0,3,4
 663 -37 663 -37 535.5 7.5 c 128,-1,5
 408 52 408 52 315 141.5 c 128,-1,6
 222 231 222 231 169.5 366.5 c 128,-1,7
 117 502 117 502 117 685 c 0,8,9
 117 870 117 870 165 1014 c 128,-1,10
 213 1158 213 1158 305 1256.5 c 128,-1,11
 397 1355 397 1355 531.5 1406.5 c 128,-1,12
 666 1458 666 1458 839 1458 c 0,13,14
 915 1458 915 1458 984 1448 c 128,-1,15
 1053 1438 1053 1438 1110.5 1422.5 c 128,-1,16
 1168 1407 1168 1407 1212.5 1389 c 128,-1,17
 1257 1371 1257 1371 1283 1355 c 1,18,-1
 1259 1076 l 1,19,-1
 1136 1076 l 1,20,21
 1111 1143 1111 1143 1085 1192.5 c 128,-1,22
 1059 1242 1059 1242 1025 1274 c 128,-1,23
 991 1306 991 1306 945 1321.5 c 128,-1,24
 899 1337 899 1337 834 1337 c 0,25,26
 708 1337 708 1337 618 1290 c 128,-1,27
 528 1243 528 1243 470.5 1161.5 c 128,-1,28
 413 1080 413 1080 385.5 968.5 c 128,-1,29
 358 857 358 857 358 728 c 0,30,31
 358 566 358 566 391.5 447.5 c 128,-1,32
 425 329 425 329 486.5 251 c 128,-1,33
 548 173 548 173 635.5 135.5 c 128,-1,34
 723 98 723 98 831 98 c 0,35,36
 933 98 933 98 1047 129 c 128,-1,37
 1161 160 1161 160 1291 221 c 1,38,-1
 1306 82 l 1,0,1
EndSplineSet
EndChar

StartChar: D
Encoding: 68 68 43
Width: 1618
Flags: W
LayerCount: 2
Fore
SplineSet
410 0 m 0,0,1
 329 0 329 0 250.5 -4.5 c 128,-1,2
 172 -9 172 -9 91 -14 c 1,3,-1
 91 127 l 1,4,-1
 181 127 l 2,5,6
 210 127 210 127 236 128 c 128,-1,7
 262 129 262 129 284 136 c 1,8,9
 299 181 299 181 299 257 c 2,10,-1
 299 1145 l 2,11,12
 299 1190 299 1190 295 1224.5 c 128,-1,13
 291 1259 291 1259 284 1288 c 1,14,15
 262 1296 262 1296 236 1297.5 c 128,-1,16
 210 1299 210 1299 181 1299 c 2,17,-1
 78 1299 l 1,18,-1
 78 1416 l 1,19,20
 214 1433 214 1433 387 1443 c 128,-1,21
 560 1453 560 1453 781 1453 c 0,22,23
 882 1453 882 1453 975 1438.5 c 128,-1,24
 1068 1424 1068 1424 1148 1390 c 128,-1,25
 1228 1356 1228 1356 1293 1300 c 128,-1,26
 1358 1244 1358 1244 1404.5 1161.5 c 128,-1,27
 1451 1079 1451 1079 1476 967.5 c 128,-1,28
 1501 856 1501 856 1501 710 c 0,29,30
 1501 540 1501 540 1463 421.5 c 128,-1,31
 1425 303 1425 303 1355.5 224 c 128,-1,32
 1286 145 1286 145 1187.5 100 c 128,-1,33
 1089 55 1089 55 967.5 33 c 128,-1,34
 846 11 846 11 705 5.5 c 128,-1,35
 564 0 564 0 410 0 c 0,0,1
515 126 m 1,36,37
 541 124 541 124 566 124 c 128,-1,38
 591 124 591 124 616 124 c 0,39,40
 777 124 777 124 898 151.5 c 128,-1,41
 1019 179 1019 179 1099.5 247 c 128,-1,42
 1180 315 1180 315 1220.5 429 c 128,-1,43
 1261 543 1261 543 1261 716 c 0,44,45
 1261 885 1261 885 1230.5 999.5 c 128,-1,46
 1200 1114 1200 1114 1137 1184 c 128,-1,47
 1074 1254 1074 1254 978.5 1284 c 128,-1,48
 883 1314 883 1314 753 1314 c 0,49,50
 683 1314 683 1314 619 1312 c 128,-1,51
 555 1310 555 1310 515 1310 c 1,52,-1
 515 126 l 1,36,37
EndSplineSet
EndChar

StartChar: E
Encoding: 69 69 44
Width: 1359
Flags: W
LayerCount: 2
Fore
SplineSet
1204 1437 m 1,0,-1
 1231 1308 l 2,1,2
 1236 1283 1236 1283 1241 1257.5 c 128,-1,3
 1246 1232 1246 1232 1249.5 1209.5 c 128,-1,4
 1253 1187 1253 1187 1255.5 1170 c 128,-1,5
 1258 1153 1258 1153 1258 1144 c 1,6,-1
 1111 1138 l 1,7,-1
 1103 1188 l 2,8,9
 1099 1210 1099 1210 1093.5 1234.5 c 128,-1,10
 1088 1259 1088 1259 1080 1282 c 1,11,12
 1045 1298 1045 1298 984 1304 c 128,-1,13
 923 1310 923 1310 823 1310 c 0,14,15
 811 1310 811 1310 791.5 1309.5 c 128,-1,16
 772 1309 772 1309 737 1308.5 c 128,-1,17
 702 1308 702 1308 648.5 1306.5 c 128,-1,18
 595 1305 595 1305 515 1303 c 1,19,-1
 515 799 l 1,20,-1
 855 799 l 2,21,22
 875 799 875 799 892.5 801.5 c 128,-1,23
 910 804 910 804 925 814.5 c 128,-1,24
 940 825 940 825 952.5 847.5 c 128,-1,25
 965 870 965 870 976 910 c 1,26,-1
 1028 910 l 1,27,28
 1028 819 1028 819 1024.5 727 c 128,-1,29
 1021 635 1021 635 1015 554 c 1,30,-1
 952 555 l 1,31,32
 940 592 940 592 928.5 616 c 128,-1,33
 917 640 917 640 902 654 c 128,-1,34
 887 668 887 668 868 673.5 c 128,-1,35
 849 679 849 679 822 679 c 2,36,-1
 515 679 l 1,37,-1
 515 126 l 1,38,-1
 971 126 l 2,39,40
 1022 126 1022 126 1062.5 136 c 128,-1,41
 1103 146 1103 146 1119 160 c 1,42,43
 1127 183 1127 183 1134 222 c 128,-1,44
 1141 261 1141 261 1146 327 c 1,45,46
 1171 327 1171 327 1206 326 c 128,-1,47
 1241 325 1241 325 1273 325 c 1,48,-1
 1270 209 l 2,49,50
 1268 161 1268 161 1265.5 109 c 128,-1,51
 1263 57 1263 57 1260 21 c 1,52,53
 1230 12 1230 12 1196.5 5.5 c 128,-1,54
 1163 -1 1163 -1 1118 -5.5 c 128,-1,55
 1073 -10 1073 -10 1012.5 -12 c 128,-1,56
 952 -14 952 -14 869 -14 c 0,57,58
 807 -14 807 -14 750 -12 c 128,-1,59
 693 -10 693 -10 637 -7 c 128,-1,60
 581 -4 581 -4 524.5 -2 c 128,-1,61
 468 0 468 0 407 0 c 0,62,63
 325 0 325 0 247.5 -2 c 128,-1,64
 170 -4 170 -4 89 -14 c 1,65,-1
 89 126 l 1,66,-1
 178 126 l 2,67,68
 208 126 208 126 234 127 c 128,-1,69
 260 128 260 128 281 135 c 1,70,71
 297 179 297 179 297 256 c 2,72,-1
 297 1174 l 2,73,74
 297 1212 297 1212 292.5 1240 c 128,-1,75
 288 1268 288 1268 280 1289 c 1,76,77
 260 1297 260 1297 234.5 1298 c 128,-1,78
 209 1299 209 1299 180 1299 c 2,79,-1
 78 1299 l 1,80,-1
 78 1407 l 1,81,82
 126 1416 126 1416 184.5 1422 c 128,-1,83
 243 1428 243 1428 308.5 1431 c 128,-1,84
 374 1434 374 1434 445.5 1435.5 c 128,-1,85
 517 1437 517 1437 592 1437 c 2,86,-1
 1204 1437 l 1,0,-1
EndSplineSet
EndChar

StartChar: F
Encoding: 70 70 45
Width: 1354
Flags: W
LayerCount: 2
Fore
SplineSet
523 803 m 1,0,-1
 820 803 l 2,1,2
 840 803 840 803 857 806 c 128,-1,3
 874 809 874 809 889 820 c 128,-1,4
 904 831 904 831 916.5 852 c 128,-1,5
 929 873 929 873 940 910 c 1,6,-1
 992 910 l 1,7,8
 992 819 992 819 989 727 c 128,-1,9
 986 635 986 635 980 554 c 1,10,-1
 917 555 l 1,11,12
 905 591 905 591 893 614 c 128,-1,13
 881 637 881 637 866.5 650 c 128,-1,14
 852 663 852 663 833 667.5 c 128,-1,15
 814 672 814 672 787 672 c 2,16,-1
 523 672 l 1,17,-1
 523 259 l 2,18,19
 523 217 523 217 527 187.5 c 128,-1,20
 531 158 531 158 538 135 c 1,21,22
 560 128 560 128 586 127 c 128,-1,23
 612 126 612 126 641 126 c 2,24,-1
 731 126 l 1,25,-1
 731 -14 l 1,26,27
 643 -9 643 -9 566 -4.5 c 128,-1,28
 489 0 489 0 414 0 c 0,29,30
 333 0 333 0 256 -4.5 c 128,-1,31
 179 -9 179 -9 98 -14 c 1,32,-1
 98 126 l 1,33,-1
 187 126 l 2,34,35
 216 126 216 126 242 127 c 128,-1,36
 268 128 268 128 290 135 c 1,37,38
 306 177 306 177 306 256 c 2,39,-1
 305 1178 l 2,40,41
 305 1250 305 1250 289 1289 c 1,42,43
 268 1297 268 1297 242.5 1298 c 128,-1,44
 217 1299 217 1299 188 1299 c 2,45,-1
 78 1299 l 1,46,-1
 78 1407 l 1,47,48
 198 1421 198 1421 373.5 1429 c 128,-1,49
 549 1437 549 1437 772 1437 c 2,50,-1
 1212 1437 l 1,51,-1
 1239 1308 l 2,52,53
 1244 1283 1244 1283 1249 1257.5 c 128,-1,54
 1254 1232 1254 1232 1257.5 1209.5 c 128,-1,55
 1261 1187 1261 1187 1263.5 1170 c 128,-1,56
 1266 1153 1266 1153 1266 1144 c 1,57,-1
 1120 1138 l 1,58,59
 1120 1158 1120 1158 1109 1197.5 c 128,-1,60
 1098 1237 1098 1237 1078 1282 c 1,61,62
 1045 1298 1045 1298 986.5 1304 c 128,-1,63
 928 1310 928 1310 831 1310 c 0,64,65
 819 1310 819 1310 799.5 1309.5 c 128,-1,66
 780 1309 780 1309 745.5 1308.5 c 128,-1,67
 711 1308 711 1308 657 1306.5 c 128,-1,68
 603 1305 603 1305 523 1303 c 1,69,-1
 523 803 l 1,0,-1
EndSplineSet
EndChar

StartChar: G
Encoding: 71 71 46
Width: 1456
Flags: W
LayerCount: 2
Fore
SplineSet
896 1458 m 0,0,1
 968 1458 968 1458 1034.5 1448 c 128,-1,2
 1101 1438 1101 1438 1157 1422.5 c 128,-1,3
 1213 1407 1213 1407 1256 1389 c 128,-1,4
 1299 1371 1299 1371 1324 1355 c 1,5,-1
 1299 1076 l 1,6,-1
 1176 1076 l 1,7,8
 1151 1143 1151 1143 1125 1192.5 c 128,-1,9
 1099 1242 1099 1242 1064.5 1274 c 128,-1,10
 1030 1306 1030 1306 984 1321.5 c 128,-1,11
 938 1337 938 1337 873 1337 c 0,12,13
 741 1337 741 1337 644.5 1293 c 128,-1,14
 548 1249 548 1249 484 1167.5 c 128,-1,15
 420 1086 420 1086 389 969 c 128,-1,16
 358 852 358 852 358 705 c 0,17,18
 358 569 358 569 389.5 457 c 128,-1,19
 421 345 421 345 482.5 265 c 128,-1,20
 544 185 544 185 634.5 141 c 128,-1,21
 725 97 725 97 844 97 c 0,22,23
 932 97 932 97 1006 110 c 128,-1,24
 1080 123 1080 123 1140 152 c 1,25,-1
 1140 384 l 2,26,27
 1140 421 1140 421 1137 454.5 c 128,-1,28
 1134 488 1134 488 1126 513 c 1,29,30
 1104 521 1104 521 1077.5 524 c 128,-1,31
 1051 527 1051 527 1019 527 c 2,32,-1
 901 527 l 1,33,-1
 901 635 l 1,34,35
 918 636 918 636 944.5 639 c 128,-1,36
 971 642 971 642 1012 645 c 128,-1,37
 1053 648 1053 648 1111.5 650.5 c 128,-1,38
 1170 653 1170 653 1251 653 c 0,39,40
 1275 653 1275 653 1301 653 c 128,-1,41
 1327 653 1327 653 1356 652 c 1,42,-1
 1353 569 l 2,43,44
 1351 536 1351 536 1350.5 503 c 128,-1,45
 1350 470 1350 470 1350 453 c 2,46,-1
 1350 101 l 1,47,48
 1262 41 1262 41 1132.5 2 c 128,-1,49
 1003 -37 1003 -37 842 -37 c 0,50,51
 689 -37 689 -37 557 5.5 c 128,-1,52
 425 48 425 48 327 136.5 c 128,-1,53
 229 225 229 225 173 361 c 128,-1,54
 117 497 117 497 117 683 c 0,55,56
 117 879 117 879 172 1024.5 c 128,-1,57
 227 1170 227 1170 328.5 1266.5 c 128,-1,58
 430 1363 430 1363 574 1410.5 c 128,-1,59
 718 1458 718 1458 896 1458 c 0,0,1
EndSplineSet
EndChar

StartChar: H
Encoding: 72 72 47
Width: 1696
Flags: W
LayerCount: 2
Fore
SplineSet
1189 676 m 1,0,-1
 506 676 l 1,1,-1
 506 259 l 2,2,3
 506 217 506 217 509.5 187.5 c 128,-1,4
 513 158 513 158 520 135 c 1,5,6
 543 128 543 128 568.5 127 c 128,-1,7
 594 126 594 126 623 126 c 2,8,-1
 713 126 l 1,9,-1
 713 -14 l 1,10,11
 622 -3 622 -3 544 -1.5 c 128,-1,12
 466 0 466 0 390 0 c 0,13,14
 311 0 311 0 235 -2 c 128,-1,15
 159 -4 159 -4 80 -14 c 1,16,-1
 80 126 l 1,17,-1
 169 126 l 2,18,19
 199 126 199 126 224.5 127 c 128,-1,20
 250 128 250 128 272 135 c 1,21,22
 288 180 288 180 288 256 c 2,23,-1
 288 1181 l 2,24,25
 288 1220 288 1220 283.5 1249 c 128,-1,26
 279 1278 279 1278 271 1301 c 1,27,28
 249 1309 249 1309 223.5 1310.5 c 128,-1,29
 198 1312 198 1312 168 1312 c 2,30,-1
 78 1312 l 1,31,-1
 78 1422 l 1,32,33
 147 1430 147 1430 222 1433.5 c 128,-1,34
 297 1437 297 1437 388 1437 c 0,35,36
 485 1437 485 1437 569 1435 c 128,-1,37
 653 1433 653 1433 716 1422 c 1,38,-1
 716 1312 l 1,39,-1
 623 1312 l 2,40,41
 594 1312 594 1312 568.5 1310.5 c 128,-1,42
 543 1309 543 1309 520 1301 c 1,43,44
 513 1278 513 1278 509.5 1249 c 128,-1,45
 506 1220 506 1220 506 1181 c 2,46,-1
 506 811 l 1,47,-1
 1189 811 l 1,48,-1
 1189 1181 l 2,49,50
 1189 1220 1189 1220 1185 1249 c 128,-1,51
 1181 1278 1181 1278 1173 1301 c 1,52,53
 1151 1309 1151 1309 1125 1310.5 c 128,-1,54
 1099 1312 1099 1312 1070 1312 c 2,55,-1
 980 1312 l 1,56,-1
 980 1422 l 1,57,58
 1049 1430 1049 1430 1124 1433.5 c 128,-1,59
 1199 1437 1199 1437 1290 1437 c 0,60,61
 1387 1437 1387 1437 1471 1435 c 128,-1,62
 1555 1433 1555 1433 1618 1422 c 1,63,-1
 1618 1312 l 1,64,-1
 1525 1312 l 2,65,66
 1496 1312 1496 1312 1470 1310.5 c 128,-1,67
 1444 1309 1444 1309 1422 1301 c 1,68,69
 1415 1278 1415 1278 1410.5 1249 c 128,-1,70
 1406 1220 1406 1220 1406 1181 c 2,71,-1
 1406 259 l 2,72,73
 1406 217 1406 217 1410 187.5 c 128,-1,74
 1414 158 1414 158 1421 135 c 1,75,76
 1443 128 1443 128 1469 127 c 128,-1,77
 1495 126 1495 126 1524 126 c 2,78,-1
 1614 126 l 1,79,-1
 1614 -14 l 1,80,81
 1523 -3 1523 -3 1444.5 -1.5 c 128,-1,82
 1366 0 1366 0 1290 0 c 0,83,84
 1211 0 1211 0 1135.5 -2 c 128,-1,85
 1060 -4 1060 -4 981 -14 c 1,86,-1
 981 126 l 1,87,-1
 1070 126 l 2,88,89
 1099 126 1099 126 1125 127 c 128,-1,90
 1151 128 1151 128 1173 135 c 1,91,92
 1189 177 1189 177 1189 256 c 2,93,-1
 1189 676 l 1,0,-1
EndSplineSet
EndChar

StartChar: I
Encoding: 73 73 48
Width: 792
Flags: W
LayerCount: 2
Fore
SplineSet
79 126 m 1,0,-1
 168 126 l 2,1,2
 198 126 198 126 223.5 127 c 128,-1,3
 249 128 249 128 271 135 c 1,4,5
 287 180 287 180 287 256 c 2,6,-1
 287 1187 l 2,7,8
 287 1226 287 1226 283 1252 c 128,-1,9
 279 1278 279 1278 271 1301 c 1,10,11
 249 1309 249 1309 223.5 1310.5 c 128,-1,12
 198 1312 198 1312 168 1312 c 2,13,-1
 78 1312 l 1,14,-1
 78 1422 l 1,15,16
 147 1430 147 1430 223.5 1433.5 c 128,-1,17
 300 1437 300 1437 393 1437 c 0,18,19
 489 1437 489 1437 571.5 1435 c 128,-1,20
 654 1433 654 1433 714 1422 c 1,21,-1
 714 1312 l 1,22,-1
 622 1312 l 2,23,24
 593 1312 593 1312 567.5 1310.5 c 128,-1,25
 542 1309 542 1309 519 1301 c 1,26,27
 513 1278 513 1278 509 1252 c 128,-1,28
 505 1226 505 1226 505 1187 c 2,29,-1
 505 259 l 2,30,31
 505 217 505 217 509 187.5 c 128,-1,32
 513 158 513 158 519 135 c 1,33,34
 542 129 542 129 567.5 127.5 c 128,-1,35
 593 126 593 126 622 126 c 2,36,-1
 712 126 l 1,37,-1
 712 -14 l 1,38,39
 624 -3 624 -3 547.5 -1.5 c 128,-1,40
 471 0 471 0 396 0 c 0,41,42
 315 0 315 0 237.5 -2.5 c 128,-1,43
 160 -5 160 -5 79 -14 c 1,44,-1
 79 126 l 1,0,-1
EndSplineSet
EndChar

StartChar: J
Encoding: 74 74 49
Width: 993
Flags: W
LayerCount: 2
Fore
SplineSet
725 194 m 2,0,1
 725 71 725 71 699.5 -21.5 c 128,-1,2
 674 -114 674 -114 626.5 -175.5 c 128,-1,3
 579 -237 579 -237 511 -268 c 128,-1,4
 443 -299 443 -299 359 -299 c 0,5,6
 233 -299 233 -299 147 -272 c 128,-1,7
 61 -245 61 -245 7 -188 c 1,8,9
 7 -184 7 -184 8 -170.5 c 128,-1,10
 9 -157 9 -157 10.5 -137.5 c 128,-1,11
 12 -118 12 -118 13.5 -94 c 128,-1,12
 15 -70 15 -70 17 -46 c 2,13,-1
 27 82 l 1,14,-1
 158 76 l 1,15,16
 170 2 170 2 186.5 -44.5 c 128,-1,17
 203 -91 203 -91 224.5 -117.5 c 128,-1,18
 246 -144 246 -144 272 -153.5 c 128,-1,19
 298 -163 298 -163 330 -163 c 0,20,21
 389 -163 389 -163 424 -121 c 128,-1,22
 459 -79 459 -79 477.5 -0.5 c 128,-1,23
 496 78 496 78 501.5 189.5 c 128,-1,24
 507 301 507 301 507 439 c 2,25,-1
 507 1181 l 2,26,27
 507 1259 507 1259 491 1301 c 1,28,29
 470 1309 470 1309 444 1310.5 c 128,-1,30
 418 1312 418 1312 388 1312 c 2,31,-1
 298 1312 l 1,32,-1
 298 1422 l 1,33,34
 367 1430 367 1430 442.5 1433.5 c 128,-1,35
 518 1437 518 1437 609 1437 c 0,36,37
 706 1437 706 1437 789.5 1435 c 128,-1,38
 873 1433 873 1433 936 1422 c 1,39,-1
 936 1312 l 1,40,-1
 844 1312 l 2,41,42
 814 1312 814 1312 788 1310.5 c 128,-1,43
 762 1309 762 1309 741 1301 c 1,44,45
 725 1256 725 1256 725 1180 c 2,46,-1
 725 194 l 2,0,1
EndSplineSet
EndChar

StartChar: K
Encoding: 75 75 50
Width: 1492
Flags: W
LayerCount: 2
Fore
SplineSet
505 256 m 2,0,1
 505 180 505 180 521 135 c 1,2,3
 543 128 543 128 569 127 c 128,-1,4
 595 126 595 126 624 126 c 2,5,-1
 713 126 l 1,6,-1
 713 -14 l 1,7,8
 632 -5 632 -5 554.5 -2.5 c 128,-1,9
 477 0 477 0 396 0 c 256,10,11
 315 0 315 0 238 -2.5 c 128,-1,12
 161 -5 161 -5 80 -14 c 1,13,-1
 80 126 l 1,14,-1
 169 126 l 2,15,16
 198 126 198 126 224 127 c 128,-1,17
 250 128 250 128 272 135 c 1,18,19
 288 177 288 177 288 256 c 2,20,-1
 287 1181 l 2,21,22
 287 1220 287 1220 283 1249 c 128,-1,23
 279 1278 279 1278 271 1301 c 1,24,25
 249 1309 249 1309 223.5 1310.5 c 128,-1,26
 198 1312 198 1312 168 1312 c 2,27,-1
 78 1312 l 1,28,-1
 78 1422 l 1,29,30
 147 1430 147 1430 223.5 1433.5 c 128,-1,31
 300 1437 300 1437 393 1437 c 0,32,33
 489 1437 489 1437 571.5 1435 c 128,-1,34
 654 1433 654 1433 714 1422 c 1,35,-1
 714 1312 l 1,36,-1
 622 1312 l 2,37,38
 593 1312 593 1312 567.5 1310.5 c 128,-1,39
 542 1309 542 1309 519 1301 c 1,40,41
 513 1278 513 1278 509 1249 c 128,-1,42
 505 1220 505 1220 505 1181 c 2,43,-1
 505 256 l 2,0,1
1160 256 m 2,44,45
 1190 218 1190 218 1216.5 188 c 128,-1,46
 1243 158 1243 158 1268 135 c 1,47,48
 1294 128 1294 128 1321 127 c 128,-1,49
 1348 126 1348 126 1377 126 c 2,50,-1
 1456 126 l 1,51,-1
 1480 -14 l 1,52,53
 1401 -5 1401 -5 1327.5 -2.5 c 128,-1,54
 1254 0 1254 0 1179 0 c 0,55,56
 1088 0 1088 0 1006 -2.5 c 128,-1,57
 924 -5 924 -5 843 -14 c 1,58,-1
 843 126 l 1,59,-1
 862 126 l 2,60,61
 891 126 891 126 916.5 127 c 128,-1,62
 942 128 942 128 959 135 c 1,63,64
 950 158 950 158 931 187.5 c 128,-1,65
 912 217 912 217 883 256 c 2,66,-1
 574 668 l 2,67,68
 563 682 563 682 555.5 694 c 128,-1,69
 548 706 548 706 543 715 c 2,70,-1
 533 734 l 1,71,-1
 544 751 l 2,72,73
 550 759 550 759 558.5 769.5 c 128,-1,74
 567 780 567 780 579 793 c 2,75,-1
 982 1221 l 2,76,77
 998 1238 998 1238 1006.5 1250 c 128,-1,78
 1015 1262 1015 1262 1019 1271 c 128,-1,79
 1023 1280 1023 1280 1024 1287 c 128,-1,80
 1025 1294 1025 1294 1025 1301 c 1,81,82
 1009 1309 1009 1309 988 1310.5 c 128,-1,83
 967 1312 967 1312 940 1312 c 2,84,-1
 885 1312 l 1,85,-1
 894 1422 l 1,86,87
 970 1430 970 1430 1048.5 1433.5 c 128,-1,88
 1127 1437 1127 1437 1220 1437 c 0,89,90
 1304 1437 1304 1437 1372.5 1435 c 128,-1,91
 1441 1433 1441 1433 1489 1422 c 1,92,-1
 1472 1312 l 1,93,-1
 1394 1312 l 2,94,95
 1365 1312 1365 1312 1341 1310.5 c 128,-1,96
 1317 1309 1317 1309 1289 1301 c 1,97,98
 1259 1277 1259 1277 1226.5 1248 c 128,-1,99
 1194 1219 1194 1219 1156 1181 c 2,100,-1
 901 921 l 2,101,102
 881 900 881 900 858.5 878.5 c 128,-1,103
 836 857 836 857 815.5 836.5 c 128,-1,104
 795 816 795 816 778.5 799 c 128,-1,105
 762 782 762 782 753 771 c 1,106,-1
 1160 256 l 2,44,45
EndSplineSet
EndChar

StartChar: L
Encoding: 76 76 51
Width: 1331
Flags: W
LayerCount: 2
Fore
SplineSet
396 0 m 0,0,1
 315 0 315 0 237.5 -2.5 c 128,-1,2
 160 -5 160 -5 79 -14 c 1,3,-1
 79 126 l 1,4,-1
 168 126 l 2,5,6
 198 126 198 126 223.5 127 c 128,-1,7
 249 128 249 128 271 135 c 1,8,9
 287 180 287 180 287 256 c 2,10,-1
 287 1181 l 2,11,12
 287 1220 287 1220 283 1249 c 128,-1,13
 279 1278 279 1278 271 1301 c 1,14,15
 249 1309 249 1309 223.5 1310.5 c 128,-1,16
 198 1312 198 1312 168 1312 c 2,17,-1
 78 1312 l 1,18,-1
 78 1422 l 1,19,20
 147 1430 147 1430 223.5 1433.5 c 128,-1,21
 300 1437 300 1437 393 1437 c 0,22,23
 489 1437 489 1437 572 1435 c 128,-1,24
 655 1433 655 1433 716 1422 c 1,25,-1
 716 1312 l 1,26,-1
 623 1312 l 2,27,28
 594 1312 594 1312 568.5 1310.5 c 128,-1,29
 543 1309 543 1309 520 1301 c 1,30,31
 513 1278 513 1278 509.5 1249 c 128,-1,32
 506 1220 506 1220 506 1181 c 2,33,-1
 506 126 l 1,34,-1
 862 126 l 2,35,36
 919 126 919 126 965 127.5 c 128,-1,37
 1011 129 1011 129 1047.5 147 c 128,-1,38
 1084 165 1084 165 1111.5 206 c 128,-1,39
 1139 247 1139 247 1159 327 c 1,40,-1
 1245 315 l 1,41,-1
 1208 0 l 1,42,43
 1120 -6 1120 -6 1036 -10 c 128,-1,44
 952 -14 952 -14 871 -14 c 0,45,46
 723 -14 723 -14 601.5 -7 c 128,-1,47
 480 0 480 0 396 0 c 0,0,1
EndSplineSet
EndChar

StartChar: M
Encoding: 77 77 52
Width: 2194
Flags: W
LayerCount: 2
Fore
SplineSet
1674 263 m 0,0,1
 1667 357 1667 357 1659 467.5 c 128,-1,2
 1651 578 1651 578 1642.5 698.5 c 128,-1,3
 1634 819 1634 819 1626 944.5 c 128,-1,4
 1618 1070 1618 1070 1610 1194 c 1,5,6
 1449 738 1449 738 1341.5 441.5 c 128,-1,7
 1234 145 1234 145 1177 0 c 1,8,-1
 989 0 l 1,9,-1
 956 86 l 1,10,11
 929 160 929 160 896 252.5 c 128,-1,12
 863 345 863 345 828 445 c 128,-1,13
 793 545 793 545 757.5 648 c 128,-1,14
 722 751 722 751 689.5 848.5 c 128,-1,15
 657 946 657 946 629 1032 c 128,-1,16
 601 1118 601 1118 581 1184 c 1,17,-1
 520 263 l 2,18,19
 519 249 519 249 518.5 237 c 128,-1,20
 518 225 518 225 518 215 c 0,21,22
 518 184 518 184 522 168 c 128,-1,23
 526 152 526 152 532 135 c 1,24,25
 550 129 550 129 573 127.5 c 128,-1,26
 596 126 596 126 622 126 c 2,27,-1
 703 126 l 1,28,-1
 691 -14 l 1,29,30
 598 -3 598 -3 517 -1.5 c 128,-1,31
 436 0 436 0 358 0 c 0,32,33
 286 0 286 0 218.5 -2.5 c 128,-1,34
 151 -5 151 -5 78 -14 c 1,35,-1
 100 126 l 1,36,-1
 200 126 l 2,37,38
 229 126 229 126 255 127 c 128,-1,39
 281 128 281 128 305 135 c 1,40,41
 318 158 318 158 330.5 187.5 c 128,-1,42
 343 217 343 217 348 256 c 0,43,44
 354 302 354 302 361 366 c 128,-1,45
 368 430 368 430 375 504 c 128,-1,46
 382 578 382 578 388.5 657.5 c 128,-1,47
 395 737 395 737 401 813 c 128,-1,48
 407 889 407 889 412 957 c 128,-1,49
 417 1025 417 1025 420.5 1076.5 c 128,-1,50
 424 1128 424 1128 426.5 1158 c 128,-1,51
 429 1188 429 1188 429 1188 c 1,52,53
 429 1222 429 1222 427.5 1249 c 128,-1,54
 426 1276 426 1276 418 1296 c 1,55,56
 397 1304 397 1304 371 1308 c 128,-1,57
 345 1312 345 1312 310 1312 c 2,58,-1
 206 1312 l 1,59,-1
 206 1422 l 1,60,61
 245 1428 245 1428 283 1431 c 128,-1,62
 321 1434 321 1434 356.5 1435.5 c 128,-1,63
 392 1437 392 1437 423.5 1437 c 128,-1,64
 455 1437 455 1437 479 1437 c 0,65,66
 551 1437 551 1437 605.5 1432.5 c 128,-1,67
 660 1428 660 1428 698 1422 c 1,68,69
 718 1365 718 1365 738.5 1309.5 c 128,-1,70
 759 1254 759 1254 778.5 1203 c 128,-1,71
 798 1152 798 1152 815.5 1106.5 c 128,-1,72
 833 1061 833 1061 846 1023 c 2,73,-1
 980 631 l 2,74,75
 992 593 992 593 1009.5 535.5 c 128,-1,76
 1027 478 1027 478 1046 418 c 128,-1,77
 1065 358 1065 358 1082.5 305 c 128,-1,78
 1100 252 1100 252 1112 224 c 1,79,80
 1193 470 1193 470 1259.5 665 c 128,-1,81
 1326 860 1326 860 1378.5 1008 c 128,-1,82
 1431 1156 1431 1156 1468.5 1258 c 128,-1,83
 1506 1360 1506 1360 1530 1422 c 1,84,85
 1550 1425 1550 1425 1579.5 1427.5 c 128,-1,86
 1609 1430 1609 1430 1640 1432.5 c 128,-1,87
 1671 1435 1671 1435 1700.5 1436 c 128,-1,88
 1730 1437 1730 1437 1751 1437 c 0,89,90
 1827 1437 1827 1437 1887.5 1432 c 128,-1,91
 1948 1427 1948 1427 2002 1422 c 1,92,-1
 2012 1312 l 1,93,-1
 1926 1312 l 2,94,95
 1894 1312 1894 1312 1864.5 1307.5 c 128,-1,96
 1835 1303 1835 1303 1821 1292 c 1,97,-1
 1819 1281 l 2,98,99
 1818 1276 1818 1276 1818 1267 c 128,-1,100
 1818 1258 1818 1258 1818 1246 c 0,101,102
 1818 1232 1818 1232 1819 1212.5 c 128,-1,103
 1820 1193 1820 1193 1822 1167 c 2,104,-1
 1892 256 l 2,105,106
 1895 217 1895 217 1903 189 c 128,-1,107
 1911 161 1911 161 1918 138 c 1,108,109
 1948 131 1948 131 1980 128.5 c 128,-1,110
 2012 126 2012 126 2051 126 c 2,111,-1
 2104 126 l 1,112,-1
 2126 -14 l 1,113,114
 2042 -4 2042 -4 1963.5 -2 c 128,-1,115
 1885 0 1885 0 1799 0 c 0,116,117
 1730 0 1730 0 1657 -2 c 128,-1,118
 1584 -4 1584 -4 1503 -14 c 1,119,-1
 1491 126 l 1,120,-1
 1572 126 l 2,121,122
 1598 126 1598 126 1621 127.5 c 128,-1,123
 1644 129 1644 129 1662 135 c 1,124,125
 1668 152 1668 152 1672 168 c 128,-1,126
 1676 184 1676 184 1676 215 c 0,127,128
 1676 225 1676 225 1675.5 237 c 128,-1,129
 1675 249 1675 249 1674 263 c 0,0,1
EndSplineSet
EndChar

StartChar: N
Encoding: 78 78 53
Width: 1666
Flags: W
LayerCount: 2
Fore
SplineSet
308 1181 m 2,0,1
 308 1259 308 1259 292 1301 c 1,2,3
 270 1309 270 1309 244 1310.5 c 128,-1,4
 218 1312 218 1312 189 1312 c 2,5,-1
 78 1312 l 1,6,-1
 78 1422 l 1,7,8
 115 1425 115 1425 147.5 1427.5 c 128,-1,9
 180 1430 180 1430 212 1432.5 c 128,-1,10
 244 1435 244 1435 277.5 1436 c 128,-1,11
 311 1437 311 1437 352 1437 c 0,12,13
 406 1437 406 1437 449.5 1435.5 c 128,-1,14
 493 1434 493 1434 531 1424 c 1,15,16
 618 1290 618 1290 710.5 1145.5 c 128,-1,17
 803 1001 803 1001 896.5 852.5 c 128,-1,18
 990 704 990 704 1081 555.5 c 128,-1,19
 1172 407 1172 407 1256 265 c 1,20,21
 1256 318 1256 318 1255 395 c 128,-1,22
 1254 472 1254 472 1253 560 c 128,-1,23
 1252 648 1252 648 1250.5 740.5 c 128,-1,24
 1249 833 1249 833 1247.5 917.5 c 128,-1,25
 1246 1002 1246 1002 1244.5 1071 c 128,-1,26
 1243 1140 1243 1140 1242 1181 c 1,27,28
 1242 1259 1242 1259 1226 1301 c 1,29,30
 1204 1308 1204 1308 1178 1310 c 128,-1,31
 1152 1312 1152 1312 1123 1312 c 2,32,-1
 1022 1312 l 1,33,-1
 1022 1422 l 1,34,35
 1089 1431 1089 1431 1162 1434 c 128,-1,36
 1235 1437 1235 1437 1323 1437 c 0,37,38
 1404 1437 1404 1437 1479 1435 c 128,-1,39
 1554 1433 1554 1433 1608 1422 c 1,40,-1
 1608 1312 l 1,41,-1
 1528 1312 l 2,42,43
 1499 1312 1499 1312 1473 1310 c 128,-1,44
 1447 1308 1447 1308 1425 1301 c 1,45,46
 1417 1278 1417 1278 1413.5 1249 c 128,-1,47
 1410 1220 1410 1220 1410 1181 c 0,48,49
 1408 1046 1408 1046 1405 892 c 128,-1,50
 1402 738 1402 738 1398 580.5 c 128,-1,51
 1394 423 1394 423 1389.5 270.5 c 128,-1,52
 1385 118 1385 118 1381 -14 c 1,53,-1
 1277 -14 l 2,54,55
 1247 -14 1247 -14 1226 -9 c 128,-1,56
 1205 -4 1205 -4 1186 7 c 1,57,-1
 460 1162 l 1,58,59
 462 1106 462 1106 464 1009.5 c 128,-1,60
 466 913 466 913 468 792 c 128,-1,61
 470 671 470 671 471.5 533.5 c 128,-1,62
 473 396 473 396 474 259 c 0,63,64
 474 217 474 217 477.5 187.5 c 128,-1,65
 481 158 481 158 488 135 c 1,66,67
 510 129 510 129 536 127.5 c 128,-1,68
 562 126 562 126 591 126 c 2,69,-1
 682 126 l 1,70,-1
 682 -14 l 1,71,72
 600 -3 600 -3 529 -1.5 c 128,-1,73
 458 0 458 0 389 0 c 0,74,75
 314 0 314 0 245 -2.5 c 128,-1,76
 176 -5 176 -5 101 -14 c 1,77,-1
 101 126 l 1,78,-1
 190 126 l 2,79,80
 219 126 219 126 245 127 c 128,-1,81
 271 128 271 128 293 135 c 1,82,83
 309 177 309 177 309 256 c 2,84,-1
 308 1181 l 2,0,1
EndSplineSet
EndChar

StartChar: O
Encoding: 79 79 54
Width: 1567
Flags: W
LayerCount: 2
Fore
SplineSet
356 711 m 0,0,1
 356 408 356 408 462.5 247.5 c 128,-1,2
 569 87 569 87 784 87 c 0,3,4
 886 87 886 87 965.5 125 c 128,-1,5
 1045 163 1045 163 1099 240.5 c 128,-1,6
 1153 318 1153 318 1181.5 436 c 128,-1,7
 1210 554 1210 554 1210 714 c 0,8,9
 1210 1025 1210 1025 1099.5 1181 c 128,-1,10
 989 1337 989 1337 784 1337 c 0,11,12
 682 1337 682 1337 602.5 1298.5 c 128,-1,13
 523 1260 523 1260 468.5 1182 c 128,-1,14
 414 1104 414 1104 385 986.5 c 128,-1,15
 356 869 356 869 356 711 c 0,0,1
1450 714 m 0,16,17
 1450 538 1450 538 1403.5 398.5 c 128,-1,18
 1357 259 1357 259 1270.5 162.5 c 128,-1,19
 1184 66 1184 66 1060.5 14.5 c 128,-1,20
 937 -37 937 -37 784 -37 c 0,21,22
 629 -37 629 -37 505.5 14.5 c 128,-1,23
 382 66 382 66 295 162.5 c 128,-1,24
 208 259 208 259 161.5 398.5 c 128,-1,25
 115 538 115 538 115 714 c 0,26,27
 115 892 115 892 161.5 1030.5 c 128,-1,28
 208 1169 208 1169 295 1264 c 128,-1,29
 382 1359 382 1359 505.5 1408.5 c 128,-1,30
 629 1458 629 1458 784 1458 c 0,31,32
 937 1458 937 1458 1060 1408.5 c 128,-1,33
 1183 1359 1183 1359 1270 1264 c 128,-1,34
 1357 1169 1357 1169 1403.5 1030.5 c 128,-1,35
 1450 892 1450 892 1450 714 c 0,16,17
EndSplineSet
EndChar

StartChar: P
Encoding: 80 80 55
Width: 1345
Flags: W
LayerCount: 2
Fore
SplineSet
524 1312 m 1,0,-1
 524 709 l 1,1,2
 555 708 555 708 591.5 707.5 c 128,-1,3
 628 707 628 707 673 707 c 0,4,5
 779 707 779 707 849.5 729 c 128,-1,6
 920 751 920 751 962.5 790.5 c 128,-1,7
 1005 830 1005 830 1023 886 c 128,-1,8
 1041 942 1041 942 1041 1011 c 0,9,10
 1041 1095 1041 1095 1020.5 1153 c 128,-1,11
 1000 1211 1000 1211 957 1246 c 128,-1,12
 914 1281 914 1281 849 1296.5 c 128,-1,13
 784 1312 784 1312 695 1312 c 2,14,-1
 524 1312 l 1,0,-1
306 1186 m 2,15,16
 306 1264 306 1264 290 1305 c 1,17,18
 274 1309 274 1309 245.5 1310.5 c 128,-1,19
 217 1312 217 1312 188 1312 c 2,20,-1
 78 1312 l 1,21,-1
 78 1422 l 1,22,23
 190 1437 190 1437 332 1442.5 c 128,-1,24
 474 1448 474 1448 647 1448 c 0,25,26
 798 1448 798 1448 913.5 1428 c 128,-1,27
 1029 1408 1029 1408 1107 1358 c 128,-1,28
 1185 1308 1185 1308 1225 1224 c 128,-1,29
 1265 1140 1265 1140 1265 1012 c 0,30,31
 1265 912 1265 912 1232 832.5 c 128,-1,32
 1199 753 1199 753 1129.5 697.5 c 128,-1,33
 1060 642 1060 642 950.5 612.5 c 128,-1,34
 841 583 841 583 688 583 c 0,35,36
 653 583 653 583 612.5 584 c 128,-1,37
 572 585 572 585 524 588 c 1,38,-1
 524 259 l 2,39,40
 524 217 524 217 528 187.5 c 128,-1,41
 532 158 532 158 539 135 c 1,42,43
 561 129 561 129 587 127.5 c 128,-1,44
 613 126 613 126 642 126 c 2,45,-1
 732 126 l 1,46,-1
 732 -14 l 1,47,48
 644 -3 644 -3 567 -1.5 c 128,-1,49
 490 0 490 0 415 0 c 0,50,51
 334 0 334 0 257 -2.5 c 128,-1,52
 180 -5 180 -5 99 -14 c 1,53,-1
 99 126 l 1,54,-1
 188 126 l 2,55,56
 217 126 217 126 243 127 c 128,-1,57
 269 128 269 128 291 135 c 1,58,59
 307 177 307 177 307 256 c 2,60,-1
 306 1186 l 2,15,16
EndSplineSet
EndChar

StartChar: Q
Encoding: 81 81 56
Width: 1616
Flags: W
LayerCount: 2
Fore
SplineSet
1440 786 m 0,0,1
 1440 707 1440 707 1429 625.5 c 128,-1,2
 1418 544 1418 544 1394 466 c 128,-1,3
 1370 388 1370 388 1332 316 c 128,-1,4
 1294 244 1294 244 1241.5 184 c 128,-1,5
 1189 124 1189 124 1120.5 79 c 128,-1,6
 1052 34 1052 34 966 10 c 1,7,8
 991 -14 991 -14 1024.5 -29 c 128,-1,9
 1058 -44 1058 -44 1095 -52 c 128,-1,10
 1132 -60 1132 -60 1169 -63 c 128,-1,11
 1206 -66 1206 -66 1238 -66 c 0,12,13
 1256 -66 1256 -66 1276.5 -63 c 128,-1,14
 1297 -60 1297 -60 1324 -53.5 c 128,-1,15
 1351 -47 1351 -47 1387 -37 c 128,-1,16
 1423 -27 1423 -27 1472 -13 c 1,17,-1
 1499 -118 l 1,18,19
 1409 -158 1409 -158 1317 -181.5 c 128,-1,20
 1225 -205 1225 -205 1128 -205 c 0,21,22
 1079 -205 1079 -205 1027 -198 c 128,-1,23
 975 -191 975 -191 920.5 -172 c 128,-1,24
 866 -153 866 -153 809.5 -119 c 128,-1,25
 753 -85 753 -85 696 -31 c 1,26,27
 561 -16 561 -16 453 38 c 128,-1,28
 345 92 345 92 270 186.5 c 128,-1,29
 195 281 195 281 155 415.5 c 128,-1,30
 115 550 115 550 115 726 c 0,31,32
 115 898 115 898 161.5 1034 c 128,-1,33
 208 1170 208 1170 294 1264.5 c 128,-1,34
 380 1359 380 1359 503 1408.5 c 128,-1,35
 626 1458 626 1458 779 1458 c 0,36,37
 921 1458 921 1458 1041.5 1412 c 128,-1,38
 1162 1366 1162 1366 1250 1279.5 c 128,-1,39
 1338 1193 1338 1193 1388.5 1068 c 128,-1,40
 1439 943 1439 943 1440 786 c 0,0,1
353 711 m 0,41,42
 353 397 353 397 462 240.5 c 128,-1,43
 571 84 571 84 779 84 c 0,44,45
 880 84 880 84 959.5 121 c 128,-1,46
 1039 158 1039 158 1093.5 235.5 c 128,-1,47
 1148 313 1148 313 1176.5 431.5 c 128,-1,48
 1205 550 1205 550 1205 712 c 0,49,50
 1205 868 1205 868 1176.5 985 c 128,-1,51
 1148 1102 1148 1102 1093.5 1180.5 c 128,-1,52
 1039 1259 1039 1259 959.5 1298 c 128,-1,53
 880 1337 880 1337 779 1337 c 256,54,55
 678 1337 678 1337 598.5 1298 c 128,-1,56
 519 1259 519 1259 464.5 1181 c 128,-1,57
 410 1103 410 1103 381.5 985.5 c 128,-1,58
 353 868 353 868 353 711 c 0,41,42
EndSplineSet
EndChar

StartChar: R
Encoding: 82 82 57
Width: 1510
Flags: W
LayerCount: 2
Fore
SplineSet
524 1312 m 1,0,-1
 524 729 l 1,1,2
 562 728 562 728 606 727.5 c 128,-1,3
 650 727 650 727 704 727 c 0,4,5
 886 727 886 727 971 803.5 c 128,-1,6
 1056 880 1056 880 1056 1023 c 0,7,8
 1056 1105 1056 1105 1035 1160.5 c 128,-1,9
 1014 1216 1014 1216 968.5 1249.5 c 128,-1,10
 923 1283 923 1283 851.5 1297.5 c 128,-1,11
 780 1312 780 1312 679 1312 c 2,12,-1
 524 1312 l 1,0,-1
306 1195 m 2,13,14
 306 1268 306 1268 290 1304 c 1,15,16
 268 1311 268 1311 241.5 1311.5 c 128,-1,17
 215 1312 215 1312 188 1312 c 2,18,-1
 78 1312 l 1,19,-1
 78 1422 l 1,20,21
 111 1427 111 1427 156 1431 c 128,-1,22
 201 1435 201 1435 252 1437.5 c 128,-1,23
 303 1440 303 1440 358.5 1442 c 128,-1,24
 414 1444 414 1444 467.5 1445 c 128,-1,25
 521 1446 521 1446 571 1446.5 c 128,-1,26
 621 1447 621 1447 661 1447 c 0,27,28
 812 1447 812 1447 928 1426 c 128,-1,29
 1044 1405 1044 1405 1122.5 1356.5 c 128,-1,30
 1201 1308 1201 1308 1241 1228.5 c 128,-1,31
 1281 1149 1281 1149 1281 1032 c 0,32,33
 1281 954 1281 954 1258 893 c 128,-1,34
 1235 832 1235 832 1195 785.5 c 128,-1,35
 1155 739 1155 739 1100.5 706.5 c 128,-1,36
 1046 674 1046 674 984 654 c 1,37,38
 1029 634 1029 634 1062.5 610 c 128,-1,39
 1096 586 1096 586 1123 556 c 128,-1,40
 1150 526 1150 526 1173 489.5 c 128,-1,41
 1196 453 1196 453 1220 408 c 1,42,-1
 1292 198 l 1,43,44
 1306 165 1306 165 1323.5 137.5 c 128,-1,45
 1341 110 1341 110 1360 110 c 0,46,47
 1361 110 1361 110 1364.5 111 c 128,-1,48
 1368 112 1368 112 1381 118 c 128,-1,49
 1394 124 1394 124 1420.5 137 c 128,-1,50
 1447 150 1447 150 1495 174 c 1,51,-1
 1523 93 l 1,52,53
 1496 69 1496 69 1465 47 c 128,-1,54
 1434 25 1434 25 1402 8 c 128,-1,55
 1370 -9 1370 -9 1338 -19 c 128,-1,56
 1306 -29 1306 -29 1278 -29 c 0,57,58
 1259 -29 1259 -29 1236.5 -27.5 c 128,-1,59
 1214 -26 1214 -26 1192.5 -17 c 128,-1,60
 1171 -8 1171 -8 1152.5 11 c 128,-1,61
 1134 30 1134 30 1123 65 c 1,62,63
 1089 186 1089 186 1059 272 c 128,-1,64
 1029 358 1029 358 997 420 c 128,-1,65
 965 482 965 482 927 526 c 128,-1,66
 889 570 889 570 840 608 c 1,67,68
 762 608 762 608 682 609 c 128,-1,69
 602 610 602 610 524 613 c 1,70,-1
 524 259 l 2,71,72
 524 217 524 217 528 187.5 c 128,-1,73
 532 158 532 158 539 135 c 1,74,75
 561 129 561 129 587 127.5 c 128,-1,76
 613 126 613 126 642 126 c 2,77,-1
 732 126 l 1,78,-1
 732 -14 l 1,79,80
 644 -3 644 -3 567 -1.5 c 128,-1,81
 490 0 490 0 415 0 c 0,82,83
 334 0 334 0 257 -2.5 c 128,-1,84
 180 -5 180 -5 99 -14 c 1,85,-1
 99 126 l 1,86,-1
 188 126 l 2,87,88
 217 126 217 126 243 127 c 128,-1,89
 269 128 269 128 291 135 c 1,90,91
 307 177 307 177 307 256 c 2,92,-1
 306 1195 l 2,13,14
EndSplineSet
EndChar

StartChar: S
Encoding: 83 83 58
Width: 1225
Flags: W
LayerCount: 2
Fore
SplineSet
342 1108 m 0,0,1
 342 1062 342 1062 360.5 1025.5 c 128,-1,2
 379 989 379 989 413.5 958.5 c 128,-1,3
 448 928 448 928 497 902 c 128,-1,4
 546 876 546 876 607 852 c 0,5,6
 722 806 722 806 817 761 c 128,-1,7
 912 716 912 716 979.5 662.5 c 128,-1,8
 1047 609 1047 609 1084 542.5 c 128,-1,9
 1121 476 1121 476 1121 387 c 0,10,11
 1121 282 1121 282 1081 203 c 128,-1,12
 1041 124 1041 124 972 70.5 c 128,-1,13
 903 17 903 17 810.5 -10 c 128,-1,14
 718 -37 718 -37 614 -37 c 0,15,16
 368 -37 368 -37 177 67 c 0,17,18
 148 83 148 83 128.5 98 c 128,-1,19
 109 113 109 113 98 132 c 1,20,-1
 145 400 l 1,21,-1
 295 394 l 1,22,23
 295 313 295 313 306 257 c 128,-1,24
 317 201 317 201 337 163 c 1,25,26
 362 140 362 140 394.5 124.5 c 128,-1,27
 427 109 427 109 463.5 100 c 128,-1,28
 500 91 500 91 538.5 87.5 c 128,-1,29
 577 84 577 84 614 84 c 0,30,31
 674 84 674 84 726 102.5 c 128,-1,32
 778 121 778 121 816.5 153 c 128,-1,33
 855 185 855 185 877 229.5 c 128,-1,34
 899 274 899 274 899 327 c 0,35,36
 899 390 899 390 870 438.5 c 128,-1,37
 841 487 841 487 788.5 527 c 128,-1,38
 736 567 736 567 662 602 c 128,-1,39
 588 637 588 637 498 673 c 0,40,41
 414 706 414 706 345 744.5 c 128,-1,42
 276 783 276 783 227.5 831 c 128,-1,43
 179 879 179 879 152 939 c 128,-1,44
 125 999 125 999 125 1076 c 0,45,46
 125 1158 125 1158 160 1228 c 128,-1,47
 195 1298 195 1298 265 1349 c 128,-1,48
 335 1400 335 1400 438 1429 c 128,-1,49
 541 1458 541 1458 678 1458 c 0,50,51
 740 1458 740 1458 800.5 1452 c 128,-1,52
 861 1446 861 1446 912.5 1434 c 128,-1,53
 964 1422 964 1422 1002 1403.5 c 128,-1,54
 1040 1385 1040 1385 1057 1360 c 1,55,56
 1055 1343 1055 1343 1054 1325 c 128,-1,57
 1053 1307 1053 1307 1050 1288 c 2,58,-1
 1025 1079 l 1,59,-1
 894 1088 l 1,60,61
 894 1161 894 1161 881.5 1209 c 128,-1,62
 869 1257 869 1257 839 1285.5 c 128,-1,63
 809 1314 809 1314 758 1325.5 c 128,-1,64
 707 1337 707 1337 629 1337 c 0,65,66
 563 1337 563 1337 510 1320.5 c 128,-1,67
 457 1304 457 1304 419.5 1274 c 128,-1,68
 382 1244 382 1244 362 1201.5 c 128,-1,69
 342 1159 342 1159 342 1108 c 0,0,1
EndSplineSet
EndChar

StartChar: T
Encoding: 84 84 59
Width: 1389
Flags: W
LayerCount: 2
Fore
SplineSet
1213 1068 m 1,0,1
 1213 1152 1213 1152 1204 1215 c 128,-1,2
 1195 1278 1195 1278 1179 1312 c 1,3,-1
 811 1312 l 1,4,-1
 811 259 l 2,5,6
 811 217 811 217 814.5 187.5 c 128,-1,7
 818 158 818 158 826 135 c 1,8,9
 848 129 848 129 873.5 127.5 c 128,-1,10
 899 126 899 126 929 126 c 2,11,-1
 1019 126 l 1,12,-1
 1019 -14 l 1,13,14
 931 -3 931 -3 853.5 -1.5 c 128,-1,15
 776 0 776 0 703 0 c 0,16,17
 621 0 621 0 543.5 -2.5 c 128,-1,18
 466 -5 466 -5 385 -14 c 1,19,-1
 385 126 l 1,20,-1
 474 126 l 2,21,22
 504 126 504 126 530 127 c 128,-1,23
 556 128 556 128 577 135 c 1,24,25
 593 177 593 177 593 256 c 2,26,-1
 592 1312 l 1,27,-1
 224 1312 l 1,28,29
 208 1278 208 1278 199 1215 c 128,-1,30
 190 1152 190 1152 190 1068 c 1,31,-1
 52 1068 l 1,32,33
 52 1102 52 1102 50.5 1146.5 c 128,-1,34
 49 1191 49 1191 46.5 1238.5 c 128,-1,35
 44 1286 44 1286 42.5 1333.5 c 128,-1,36
 41 1381 41 1381 41 1422 c 1,37,38
 53 1428 53 1428 76.5 1431 c 128,-1,39
 100 1434 100 1434 133.5 1435.5 c 128,-1,40
 167 1437 167 1437 209 1437 c 128,-1,41
 251 1437 251 1437 299 1437 c 0,42,43
 304 1437 304 1437 333 1436 c 128,-1,44
 362 1435 362 1435 403 1433 c 128,-1,45
 444 1431 444 1431 492.5 1429.5 c 128,-1,46
 541 1428 541 1428 585 1426 c 128,-1,47
 629 1424 629 1424 663.5 1423 c 128,-1,48
 698 1422 698 1422 712 1422 c 0,49,50
 738 1422 738 1422 777 1423 c 128,-1,51
 816 1424 816 1424 859 1426 c 128,-1,52
 902 1428 902 1428 945.5 1429.5 c 128,-1,53
 989 1431 989 1431 1024.5 1433 c 128,-1,54
 1060 1435 1060 1435 1083 1436 c 128,-1,55
 1106 1437 1106 1437 1109 1437 c 0,56,57
 1200 1437 1200 1437 1263 1434.5 c 128,-1,58
 1326 1432 1326 1432 1348 1422 c 1,59,60
 1348 1381 1348 1381 1346.5 1333.5 c 128,-1,61
 1345 1286 1345 1286 1343 1238.5 c 128,-1,62
 1341 1191 1341 1191 1339.5 1146.5 c 128,-1,63
 1338 1102 1338 1102 1338 1068 c 1,64,-1
 1213 1068 l 1,0,1
EndSplineSet
EndChar

StartChar: U
Encoding: 85 85 60
Width: 1605
Flags: W
LayerCount: 2
Fore
SplineSet
1365 516 m 2,0,1
 1365 379 1365 379 1322.5 276 c 128,-1,2
 1280 173 1280 173 1204.5 103 c 128,-1,3
 1129 33 1129 33 1024 -2 c 128,-1,4
 919 -37 919 -37 794 -37 c 0,5,6
 644 -37 644 -37 538.5 7 c 128,-1,7
 433 51 433 51 367 132.5 c 128,-1,8
 301 214 301 214 270.5 329 c 128,-1,9
 240 444 240 444 240 586 c 2,10,-1
 240 1181 l 2,11,12
 240 1259 240 1259 224 1301 c 1,13,14
 202 1309 202 1309 176.5 1310.5 c 128,-1,15
 151 1312 151 1312 121 1312 c 2,16,-1
 31 1312 l 1,17,-1
 31 1423 l 1,18,19
 100 1431 100 1431 176.5 1434 c 128,-1,20
 253 1437 253 1437 346 1437 c 0,21,22
 442 1437 442 1437 525 1435 c 128,-1,23
 608 1433 608 1433 669 1422 c 1,24,-1
 669 1312 l 1,25,-1
 576 1312 l 2,26,27
 547 1312 547 1312 521.5 1310.5 c 128,-1,28
 496 1309 496 1309 473 1301 c 1,29,30
 460 1259 460 1259 460 1181 c 2,31,-1
 459 504 l 2,32,33
 459 399 459 399 485 320 c 128,-1,34
 511 241 511 241 559 189 c 128,-1,35
 607 137 607 137 674 111 c 128,-1,36
 741 85 741 85 824 85 c 0,37,38
 1014 85 1014 85 1104.5 205 c 128,-1,39
 1195 325 1195 325 1195 577 c 2,40,-1
 1195 1181 l 2,41,42
 1195 1259 1195 1259 1179 1301 c 1,43,44
 1157 1309 1157 1309 1131 1310.5 c 128,-1,45
 1105 1312 1105 1312 1076 1312 c 2,46,-1
 986 1312 l 1,47,-1
 986 1423 l 1,48,49
 1052 1431 1052 1431 1122.5 1434 c 128,-1,50
 1193 1437 1193 1437 1280 1437 c 0,51,52
 1368 1437 1368 1437 1443 1435 c 128,-1,53
 1518 1433 1518 1433 1575 1422 c 1,54,-1
 1575 1312 l 1,55,-1
 1483 1312 l 2,56,57
 1453 1312 1453 1312 1427 1310.5 c 128,-1,58
 1401 1309 1401 1309 1380 1301 c 1,59,60
 1372 1278 1372 1278 1368.5 1249 c 128,-1,61
 1365 1220 1365 1220 1365 1181 c 2,62,-1
 1365 516 l 2,0,1
EndSplineSet
EndChar

StartChar: V
Encoding: 86 86 61
Width: 1633
Flags: W
LayerCount: 2
Fore
SplineSet
1238 1181 m 2,0,1
 1252 1220 1252 1220 1257 1249 c 128,-1,2
 1262 1278 1262 1278 1263 1301 c 1,3,4
 1243 1309 1243 1309 1218 1310.5 c 128,-1,5
 1193 1312 1193 1312 1163 1312 c 2,6,-1
 1093 1312 l 1,7,-1
 1098 1422 l 1,8,9
 1159 1430 1159 1430 1224.5 1433.5 c 128,-1,10
 1290 1437 1290 1437 1368 1437 c 0,11,12
 1449 1437 1449 1437 1516.5 1435 c 128,-1,13
 1584 1433 1584 1433 1633 1422 c 1,14,-1
 1609 1312 l 1,15,-1
 1557 1312 l 2,16,17
 1528 1312 1528 1312 1502 1310.5 c 128,-1,18
 1476 1309 1476 1309 1451 1301 c 1,19,20
 1437 1278 1437 1278 1423.5 1249 c 128,-1,21
 1410 1220 1410 1220 1396 1181 c 0,22,23
 1344 1039 1344 1039 1288 888 c 128,-1,24
 1232 737 1232 737 1174.5 585 c 128,-1,25
 1117 433 1117 433 1059 284.5 c 128,-1,26
 1001 136 1001 136 945 0 c 1,27,-1
 841 0 l 2,28,29
 796 0 796 0 767 8 c 128,-1,30
 738 16 738 16 726 46 c 2,31,-1
 272 1181 l 2,32,33
 256 1220 256 1220 239 1249 c 128,-1,34
 222 1278 222 1278 205 1301 c 1,35,36
 179 1309 179 1309 153 1310.5 c 128,-1,37
 127 1312 127 1312 98 1312 c 2,38,-1
 23 1312 l 1,39,-1
 0 1422 l 1,40,41
 61 1430 61 1430 131 1433.5 c 128,-1,42
 201 1437 201 1437 288 1437 c 0,43,44
 387 1437 387 1437 473.5 1435 c 128,-1,45
 560 1433 560 1433 627 1422 c 1,46,-1
 640 1312 l 1,47,-1
 568 1312 l 2,48,49
 539 1312 539 1312 514 1310.5 c 128,-1,50
 489 1309 489 1309 469 1301 c 1,51,52
 469 1278 469 1278 480.5 1249 c 128,-1,53
 492 1220 492 1220 507 1181 c 2,54,-1
 879 215 l 1,55,-1
 889 215 l 1,56,-1
 1238 1181 l 2,0,1
EndSplineSet
EndChar

StartChar: W
Encoding: 87 87 62
Width: 2403
Flags: W
LayerCount: 2
Fore
SplineSet
2013 1181 m 0,0,1
 2021 1211 2021 1211 2024 1235 c 128,-1,2
 2027 1259 2027 1259 2027 1279 c 0,3,4
 2027 1285 2027 1285 2027 1290.5 c 128,-1,5
 2027 1296 2027 1296 2026 1301 c 1,6,7
 2005 1309 2005 1309 1980 1310.5 c 128,-1,8
 1955 1312 1955 1312 1925 1312 c 2,9,-1
 1855 1312 l 1,10,-1
 1849 1422 l 1,11,12
 1909 1430 1909 1430 1974.5 1433.5 c 128,-1,13
 2040 1437 2040 1437 2118 1437 c 0,14,15
 2199 1437 2199 1437 2266.5 1435 c 128,-1,16
 2334 1433 2334 1433 2385 1422 c 1,17,-1
 2371 1312 l 1,18,-1
 2319 1312 l 2,19,20
 2290 1312 2290 1312 2264 1310.5 c 128,-1,21
 2238 1309 2238 1309 2214 1301 c 1,22,23
 2203 1278 2203 1278 2192 1249 c 128,-1,24
 2181 1220 2181 1220 2171 1181 c 1,25,26
 2131 1043 2131 1043 2087 895.5 c 128,-1,27
 2043 748 2043 748 1995 597 c 128,-1,28
 1947 446 1947 446 1894.5 295 c 128,-1,29
 1842 144 1842 144 1784 0 c 1,30,-1
 1617 0 l 2,31,32
 1599 0 1599 0 1588 4 c 128,-1,33
 1577 8 1577 8 1569.5 19.5 c 128,-1,34
 1562 31 1562 31 1555.5 50 c 128,-1,35
 1549 69 1549 69 1539 99 c 2,36,-1
 1246 1006 l 1,37,-1
 1244 1006 l 1,38,39
 1174 752 1174 752 1091 500 c 128,-1,40
 1008 248 1008 248 906 0 c 1,41,-1
 746 0 l 2,42,43
 720 0 720 0 701.5 9.5 c 128,-1,44
 683 19 683 19 674 46 c 2,45,-1
 290 1181 l 2,46,47
 276 1221 276 1221 258 1249.5 c 128,-1,48
 240 1278 240 1278 223 1301 c 1,49,50
 197 1309 197 1309 171 1310.5 c 128,-1,51
 145 1312 145 1312 116 1312 c 2,52,-1
 41 1312 l 1,53,-1
 18 1422 l 1,54,55
 79 1430 79 1430 149 1433.5 c 128,-1,56
 219 1437 219 1437 306 1437 c 0,57,58
 405 1437 405 1437 491.5 1435 c 128,-1,59
 578 1433 578 1433 645 1422 c 1,60,-1
 658 1312 l 1,61,-1
 586 1312 l 2,62,63
 557 1312 557 1312 532 1310.5 c 128,-1,64
 507 1309 507 1309 487 1301 c 1,65,66
 490 1278 490 1278 500 1249 c 128,-1,67
 510 1220 510 1220 525 1181 c 1,68,-1
 838 216 l 1,69,-1
 848 216 l 1,70,71
 862 255 862 255 876.5 297.5 c 128,-1,72
 891 340 891 340 907.5 391.5 c 128,-1,73
 924 443 924 443 943.5 508 c 128,-1,74
 963 573 963 573 987.5 658.5 c 128,-1,75
 1012 744 1012 744 1042.5 853.5 c 128,-1,76
 1073 963 1073 963 1111 1103 c 0,77,78
 1123 1146 1123 1146 1129 1185.5 c 128,-1,79
 1135 1225 1135 1225 1139 1261 c 128,-1,80
 1143 1297 1143 1297 1146 1330 c 128,-1,81
 1149 1363 1149 1363 1154 1393 c 1,82,-1
 1275 1393 l 2,83,84
 1294 1393 1294 1393 1307 1389.5 c 128,-1,85
 1320 1386 1320 1386 1328.5 1379.5 c 128,-1,86
 1337 1373 1337 1373 1343 1362.5 c 128,-1,87
 1349 1352 1349 1352 1354 1339 c 2,88,-1
 1719 209 l 1,89,-1
 1729 209 l 1,90,91
 1771 348 1771 348 1805 460 c 128,-1,92
 1839 572 1839 572 1866 663.5 c 128,-1,93
 1893 755 1893 755 1914.5 828.5 c 128,-1,94
 1936 902 1936 902 1953.5 963.5 c 128,-1,95
 1971 1025 1971 1025 1985.5 1078 c 128,-1,96
 2000 1131 2000 1131 2013 1181 c 0,0,1
EndSplineSet
EndChar

StartChar: X
Encoding: 88 88 63
Width: 1615
Flags: W
LayerCount: 2
Fore
SplineSet
767 589 m 1,0,-1
 528 259 l 2,1,2
 499 219 499 219 484.5 188.5 c 128,-1,3
 470 158 470 158 461 135 c 1,4,5
 479 129 479 129 504 127.5 c 128,-1,6
 529 126 529 126 558 126 c 2,7,-1
 608 126 l 1,8,-1
 609 -14 l 1,9,10
 518 -3 518 -3 429 -1.5 c 128,-1,11
 340 0 340 0 255 0 c 0,12,13
 194 0 194 0 137 -2.5 c 128,-1,14
 80 -5 80 -5 17 -14 c 1,15,-1
 16 126 l 1,16,-1
 104 126 l 2,17,18
 131 126 131 126 155 127 c 128,-1,19
 179 128 179 128 203 135 c 1,20,21
 227 158 227 158 250.5 189.5 c 128,-1,22
 274 221 274 221 308 256 c 1,23,-1
 684 704 l 1,24,-1
 348 1181 l 2,25,26
 321 1219 321 1219 302.5 1248.5 c 128,-1,27
 284 1278 284 1278 261 1301 c 1,28,29
 235 1309 235 1309 208 1310.5 c 128,-1,30
 181 1312 181 1312 152 1312 c 2,31,-1
 78 1312 l 1,32,-1
 33 1422 l 1,33,34
 93 1430 93 1430 163 1433.5 c 128,-1,35
 233 1437 233 1437 318 1437 c 0,36,37
 421 1437 421 1437 509.5 1435 c 128,-1,38
 598 1433 598 1433 670 1422 c 1,39,-1
 704 1312 l 1,40,-1
 633 1312 l 2,41,42
 603 1312 603 1312 578.5 1310.5 c 128,-1,43
 554 1309 554 1309 537 1301 c 1,44,45
 540 1289 540 1289 544 1280 c 128,-1,46
 548 1271 548 1271 554.5 1260.5 c 128,-1,47
 561 1250 561 1250 570 1237.5 c 128,-1,48
 579 1225 579 1225 592 1206 c 2,49,-1
 827 859 l 1,50,-1
 1079 1181 l 2,51,52
 1109 1219 1109 1219 1127 1248.5 c 128,-1,53
 1145 1278 1145 1278 1155 1301 c 1,54,55
 1138 1309 1138 1309 1114 1310.5 c 128,-1,56
 1090 1312 1090 1312 1060 1312 c 2,57,-1
 1010 1312 l 1,58,-1
 1044 1422 l 1,59,60
 1113 1430 1113 1430 1184 1433.5 c 128,-1,61
 1255 1437 1255 1437 1339 1437 c 0,62,63
 1420 1437 1420 1437 1486.5 1435 c 128,-1,64
 1553 1433 1553 1433 1598 1422 c 1,65,-1
 1556 1312 l 1,66,-1
 1474 1312 l 2,67,68
 1445 1312 1445 1312 1418 1310.5 c 128,-1,69
 1391 1309 1391 1309 1363 1301 c 1,70,71
 1339 1278 1339 1278 1313.5 1248.5 c 128,-1,72
 1288 1219 1288 1219 1257 1181 c 0,73,74
 1188 1095 1188 1095 1133.5 1028.5 c 128,-1,75
 1079 962 1079 962 1036 911 c 128,-1,76
 993 860 993 860 960 821.5 c 128,-1,77
 927 783 927 783 900 753 c 1,78,-1
 1267 256 l 2,79,80
 1296 217 1296 217 1318 187.5 c 128,-1,81
 1340 158 1340 158 1366 135 c 1,82,83
 1390 128 1390 128 1414 127 c 128,-1,84
 1438 126 1438 126 1465 126 c 2,85,-1
 1513 126 l 1,86,-1
 1513 -14 l 1,87,88
 1476 -9 1476 -9 1442.5 -6 c 128,-1,89
 1409 -3 1409 -3 1376 -1.5 c 128,-1,90
 1343 0 1343 0 1309.5 0 c 128,-1,91
 1276 0 1276 0 1239 0 c 0,92,93
 1162 0 1162 0 1082.5 -2 c 128,-1,94
 1003 -4 1003 -4 922 -14 c 1,95,-1
 921 126 l 1,96,-1
 971 126 l 2,97,98
 1000 126 1000 126 1025 127.5 c 128,-1,99
 1050 129 1050 129 1068 135 c 1,100,101
 1058 158 1058 158 1042 187.5 c 128,-1,102
 1026 217 1026 217 997 259 c 2,103,-1
 767 589 l 1,0,-1
EndSplineSet
EndChar

StartChar: Y
Encoding: 89 89 64
Width: 1588
Flags: W
LayerCount: 2
Fore
SplineSet
1109 1181 m 0,0,1
 1126 1221 1126 1221 1137.5 1249.5 c 128,-1,2
 1149 1278 1149 1278 1153 1301 c 1,3,4
 1134 1309 1134 1309 1109.5 1310.5 c 128,-1,5
 1085 1312 1085 1312 1055 1312 c 2,6,-1
 985 1312 l 1,7,-1
 1009 1422 l 1,8,9
 1076 1430 1076 1430 1146.5 1433.5 c 128,-1,10
 1217 1437 1217 1437 1301 1437 c 0,11,12
 1391 1437 1391 1437 1466.5 1435 c 128,-1,13
 1542 1433 1542 1433 1594 1422 c 1,14,-1
 1554 1312 l 1,15,-1
 1469 1312 l 2,16,17
 1440 1312 1440 1312 1413.5 1310.5 c 128,-1,18
 1387 1309 1387 1309 1361 1301 c 1,19,20
 1342 1275 1342 1275 1334.5 1265 c 128,-1,21
 1327 1255 1327 1255 1324.5 1251 c 128,-1,22
 1322 1247 1322 1247 1321 1244 c 128,-1,23
 1320 1241 1320 1241 1314.5 1229 c 128,-1,24
 1309 1217 1309 1217 1295 1191 c 128,-1,25
 1281 1165 1281 1165 1252 1115 c 128,-1,26
 1223 1065 1223 1065 1176 986 c 128,-1,27
 1129 907 1129 907 1057 789 c 2,28,-1
 891 517 l 1,29,-1
 891 259 l 2,30,31
 891 217 891 217 895 187.5 c 128,-1,32
 899 158 899 158 906 135 c 1,33,34
 928 129 928 129 953.5 127.5 c 128,-1,35
 979 126 979 126 1008 126 c 2,36,-1
 1099 126 l 1,37,-1
 1099 -14 l 1,38,39
 1011 -3 1011 -3 934 -1.5 c 128,-1,40
 857 0 857 0 782 0 c 0,41,42
 701 0 701 0 624 -2.5 c 128,-1,43
 547 -5 547 -5 466 -14 c 1,44,-1
 466 126 l 1,45,-1
 555 126 l 2,46,47
 584 126 584 126 609.5 127 c 128,-1,48
 635 128 635 128 658 135 c 1,49,50
 673 180 673 180 673 256 c 2,51,-1
 673 488 l 1,52,-1
 620 586 l 1,53,-1
 268 1181 l 2,54,55
 245 1219 245 1219 231.5 1248.5 c 128,-1,56
 218 1278 218 1278 200 1301 c 1,57,58
 175 1309 175 1309 148.5 1310.5 c 128,-1,59
 122 1312 122 1312 93 1312 c 2,60,-1
 19 1312 l 1,61,-1
 -10 1422 l 1,62,63
 53 1430 53 1430 123 1433.5 c 128,-1,64
 193 1437 193 1437 278 1437 c 0,65,66
 378 1437 378 1437 463.5 1435 c 128,-1,67
 549 1433 549 1433 618 1422 c 1,68,-1
 635 1312 l 1,69,-1
 564 1312 l 2,70,71
 534 1312 534 1312 509 1310.5 c 128,-1,72
 484 1309 484 1309 466 1301 c 1,73,74
 467 1289 467 1289 469.5 1279.5 c 128,-1,75
 472 1270 472 1270 476.5 1259.5 c 128,-1,76
 481 1249 481 1249 488 1236.5 c 128,-1,77
 495 1224 495 1224 506 1206 c 2,78,-1
 827 659 l 1,79,80
 870 731 870 731 916 813.5 c 128,-1,81
 962 896 962 896 1002 971 c 128,-1,82
 1042 1046 1042 1046 1071 1103 c 128,-1,83
 1100 1160 1100 1160 1109 1181 c 0,0,1
EndSplineSet
EndChar

StartChar: Z
Encoding: 90 90 65
Width: 1230
Flags: W
LayerCount: 2
Fore
SplineSet
113 1405 m 1,0,1
 167 1420 167 1420 295 1428.5 c 128,-1,2
 423 1437 423 1437 631 1437 c 2,3,-1
 1098 1437 l 1,4,5
 1117 1427 1117 1427 1128.5 1406 c 128,-1,6
 1140 1385 1140 1385 1140 1362 c 2,7,-1
 1140 1306 l 1,8,-1
 306 126 l 1,9,-1
 816 126 l 2,10,11
 849 126 849 126 879 135 c 128,-1,12
 909 144 909 144 932 172 c 128,-1,13
 955 200 955 200 968.5 253 c 128,-1,14
 982 306 982 306 982 394 c 1,15,-1
 1134 393 l 1,16,-1
 1144 128 l 2,17,18
 1144 102 1144 102 1142 76.5 c 128,-1,19
 1140 51 1140 51 1135 24 c 1,20,21
 1087 4 1087 4 1018.5 2 c 128,-1,22
 950 0 950 0 853 0 c 2,23,-1
 106 0 l 1,24,25
 86 15 86 15 80 33 c 128,-1,26
 74 51 74 51 74 81 c 2,27,-1
 74 133 l 1,28,-1
 888 1312 l 1,29,-1
 612 1312 l 2,30,31
 586 1312 586 1312 549.5 1310.5 c 128,-1,32
 513 1309 513 1309 474 1306 c 128,-1,33
 435 1303 435 1303 396.5 1297.5 c 128,-1,34
 358 1292 358 1292 327.5 1283.5 c 128,-1,35
 297 1275 297 1275 278 1263 c 128,-1,36
 259 1251 259 1251 259 1235 c 0,37,38
 259 1210 259 1210 260 1184.5 c 128,-1,39
 261 1159 261 1159 264 1127 c 1,40,41
 238 1127 238 1127 211.5 1126.5 c 128,-1,42
 185 1126 185 1126 155 1125 c 1,43,44
 154 1136 154 1136 152 1147 c 128,-1,45
 150 1158 150 1158 148 1169 c 2,46,-1
 134 1265 l 2,47,48
 129 1296 129 1296 123.5 1331 c 128,-1,49
 118 1366 118 1366 113 1405 c 1,0,1
EndSplineSet
EndChar

StartChar: bracketleft
Encoding: 91 91 66
Width: 648
Flags: W
LayerCount: 2
Fore
SplineSet
575 -125 m 1,0,-1
 575 -160 l 2,1,2
 575 -187 575 -187 567.5 -201 c 128,-1,3
 560 -215 560 -215 546.5 -221 c 128,-1,4
 533 -227 533 -227 515 -228 c 128,-1,5
 497 -229 497 -229 475 -229 c 2,6,-1
 205 -229 l 1,7,-1
 205 1564 l 1,8,-1
 475 1564 l 2,9,10
 497 1564 497 1564 515.5 1563 c 128,-1,11
 534 1562 534 1562 547 1555.5 c 128,-1,12
 560 1549 560 1549 567.5 1534.5 c 128,-1,13
 575 1520 575 1520 575 1494 c 2,14,-1
 575 1461 l 1,15,-1
 366 1461 l 1,16,-1
 366 -125 l 1,17,-1
 575 -125 l 1,0,-1
EndSplineSet
EndChar

StartChar: backslash
Encoding: 92 92 67
Width: 891
Flags: W
LayerCount: 2
Fore
SplineSet
891 -16 m 1,0,-1
 782 -16 l 2,1,2
 733 -16 733 -16 706 13 c 1,3,-1
 0 1540 l 1,4,-1
 102 1540 l 2,5,6
 138 1540 138 1540 157 1527.5 c 128,-1,7
 176 1515 176 1515 194 1493 c 1,8,-1
 891 -16 l 1,0,-1
EndSplineSet
EndChar

StartChar: bracketright
Encoding: 93 93 68
Width: 651
Flags: W
LayerCount: 2
Fore
SplineSet
285 -125 m 1,0,-1
 285 1461 l 1,1,-1
 76 1461 l 1,2,-1
 76 1494 l 2,3,4
 76 1527 76 1527 86 1542.5 c 128,-1,5
 96 1558 96 1558 122 1564 c 1,6,-1
 446 1564 l 1,7,-1
 446 -229 l 1,8,-1
 202 -229 l 2,9,10
 177 -229 177 -229 154 -228.5 c 128,-1,11
 131 -228 131 -228 114 -221.5 c 128,-1,12
 97 -215 97 -215 86.5 -201 c 128,-1,13
 76 -187 76 -187 76 -160 c 2,14,-1
 76 -125 l 1,15,-1
 285 -125 l 1,0,-1
EndSplineSet
EndChar

StartChar: asciicircum
Encoding: 94 94 69
Width: 1191
Flags: W
LayerCount: 2
Fore
SplineSet
1059 505 m 1,0,1
 1068 487 1068 487 1076 467 c 128,-1,2
 1084 447 1084 447 1084 426 c 0,3,4
 1084 401 1084 401 1069 380 c 1,5,-1
 967 362 l 1,6,-1
 599 1003 l 1,7,-1
 597 1003 l 1,8,-1
 234 364 l 1,9,-1
 165 380 l 2,10,11
 142 385 142 385 127 394.5 c 128,-1,12
 112 404 112 404 104 415 c 1,13,14
 112 437 112 437 122 459.5 c 128,-1,15
 132 482 132 482 144 505 c 2,16,-1
 540 1208 l 1,17,-1
 605 1208 l 2,18,19
 617 1208 617 1208 627 1202.5 c 128,-1,20
 637 1197 637 1197 642 1189 c 1,21,-1
 675 1182 l 1,22,-1
 1059 505 l 1,0,1
EndSplineSet
EndChar

StartChar: underscore
Encoding: 95 95 70
Width: 965
Flags: W
LayerCount: 2
Fore
SplineSet
-10 -339 m 1,0,-1
 -10 -278 l 2,1,2
 -10 -253 -10 -253 -2 -239 c 128,-1,3
 6 -225 6 -225 20.5 -219 c 128,-1,4
 35 -213 35 -213 54.5 -212 c 128,-1,5
 74 -211 74 -211 98 -211 c 2,6,-1
 975 -211 l 1,7,-1
 975 -270 l 2,8,9
 975 -302 975 -302 963.5 -317.5 c 128,-1,10
 952 -333 952 -333 929 -339 c 1,11,-1
 -10 -339 l 1,0,-1
EndSplineSet
EndChar

StartChar: grave
Encoding: 96 96 71
Width: 1223
Flags: W
LayerCount: 2
Fore
SplineSet
474 1493 m 2,0,1
 462 1505 462 1505 448 1521 c 128,-1,2
 434 1537 434 1537 422 1552 c 2,3,-1
 393 1587 l 1,4,-1
 643 1587 l 1,5,6
 667 1545 667 1545 699.5 1490.5 c 128,-1,7
 732 1436 732 1436 762 1385 c 2,8,-1
 832 1265 l 1,9,10
 831 1264 831 1264 815 1264 c 2,11,-1
 694 1264 l 1,12,-1
 474 1493 l 2,0,1
EndSplineSet
EndChar

StartChar: a
Encoding: 97 97 72
Width: 1247
Flags: W
LayerCount: 2
Fore
SplineSet
754 205 m 1,0,1
 760 259 760 259 765 328 c 128,-1,2
 770 397 770 397 770 489 c 1,3,-1
 612 489 l 2,4,5
 470 489 470 489 393.5 436 c 128,-1,6
 317 383 317 383 317 280 c 0,7,8
 317 190 317 190 367 145.5 c 128,-1,9
 417 101 417 101 501 101 c 0,10,11
 564 101 564 101 629 130.5 c 128,-1,12
 694 160 694 160 754 205 c 1,0,1
1159 19 m 1,13,14
 1108 1 1108 1 1044 -6 c 128,-1,15
 980 -13 980 -13 902 -13 c 0,16,17
 861 -13 861 -13 832.5 -11 c 128,-1,18
 804 -9 804 -9 786.5 1.5 c 128,-1,19
 769 12 769 12 761 34 c 128,-1,20
 753 56 753 56 753 95 c 2,21,-1
 753 115 l 1,22,-1
 751 115 l 1,23,24
 721 88 721 88 687 63 c 128,-1,25
 653 38 653 38 613 18.5 c 128,-1,26
 573 -1 573 -1 527 -12.5 c 128,-1,27
 481 -24 481 -24 427 -24 c 0,28,29
 356 -24 356 -24 296 -5.5 c 128,-1,30
 236 13 236 13 193 50 c 128,-1,31
 150 87 150 87 126 142 c 128,-1,32
 102 197 102 197 102 271 c 0,33,34
 102 437 102 437 231 520 c 128,-1,35
 360 603 360 603 623 603 c 2,36,-1
 770 603 l 1,37,-1
 770 671 l 2,38,39
 770 746 770 746 760 799.5 c 128,-1,40
 750 853 750 853 727.5 887.5 c 128,-1,41
 705 922 705 922 668 938.5 c 128,-1,42
 631 955 631 955 578 955 c 0,43,44
 518 955 518 955 470.5 938 c 128,-1,45
 423 921 423 921 386 893.5 c 128,-1,46
 349 866 349 866 320.5 830 c 128,-1,47
 292 794 292 794 269 755 c 1,48,-1
 130 843 l 1,49,50
 137 884 137 884 170 923 c 128,-1,51
 203 962 203 962 259 993 c 128,-1,52
 315 1024 315 1024 392.5 1042.5 c 128,-1,53
 470 1061 470 1061 566 1061 c 0,54,55
 782 1061 782 1061 882.5 963.5 c 128,-1,56
 983 866 983 866 983 682 c 2,57,-1
 982 269 l 2,58,59
 982 212 982 212 987 171.5 c 128,-1,60
 992 131 992 131 999 101 c 1,61,-1
 1159 101 l 1,62,-1
 1159 19 l 1,13,14
EndSplineSet
EndChar

StartChar: b
Encoding: 98 98 73
Width: 1337
Flags: W
LayerCount: 2
Fore
SplineSet
999 544 m 0,0,1
 999 947 999 947 749 947 c 0,2,3
 595 947 595 947 462 825 c 1,4,5
 451 750 451 750 446.5 669 c 128,-1,6
 442 588 442 588 442 498 c 0,7,8
 442 404 442 404 445.5 301 c 128,-1,9
 449 198 449 198 455 101 c 1,10,11
 516 95 516 95 583 91 c 128,-1,12
 650 87 650 87 704 87 c 0,13,14
 772 87 772 87 826.5 116 c 128,-1,15
 881 145 881 145 919.5 203 c 128,-1,16
 958 261 958 261 978.5 346 c 128,-1,17
 999 431 999 431 999 544 c 0,0,1
131 105 m 1,18,19
 156 113 156 113 174.5 123.5 c 128,-1,20
 193 134 193 134 205 149 c 128,-1,21
 217 164 217 164 222.5 185.5 c 128,-1,22
 228 207 228 207 228 237 c 2,23,-1
 228 1323 l 2,24,25
 228 1354 228 1354 226.5 1383.5 c 128,-1,26
 225 1413 225 1413 221 1441 c 1,27,28
 203 1447 203 1447 182 1451 c 128,-1,29
 161 1455 161 1455 134 1455 c 2,30,-1
 37 1455 l 1,31,-1
 37 1542 l 1,32,33
 85 1555 85 1555 168.5 1562 c 128,-1,34
 252 1569 252 1569 364 1569 c 0,35,36
 406 1569 406 1569 433 1566 c 1,37,38
 438 1544 438 1544 440 1518 c 128,-1,39
 442 1492 442 1492 442 1464 c 2,40,-1
 442 913 l 1,41,42
 517 991 517 991 605 1026.5 c 128,-1,43
 693 1062 693 1062 793 1062 c 0,44,45
 892 1062 892 1062 972 1028 c 128,-1,46
 1052 994 1052 994 1108.5 929 c 128,-1,47
 1165 864 1165 864 1195 769 c 128,-1,48
 1225 674 1225 674 1225 551 c 0,49,50
 1225 415 1225 415 1187.5 310 c 128,-1,51
 1150 205 1150 205 1087 133 c 128,-1,52
 1024 61 1024 61 941 24 c 128,-1,53
 858 -13 858 -13 768 -13 c 0,54,55
 688 -13 688 -13 621.5 -11 c 128,-1,56
 555 -9 555 -9 491.5 -6.5 c 128,-1,57
 428 -4 428 -4 362 -2 c 128,-1,58
 296 0 296 0 218 0 c 0,59,60
 194 0 194 0 169.5 -0.5 c 128,-1,61
 145 -1 145 -1 119 -2 c 1,62,-1
 131 105 l 1,18,19
EndSplineSet
EndChar

StartChar: c
Encoding: 99 99 74
Width: 1082
Flags: W
LayerCount: 2
Fore
SplineSet
1002 54 m 1,0,1
 936 15 936 15 843.5 -4.5 c 128,-1,2
 751 -24 751 -24 648 -24 c 0,3,4
 531 -24 531 -24 433 11 c 128,-1,5
 335 46 335 46 263.5 113.5 c 128,-1,6
 192 181 192 181 152.5 279.5 c 128,-1,7
 113 378 113 378 113 505 c 0,8,9
 113 638 113 638 155 742 c 128,-1,10
 197 846 197 846 270.5 916.5 c 128,-1,11
 344 987 344 987 444.5 1024 c 128,-1,12
 545 1061 545 1061 663 1061 c 0,13,14
 714 1061 714 1061 762.5 1054.5 c 128,-1,15
 811 1048 811 1048 854.5 1035.5 c 128,-1,16
 898 1023 898 1023 935 1005.5 c 128,-1,17
 972 988 972 988 999 966 c 1,18,-1
 982 765 l 1,19,-1
 910 765 l 1,20,21
 862 859 862 859 798.5 903 c 128,-1,22
 735 947 735 947 642 947 c 0,23,24
 574 947 574 947 517 918.5 c 128,-1,25
 460 890 460 890 419 839 c 128,-1,26
 378 788 378 788 355 716.5 c 128,-1,27
 332 645 332 645 332 560 c 0,28,29
 332 439 332 439 359 352 c 128,-1,30
 386 265 386 265 432.5 209.5 c 128,-1,31
 479 154 479 154 540.5 127.5 c 128,-1,32
 602 101 602 101 672 101 c 0,33,34
 765 101 765 101 842 121.5 c 128,-1,35
 919 142 919 142 988 184 c 1,36,-1
 1002 54 l 1,0,1
EndSplineSet
EndChar

StartChar: d
Encoding: 100 100 75
Width: 1339
Flags: W
LayerCount: 2
Fore
SplineSet
903 345 m 1,0,1
 903 480 903 480 900.5 601.5 c 128,-1,2
 898 723 898 723 891 838 c 1,3,4
 868 863 868 863 836 883 c 128,-1,5
 804 903 804 903 769 917.5 c 128,-1,6
 734 932 734 932 697.5 939.5 c 128,-1,7
 661 947 661 947 628 947 c 0,8,9
 550 947 550 947 496 916 c 128,-1,10
 442 885 442 885 407.5 828 c 128,-1,11
 373 771 373 771 357.5 691 c 128,-1,12
 342 611 342 611 342 514 c 0,13,14
 342 302 342 302 412.5 201.5 c 128,-1,15
 483 101 483 101 623 101 c 0,16,17
 672 101 672 101 716.5 117.5 c 128,-1,18
 761 134 761 134 797.5 165.5 c 128,-1,19
 834 197 834 197 861 242.5 c 128,-1,20
 888 288 888 288 903 345 c 1,0,1
1113 269 m 2,21,22
 1113 212 1113 212 1118 171.5 c 128,-1,23
 1123 131 1123 131 1130 101 c 1,24,-1
 1303 101 l 1,25,-1
 1303 15 l 1,26,27
 1252 2 1252 2 1187.5 -5 c 128,-1,28
 1123 -12 1123 -12 1045 -12 c 0,29,30
 1010 -12 1010 -12 984 -10.5 c 128,-1,31
 958 -9 958 -9 941 0 c 128,-1,32
 924 9 924 9 915.5 28.5 c 128,-1,33
 907 48 907 48 907 84 c 2,34,-1
 907 132 l 1,35,36
 874 90 874 90 833.5 60.5 c 128,-1,37
 793 31 793 31 748 12 c 128,-1,38
 703 -7 703 -7 654.5 -15.5 c 128,-1,39
 606 -24 606 -24 557 -24 c 0,40,41
 465 -24 465 -24 384.5 9 c 128,-1,42
 304 42 304 42 243.5 108 c 128,-1,43
 183 174 183 174 148 273 c 128,-1,44
 113 372 113 372 113 503 c 0,45,46
 113 638 113 638 144 743.5 c 128,-1,47
 175 849 175 849 233.5 921.5 c 128,-1,48
 292 994 292 994 376.5 1031.5 c 128,-1,49
 461 1069 461 1069 568 1069 c 0,50,51
 671 1069 671 1069 752.5 1035.5 c 128,-1,52
 834 1002 834 1002 900 936 c 1,53,-1
 900 1354 l 2,54,55
 900 1403 900 1403 893 1441 c 1,56,57
 874 1447 874 1447 853.5 1451 c 128,-1,58
 833 1455 833 1455 806 1455 c 2,59,-1
 709 1455 l 1,60,-1
 709 1542 l 1,61,62
 760 1554 760 1554 848 1561.5 c 128,-1,63
 936 1569 936 1569 1048 1569 c 0,64,65
 1065 1569 1065 1569 1079.5 1568.5 c 128,-1,66
 1094 1568 1094 1568 1105 1566 c 1,67,68
 1110 1549 1110 1549 1111.5 1529 c 128,-1,69
 1113 1509 1113 1509 1113 1486 c 2,70,-1
 1113 269 l 2,21,22
EndSplineSet
EndChar

StartChar: e
Encoding: 101 101 76
Width: 1171
Flags: W
LayerCount: 2
Fore
SplineSet
851 604 m 1,0,1
 853 611 853 611 853 618 c 128,-1,2
 853 625 853 625 853 633 c 0,3,4
 853 697 853 697 839 754.5 c 128,-1,5
 825 812 825 812 795 855.5 c 128,-1,6
 765 899 765 899 718.5 924.5 c 128,-1,7
 672 950 672 950 608 950 c 0,8,9
 476 950 476 950 407 861.5 c 128,-1,10
 338 773 338 773 329 604 c 1,11,-1
 851 604 l 1,0,1
1046 167 m 1,12,13
 989 67 989 67 888.5 21.5 c 128,-1,14
 788 -24 788 -24 646 -24 c 0,15,16
 525 -24 525 -24 426.5 12 c 128,-1,17
 328 48 328 48 258.5 117.5 c 128,-1,18
 189 187 189 187 151 288 c 128,-1,19
 113 389 113 389 113 519 c 0,20,21
 113 645 113 645 150 745.5 c 128,-1,22
 187 846 187 846 256 916 c 128,-1,23
 325 986 325 986 422.5 1023.5 c 128,-1,24
 520 1061 520 1061 642 1061 c 0,25,26
 732 1061 732 1061 810 1033.5 c 128,-1,27
 888 1006 888 1006 945.5 954.5 c 128,-1,28
 1003 903 1003 903 1035.5 828 c 128,-1,29
 1068 753 1068 753 1068 659 c 0,30,31
 1068 602 1068 602 1058.5 568 c 128,-1,32
 1049 534 1049 534 1030.5 516 c 128,-1,33
 1012 498 1012 498 983.5 492.5 c 128,-1,34
 955 487 955 487 916 487 c 2,35,-1
 330 487 l 1,36,37
 341 294 341 294 432.5 197.5 c 128,-1,38
 524 101 524 101 679 101 c 0,39,40
 760 101 760 101 830 126 c 128,-1,41
 900 151 900 151 960 205 c 1,42,-1
 1046 167 l 1,12,13
EndSplineSet
EndChar

StartChar: f
Encoding: 102 102 77
Width: 786
Flags: W
LayerCount: 2
Fore
SplineSet
136 71 m 1,0,1
 194 77 194 77 223.5 86 c 128,-1,2
 253 95 253 95 266 111.5 c 128,-1,3
 279 128 279 128 280 154 c 128,-1,4
 281 180 281 180 281 221 c 2,5,-1
 281 912 l 1,6,-1
 55 912 l 1,7,-1
 55 987 l 1,8,9
 69 1013 69 1013 95.5 1022.5 c 128,-1,10
 122 1032 122 1032 162 1032 c 2,11,-1
 281 1032 l 1,12,-1
 281 1124 l 2,13,14
 281 1242 281 1242 311.5 1325.5 c 128,-1,15
 342 1409 342 1409 398 1462 c 128,-1,16
 454 1515 454 1515 533 1539.5 c 128,-1,17
 612 1564 612 1564 709 1564 c 1,18,19
 789 1562 789 1562 841.5 1547 c 128,-1,20
 894 1532 894 1532 929 1512 c 1,21,-1
 929 1288 l 1,22,-1
 832 1288 l 1,23,24
 819 1334 819 1334 802 1365.5 c 128,-1,25
 785 1397 785 1397 764.5 1416 c 128,-1,26
 744 1435 744 1435 721 1443.5 c 128,-1,27
 698 1452 698 1452 673 1452 c 0,28,29
 626 1452 626 1452 592.5 1438.5 c 128,-1,30
 559 1425 559 1425 537.5 1392.5 c 128,-1,31
 516 1360 516 1360 505.5 1306 c 128,-1,32
 495 1252 495 1252 495 1170 c 2,33,-1
 495 1032 l 1,34,-1
 779 1032 l 1,35,-1
 779 980 l 2,36,37
 779 949 779 949 767.5 933.5 c 128,-1,38
 756 918 756 918 731 912 c 1,39,-1
 495 912 l 1,40,-1
 495 242 l 2,41,42
 495 197 495 197 497.5 167 c 128,-1,43
 500 137 500 137 515 118 c 128,-1,44
 530 99 530 99 563 88.5 c 128,-1,45
 596 78 596 78 657 71 c 1,46,-1
 665 -13 l 1,47,48
 584 -7 584 -7 518 -3.5 c 128,-1,49
 452 0 452 0 388 0 c 0,50,51
 327 0 327 0 265.5 -3 c 128,-1,52
 204 -6 204 -6 134 -13 c 1,53,-1
 136 71 l 1,0,1
EndSplineSet
EndChar

StartChar: g
Encoding: 103 103 78
Width: 1102
Flags: W
LayerCount: 2
Fore
SplineSet
1003 1052 m 1,0,1
 1032 1052 1032 1052 1047 1045.5 c 128,-1,2
 1062 1039 1062 1039 1068 1024 c 128,-1,3
 1074 1009 1074 1009 1074.5 983.5 c 128,-1,4
 1075 958 1075 958 1075 919 c 1,5,-1
 853 918 l 1,6,7
 898 864 898 864 917.5 809.5 c 128,-1,8
 937 755 937 755 937 701 c 0,9,10
 937 615 937 615 911 544.5 c 128,-1,11
 885 474 885 474 829 424 c 128,-1,12
 773 374 773 374 685.5 346 c 128,-1,13
 598 318 598 318 475 318 c 0,14,15
 428 318 428 318 396.5 314.5 c 128,-1,16
 365 311 365 311 346.5 304.5 c 128,-1,17
 328 298 328 298 320.5 288.5 c 128,-1,18
 313 279 313 279 313 267 c 0,19,20
 313 244 313 244 320 228 c 128,-1,21
 327 212 327 212 352.5 201 c 128,-1,22
 378 190 378 190 428 185 c 128,-1,23
 478 180 478 180 564 180 c 0,24,25
 621 180 621 180 677.5 175 c 128,-1,26
 734 170 734 170 786 157 c 128,-1,27
 838 144 838 144 882 121.5 c 128,-1,28
 926 99 926 99 959 63.5 c 128,-1,29
 992 28 992 28 1010.5 -21.5 c 128,-1,30
 1029 -71 1029 -71 1029 -138 c 0,31,32
 1029 -204 1029 -204 1002 -261 c 128,-1,33
 975 -318 975 -318 912.5 -359.5 c 128,-1,34
 850 -401 850 -401 749.5 -425 c 128,-1,35
 649 -449 649 -449 502 -449 c 0,36,37
 380 -449 380 -449 294 -424.5 c 128,-1,38
 208 -400 208 -400 153 -359.5 c 128,-1,39
 98 -319 98 -319 72.5 -265.5 c 128,-1,40
 47 -212 47 -212 47 -153 c 0,41,42
 47 -56 47 -56 115.5 10.5 c 128,-1,43
 184 77 184 77 309 110 c 1,44,-1
 309 115 l 1,45,46
 268 117 268 117 238.5 129 c 128,-1,47
 209 141 209 141 189.5 159.5 c 128,-1,48
 170 178 170 178 160.5 201 c 128,-1,49
 151 224 151 224 151 249 c 0,50,51
 151 300 151 300 181.5 339.5 c 128,-1,52
 212 379 212 379 275 390 c 1,53,-1
 275 394 l 1,54,55
 190 445 190 445 150 524 c 128,-1,56
 110 603 110 603 110 697 c 0,57,58
 110 780 110 780 140.5 847.5 c 128,-1,59
 171 915 171 915 226 962.5 c 128,-1,60
 281 1010 281 1010 358.5 1036 c 128,-1,61
 436 1062 436 1062 531 1062 c 0,62,63
 588 1062 588 1062 644.5 1049 c 128,-1,64
 701 1036 701 1036 750 1018 c 1,65,-1
 1003 1052 l 1,0,1
841 -149 m 0,66,67
 841 -106 841 -106 831 -71.5 c 128,-1,68
 821 -37 821 -37 787.5 -12 c 128,-1,69
 754 13 754 13 691 26.5 c 128,-1,70
 628 40 628 40 522 40 c 0,71,72
 432 40 432 40 376 23 c 128,-1,73
 320 6 320 6 288.5 -21.5 c 128,-1,74
 257 -49 257 -49 246 -82.5 c 128,-1,75
 235 -116 235 -116 235 -149 c 0,76,77
 235 -181 235 -181 246 -213.5 c 128,-1,78
 257 -246 257 -246 288.5 -272.5 c 128,-1,79
 320 -299 320 -299 376 -316 c 128,-1,80
 432 -333 432 -333 522 -333 c 0,81,82
 622 -333 622 -333 684 -319 c 128,-1,83
 746 -305 746 -305 781 -280 c 128,-1,84
 816 -255 816 -255 828.5 -221.5 c 128,-1,85
 841 -188 841 -188 841 -149 c 0,66,67
747 686 m 0,86,87
 747 819 747 819 689 883 c 128,-1,88
 631 947 631 947 525 947 c 0,89,90
 405 947 405 947 352 882 c 128,-1,91
 299 817 299 817 299 686 c 0,92,93
 299 620 299 620 316 575 c 128,-1,94
 333 530 333 530 363 502 c 128,-1,95
 393 474 393 474 434 461.5 c 128,-1,96
 475 449 475 449 522 449 c 0,97,98
 571 449 571 449 612 462 c 128,-1,99
 653 475 653 475 683 503.5 c 128,-1,100
 713 532 713 532 730 577 c 128,-1,101
 747 622 747 622 747 686 c 0,86,87
EndSplineSet
EndChar

StartChar: h
Encoding: 104 104 79
Width: 1362
Flags: W
LayerCount: 2
Fore
SplineSet
1305 12 m 1,0,1
 1257 -1 1257 -1 1186.5 -7 c 128,-1,2
 1116 -13 1116 -13 1041 -13 c 0,3,4
 1019 -13 1019 -13 996.5 -9.5 c 128,-1,5
 974 -6 974 -6 956 3.5 c 128,-1,6
 938 13 938 13 926.5 29.5 c 128,-1,7
 915 46 915 46 915 73 c 0,8,9
 915 122 915 122 918.5 170 c 128,-1,10
 922 218 922 218 922 281 c 2,11,-1
 921 644 l 2,12,13
 921 741 921 741 910.5 800.5 c 128,-1,14
 900 860 900 860 879 892.5 c 128,-1,15
 858 925 858 925 826 935.5 c 128,-1,16
 794 946 794 946 751 946 c 0,17,18
 694 946 694 946 640 927.5 c 128,-1,19
 586 909 586 909 543.5 879.5 c 128,-1,20
 501 850 501 850 473.5 815 c 128,-1,21
 446 780 446 780 442 747 c 1,22,-1
 442 242 l 2,23,24
 442 197 442 197 443.5 167 c 128,-1,25
 445 137 445 137 456 118 c 128,-1,26
 467 99 467 99 491.5 88.5 c 128,-1,27
 516 78 516 78 562 71 c 1,28,-1
 570 -13 l 1,29,30
 498 -7 498 -7 439 -3.5 c 128,-1,31
 380 0 380 0 323 0 c 0,32,33
 269 0 269 0 214.5 -3 c 128,-1,34
 160 -6 160 -6 100 -13 c 1,35,-1
 104 71 l 1,36,37
 153 77 153 77 179 86 c 128,-1,38
 205 95 205 95 215.5 111.5 c 128,-1,39
 226 128 226 128 227 154 c 128,-1,40
 228 180 228 180 228 221 c 2,41,-1
 228 1353 l 2,42,43
 228 1376 228 1376 226.5 1398.5 c 128,-1,44
 225 1421 225 1421 220 1441 c 1,45,46
 203 1447 203 1447 182 1451 c 128,-1,47
 161 1455 161 1455 135 1455 c 2,48,-1
 37 1455 l 1,49,-1
 37 1542 l 1,50,51
 86 1554 86 1554 169.5 1562 c 128,-1,52
 253 1570 253 1570 355 1570 c 0,53,54
 388 1570 388 1570 405.5 1566.5 c 128,-1,55
 423 1563 423 1563 431 1553 c 128,-1,56
 439 1543 439 1543 440.5 1524 c 128,-1,57
 442 1505 442 1505 442 1475 c 2,58,-1
 442 918 l 1,59,60
 515 987 515 987 616 1024 c 128,-1,61
 717 1061 717 1061 826 1061 c 0,62,63
 988 1061 988 1061 1061.5 983.5 c 128,-1,64
 1135 906 1135 906 1135 745 c 2,65,-1
 1135 269 l 2,66,67
 1135 212 1135 212 1140 171.5 c 128,-1,68
 1145 131 1145 131 1152 101 c 1,69,-1
 1305 101 l 1,70,-1
 1305 12 l 1,0,1
EndSplineSet
EndChar

StartChar: i
Encoding: 105 105 80
Width: 647
Flags: W
LayerCount: 2
Fore
SplineSet
205 1407 m 0,0,1
 205 1471 205 1471 243.5 1509 c 128,-1,2
 282 1547 282 1547 342 1547 c 0,3,4
 372 1547 372 1547 397 1537 c 128,-1,5
 422 1527 422 1527 440 1509 c 128,-1,6
 458 1491 458 1491 468.5 1465 c 128,-1,7
 479 1439 479 1439 479 1407 c 0,8,9
 479 1377 479 1377 468.5 1351.5 c 128,-1,10
 458 1326 458 1326 440 1307.5 c 128,-1,11
 422 1289 422 1289 397 1279 c 128,-1,12
 372 1269 372 1269 342 1269 c 256,13,14
 312 1269 312 1269 287 1279 c 128,-1,15
 262 1289 262 1289 243.5 1307.5 c 128,-1,16
 225 1326 225 1326 215 1351.5 c 128,-1,17
 205 1377 205 1377 205 1407 c 0,0,1
621 11 m 1,18,19
 569 -2 569 -2 503 -7.5 c 128,-1,20
 437 -13 437 -13 356 -13 c 0,21,22
 334 -13 334 -13 311.5 -9.5 c 128,-1,23
 289 -6 289 -6 271 3.5 c 128,-1,24
 253 13 253 13 241.5 29.5 c 128,-1,25
 230 46 230 46 230 73 c 0,26,27
 230 122 230 122 233.5 170 c 128,-1,28
 237 218 237 218 237 281 c 2,29,-1
 237 842 l 2,30,31
 237 862 237 862 235.5 883 c 128,-1,32
 234 904 234 904 230 921 c 1,33,34
 194 936 194 936 144 936 c 2,35,-1
 47 936 l 1,36,-1
 47 1032 l 1,37,38
 59 1035 59 1035 84.5 1038.5 c 128,-1,39
 110 1042 110 1042 142.5 1045 c 128,-1,40
 175 1048 175 1048 213 1050 c 128,-1,41
 251 1052 251 1052 289 1052 c 0,42,43
 337 1052 337 1052 379.5 1047.5 c 128,-1,44
 422 1043 422 1043 450 1032 c 1,45,-1
 450 269 l 2,46,47
 450 212 450 212 455 171.5 c 128,-1,48
 460 131 460 131 467 101 c 1,49,-1
 611 101 l 1,50,-1
 621 11 l 1,18,19
EndSplineSet
EndChar

StartChar: j
Encoding: 106 106 81
Width: 865
Flags: W
LayerCount: 2
Fore
SplineSet
647 -26 m 2,0,1
 647 -255 647 -255 530 -370.5 c 128,-1,2
 413 -486 413 -486 184 -486 c 0,3,4
 111 -486 111 -486 54.5 -475 c 128,-1,5
 -2 -464 -2 -464 -25 -445 c 1,6,-1
 -13 -360 l 2,7,8
 -8 -325 -8 -325 -1 -288.5 c 128,-1,9
 6 -252 6 -252 12 -228 c 1,10,11
 69 -239 69 -239 118 -246 c 1,12,13
 121 -283 121 -283 134.5 -306 c 128,-1,14
 148 -329 148 -329 167 -342 c 128,-1,15
 186 -355 186 -355 208 -359.5 c 128,-1,16
 230 -364 230 -364 251 -364 c 0,17,18
 313 -364 313 -364 349.5 -334 c 128,-1,19
 386 -304 386 -304 404.5 -254.5 c 128,-1,20
 423 -205 423 -205 428.5 -140.5 c 128,-1,21
 434 -76 434 -76 434 -8 c 2,22,-1
 434 842 l 2,23,24
 434 862 434 862 432.5 883 c 128,-1,25
 431 904 431 904 427 921 c 1,26,27
 391 936 391 936 341 936 c 2,28,-1
 244 936 l 1,29,-1
 244 1032 l 1,30,31
 256 1035 256 1035 281.5 1038.5 c 128,-1,32
 307 1042 307 1042 339.5 1045 c 128,-1,33
 372 1048 372 1048 410 1050 c 128,-1,34
 448 1052 448 1052 486 1052 c 0,35,36
 534 1052 534 1052 576.5 1047.5 c 128,-1,37
 619 1043 619 1043 647 1032 c 1,38,-1
 647 -26 l 2,0,1
403 1407 m 0,39,40
 403 1439 403 1439 413.5 1465 c 128,-1,41
 424 1491 424 1491 442 1509 c 128,-1,42
 460 1527 460 1527 485 1537 c 128,-1,43
 510 1547 510 1547 540 1547 c 256,44,45
 570 1547 570 1547 595 1537 c 128,-1,46
 620 1527 620 1527 638 1509 c 128,-1,47
 656 1491 656 1491 666.5 1465 c 128,-1,48
 677 1439 677 1439 677 1407 c 0,49,50
 677 1377 677 1377 666.5 1351.5 c 128,-1,51
 656 1326 656 1326 638 1307.5 c 128,-1,52
 620 1289 620 1289 595 1279 c 128,-1,53
 570 1269 570 1269 540 1269 c 256,54,55
 510 1269 510 1269 485 1279 c 128,-1,56
 460 1289 460 1289 442 1307.5 c 128,-1,57
 424 1326 424 1326 413.5 1351.5 c 128,-1,58
 403 1377 403 1377 403 1407 c 0,39,40
EndSplineSet
EndChar

StartChar: k
Encoding: 107 107 82
Width: 1245
Flags: W
LayerCount: 2
Fore
SplineSet
104 72 m 1,0,1
 153 78 153 78 179 87 c 128,-1,2
 205 96 205 96 215.5 112.5 c 128,-1,3
 226 129 226 129 227 155 c 128,-1,4
 228 181 228 181 228 222 c 2,5,-1
 228 1337 l 2,6,7
 228 1364 228 1364 226.5 1389.5 c 128,-1,8
 225 1415 225 1415 220 1440 c 1,9,10
 203 1446 203 1446 182 1450 c 128,-1,11
 161 1454 161 1454 134 1454 c 2,12,-1
 37 1454 l 1,13,-1
 37 1541 l 1,14,15
 65 1547 65 1547 104.5 1552 c 128,-1,16
 144 1557 144 1557 191 1560.5 c 128,-1,17
 238 1564 238 1564 289.5 1567 c 128,-1,18
 341 1570 341 1570 392 1572 c 1,19,20
 425 1550 425 1550 433.5 1522.5 c 128,-1,21
 442 1495 442 1495 442 1456 c 2,22,-1
 442 523 l 1,23,-1
 706 778 l 2,24,25
 820 887 820 887 821 918 c 0,26,27
 821 936 821 936 783 936 c 1,28,-1
 783 1032 l 1,29,-1
 1216 1032 l 1,30,-1
 1216 936 l 1,31,-1
 1178 936 l 2,32,33
 1157 936 1157 936 1133 930 c 128,-1,34
 1109 924 1109 924 1086 915 c 128,-1,35
 1063 906 1063 906 1043.5 894.5 c 128,-1,36
 1024 883 1024 883 1012 872 c 2,37,-1
 669 566 l 1,38,-1
 1039 145 l 2,39,40
 1050 132 1050 132 1069 120.5 c 128,-1,41
 1088 109 1088 109 1111 100 c 128,-1,42
 1134 91 1134 91 1158.5 86 c 128,-1,43
 1183 81 1183 81 1205 81 c 0,44,45
 1222 81 1222 81 1234 84 c 1,46,-1
 1247 -14 l 1,47,48
 1186 -7 1186 -7 1125.5 -3.5 c 128,-1,49
 1065 0 1065 0 1002 0 c 256,50,51
 939 0 939 0 877.5 -3.5 c 128,-1,52
 816 -7 816 -7 750 -13 c 1,53,-1
 750 75 l 1,54,55
 773 75 773 75 786 77 c 128,-1,56
 799 79 799 79 799 92 c 1,57,58
 788 111 788 111 772 132 c 128,-1,59
 756 153 756 153 734 179 c 2,60,-1
 495 470 l 1,61,-1
 442 432 l 1,62,-1
 442 242 l 2,63,64
 442 197 442 197 443.5 167 c 128,-1,65
 445 137 445 137 456 118.5 c 128,-1,66
 467 100 467 100 491.5 89.5 c 128,-1,67
 516 79 516 79 562 72 c 1,68,-1
 567 -13 l 1,69,70
 498 -7 498 -7 444 -3.5 c 128,-1,71
 390 0 390 0 335 0 c 0,72,73
 278 0 278 0 221.5 -3 c 128,-1,74
 165 -6 165 -6 101 -13 c 1,75,-1
 104 72 l 1,0,1
EndSplineSet
EndChar

StartChar: l
Encoding: 108 108 83
Width: 635
Flags: W
LayerCount: 2
Fore
SplineSet
219 1339 m 2,0,1
 219 1365 219 1365 217 1391 c 128,-1,2
 215 1417 215 1417 210 1441 c 1,3,4
 193 1447 193 1447 171.5 1451 c 128,-1,5
 150 1455 150 1455 123 1455 c 2,6,-1
 27 1455 l 1,7,-1
 27 1542 l 1,8,9
 73 1552 73 1552 149.5 1560.5 c 128,-1,10
 226 1569 226 1569 323 1569 c 0,11,12
 371 1569 371 1569 394 1564 c 128,-1,13
 417 1559 417 1559 430 1543 c 1,14,-1
 430 269 l 2,15,16
 430 212 430 212 435 171.5 c 128,-1,17
 440 131 440 131 447 101 c 1,18,-1
 611 101 l 1,19,-1
 611 11 l 1,20,21
 557 -2 557 -2 489.5 -7.5 c 128,-1,22
 422 -13 422 -13 338 -13 c 0,23,24
 316 -13 316 -13 293.5 -9.5 c 128,-1,25
 271 -6 271 -6 253 3.5 c 128,-1,26
 235 13 235 13 223.5 29.5 c 128,-1,27
 212 46 212 46 212 73 c 0,28,29
 212 122 212 122 215.5 170 c 128,-1,30
 219 218 219 218 219 281 c 2,31,-1
 219 1339 l 2,0,1
EndSplineSet
EndChar

StartChar: m
Encoding: 109 109 84
Width: 2006
Flags: W
LayerCount: 2
Fore
SplineSet
1562 660 m 2,0,1
 1562 742 1562 742 1554 795.5 c 128,-1,2
 1546 849 1546 849 1528 880 c 128,-1,3
 1510 911 1510 911 1480 923.5 c 128,-1,4
 1450 936 1450 936 1405 936 c 0,5,6
 1352 936 1352 936 1305.5 917.5 c 128,-1,7
 1259 899 1259 899 1221.5 871 c 128,-1,8
 1184 843 1184 843 1157.5 809.5 c 128,-1,9
 1131 776 1131 776 1118 746 c 1,10,-1
 1118 242 l 2,11,12
 1118 197 1118 197 1120 167 c 128,-1,13
 1122 137 1122 137 1134 118.5 c 128,-1,14
 1146 100 1146 100 1172.5 89.5 c 128,-1,15
 1199 79 1199 79 1248 72 c 1,16,-1
 1257 -13 l 1,17,18
 1197 -7 1197 -7 1132 -3.5 c 128,-1,19
 1067 0 1067 0 1001 0 c 0,20,21
 940 0 940 0 883.5 -3 c 128,-1,22
 827 -6 827 -6 776 -13 c 1,23,-1
 780 72 l 1,24,25
 829 78 829 78 855 86.5 c 128,-1,26
 881 95 881 95 891.5 111.5 c 128,-1,27
 902 128 902 128 903 154 c 128,-1,28
 904 180 904 180 904 221 c 2,29,-1
 904 660 l 2,30,31
 904 743 904 743 896.5 796.5 c 128,-1,32
 889 850 889 850 870.5 881 c 128,-1,33
 852 912 852 912 821.5 924 c 128,-1,34
 791 936 791 936 746 936 c 0,35,36
 699 936 699 936 652.5 918 c 128,-1,37
 606 900 606 900 567 872 c 128,-1,38
 528 844 528 844 500 810.5 c 128,-1,39
 472 777 472 777 461 746 c 1,40,-1
 461 242 l 2,41,42
 461 197 461 197 462.5 167 c 128,-1,43
 464 137 464 137 475.5 118.5 c 128,-1,44
 487 100 487 100 511.5 89.5 c 128,-1,45
 536 79 536 79 581 72 c 1,46,-1
 589 -13 l 1,47,48
 532 -7 532 -7 468.5 -3.5 c 128,-1,49
 405 0 405 0 339 0 c 0,50,51
 279 0 279 0 223 -3 c 128,-1,52
 167 -6 167 -6 119 -13 c 1,53,-1
 122 72 l 1,54,55
 171 78 171 78 197 87.5 c 128,-1,56
 223 97 223 97 234 114 c 128,-1,57
 245 131 245 131 246 157.5 c 128,-1,58
 247 184 247 184 247 224 c 2,59,-1
 247 841 l 2,60,61
 247 861 247 861 245.5 882 c 128,-1,62
 244 903 244 903 240 921 c 1,63,64
 205 936 205 936 154 936 c 2,65,-1
 57 936 l 1,66,-1
 57 1032 l 1,67,68
 69 1035 69 1035 93.5 1038.5 c 128,-1,69
 118 1042 118 1042 150 1045 c 128,-1,70
 182 1048 182 1048 219 1050 c 128,-1,71
 256 1052 256 1052 292 1052 c 0,72,73
 340 1052 340 1052 384 1047.5 c 128,-1,74
 428 1043 428 1043 456 1032 c 1,75,-1
 456 905 l 1,76,77
 544 983 544 983 636.5 1022.5 c 128,-1,78
 729 1062 729 1062 842 1062 c 0,79,80
 1045 1062 1045 1062 1101 885 c 1,81,82
 1125 912 1125 912 1160 943.5 c 128,-1,83
 1195 975 1195 975 1241.5 1001 c 128,-1,84
 1288 1027 1288 1027 1347 1044.5 c 128,-1,85
 1406 1062 1406 1062 1480 1062 c 0,86,87
 1634 1062 1634 1062 1706 986.5 c 128,-1,88
 1778 911 1778 911 1778 748 c 2,89,-1
 1778 269 l 2,90,91
 1778 212 1778 212 1783 171.5 c 128,-1,92
 1788 131 1788 131 1795 101 c 1,93,-1
 1939 101 l 1,94,-1
 1949 12 l 1,95,96
 1897 -1 1897 -1 1830.5 -7 c 128,-1,97
 1764 -13 1764 -13 1683 -13 c 0,98,99
 1661 -13 1661 -13 1638.5 -9.5 c 128,-1,100
 1616 -6 1616 -6 1598 3.5 c 128,-1,101
 1580 13 1580 13 1568.5 29.5 c 128,-1,102
 1557 46 1557 46 1557 73 c 0,103,104
 1557 122 1557 122 1560.5 170 c 128,-1,105
 1564 218 1564 218 1564 281 c 2,106,-1
 1562 660 l 2,0,1
EndSplineSet
EndChar

StartChar: n
Encoding: 110 110 85
Width: 1382
Flags: W
LayerCount: 2
Fore
SplineSet
1153 269 m 2,0,1
 1153 212 1153 212 1158 171.5 c 128,-1,2
 1163 131 1163 131 1170 101 c 1,3,-1
 1314 101 l 1,4,-1
 1325 12 l 1,5,6
 1221 -13 1221 -13 1058 -13 c 0,7,8
 1037 -13 1037 -13 1015 -9.5 c 128,-1,9
 993 -6 993 -6 975 4 c 128,-1,10
 957 14 957 14 945.5 30.5 c 128,-1,11
 934 47 934 47 934 74 c 0,12,13
 934 123 934 123 937 174.5 c 128,-1,14
 940 226 940 226 940 289 c 2,15,-1
 940 651 l 2,16,17
 940 730 940 730 926.5 784.5 c 128,-1,18
 913 839 913 839 889.5 873 c 128,-1,19
 866 907 866 907 834.5 921.5 c 128,-1,20
 803 936 803 936 767 936 c 0,21,22
 727 936 727 936 683.5 921.5 c 128,-1,23
 640 907 640 907 599 883 c 128,-1,24
 558 859 558 859 522 828.5 c 128,-1,25
 486 798 486 798 461 766 c 1,26,-1
 461 243 l 2,27,28
 461 198 461 198 462.5 168 c 128,-1,29
 464 138 464 138 475.5 119 c 128,-1,30
 487 100 487 100 511.5 89.5 c 128,-1,31
 536 79 536 79 581 72 c 1,32,-1
 589 -13 l 1,33,34
 532 -7 532 -7 468.5 -3.5 c 128,-1,35
 405 0 405 0 339 0 c 0,36,37
 279 0 279 0 223 -3 c 128,-1,38
 167 -6 167 -6 119 -13 c 1,39,-1
 122 72 l 1,40,41
 171 78 171 78 197 87 c 128,-1,42
 223 96 223 96 234 112.5 c 128,-1,43
 245 129 245 129 246 155 c 128,-1,44
 247 181 247 181 247 222 c 2,45,-1
 247 845 l 2,46,47
 247 865 247 865 245.5 884.5 c 128,-1,48
 244 904 244 904 240 921 c 1,49,50
 226 929 226 929 209.5 932.5 c 128,-1,51
 193 936 193 936 170 936 c 2,52,-1
 57 936 l 1,53,-1
 57 1032 l 1,54,55
 69 1035 69 1035 94 1038.5 c 128,-1,56
 119 1042 119 1042 151 1045 c 128,-1,57
 183 1048 183 1048 220.5 1050 c 128,-1,58
 258 1052 258 1052 296 1052 c 0,59,60
 344 1052 344 1052 386.5 1047.5 c 128,-1,61
 429 1043 429 1043 457 1032 c 1,62,-1
 456 906 l 1,63,64
 494 943 494 943 539.5 972 c 128,-1,65
 585 1001 585 1001 634.5 1021 c 128,-1,66
 684 1041 684 1041 735 1051.5 c 128,-1,67
 786 1062 786 1062 835 1062 c 0,68,69
 898 1062 898 1062 955.5 1044 c 128,-1,70
 1013 1026 1013 1026 1057 987.5 c 128,-1,71
 1101 949 1101 949 1127 888.5 c 128,-1,72
 1153 828 1153 828 1153 744 c 2,73,-1
 1153 269 l 2,0,1
EndSplineSet
EndChar

StartChar: o
Encoding: 111 111 86
Width: 1285
Flags: W
LayerCount: 2
Fore
SplineSet
1172 518 m 0,0,1
 1172 384 1172 384 1129.5 282.5 c 128,-1,2
 1087 181 1087 181 1015 113 c 128,-1,3
 943 45 943 45 847 10.5 c 128,-1,4
 751 -24 751 -24 643 -24 c 0,5,6
 531 -24 531 -24 434.5 12 c 128,-1,7
 338 48 338 48 266.5 117 c 128,-1,8
 195 186 195 186 154 287 c 128,-1,9
 113 388 113 388 113 518 c 0,10,11
 113 647 113 647 154 748 c 128,-1,12
 195 849 195 849 266.5 918.5 c 128,-1,13
 338 988 338 988 434.5 1025 c 128,-1,14
 531 1062 531 1062 643 1062 c 0,15,16
 754 1062 754 1062 851 1025 c 128,-1,17
 948 988 948 988 1019 918.5 c 128,-1,18
 1090 849 1090 849 1131 748 c 128,-1,19
 1172 647 1172 647 1172 518 c 0,0,1
342 519 m 0,20,21
 342 297 342 297 414.5 192 c 128,-1,22
 487 87 487 87 642 87 c 0,23,24
 723 87 723 87 780.5 114 c 128,-1,25
 838 141 838 141 874 195 c 128,-1,26
 910 249 910 249 926.5 330 c 128,-1,27
 943 411 943 411 943 519 c 0,28,29
 943 733 943 733 870.5 839.5 c 128,-1,30
 798 946 798 946 642 946 c 0,31,32
 562 946 562 946 505 918.5 c 128,-1,33
 448 891 448 891 412 837 c 128,-1,34
 376 783 376 783 359 703 c 128,-1,35
 342 623 342 623 342 519 c 0,20,21
EndSplineSet
EndChar

StartChar: p
Encoding: 112 112 87
Width: 1327
Flags: W
LayerCount: 2
Fore
SplineSet
432 292 m 1,0,1
 481 198 481 198 546 149.5 c 128,-1,2
 611 101 611 101 704 101 c 0,3,4
 778 101 778 101 832 131 c 128,-1,5
 886 161 886 161 920.5 216 c 128,-1,6
 955 271 955 271 971.5 348.5 c 128,-1,7
 988 426 988 426 988 522 c 0,8,9
 988 734 988 734 932 840 c 128,-1,10
 876 946 876 946 755 946 c 0,11,12
 721 946 721 946 682.5 939 c 128,-1,13
 644 932 644 932 603.5 915.5 c 128,-1,14
 563 899 563 899 522 871 c 128,-1,15
 481 843 481 843 442 802 c 1,16,-1
 432 292 l 1,0,1
428 917 m 1,17,-1
 430 917 l 1,18,19
 496 986 496 986 587.5 1024 c 128,-1,20
 679 1062 679 1062 788 1062 c 0,21,22
 886 1062 886 1062 965 1026.5 c 128,-1,23
 1044 991 1044 991 1099.5 924 c 128,-1,24
 1155 857 1155 857 1185 759 c 128,-1,25
 1215 661 1215 661 1215 537 c 0,26,27
 1215 395 1215 395 1178 289.5 c 128,-1,28
 1141 184 1141 184 1078.5 114.5 c 128,-1,29
 1016 45 1016 45 933 10.5 c 128,-1,30
 850 -24 850 -24 758 -24 c 0,31,32
 665 -24 665 -24 584.5 6.5 c 128,-1,33
 504 37 504 37 432 91 c 1,34,-1
 432 -229 l 2,35,36
 432 -274 432 -274 433.5 -304 c 128,-1,37
 435 -334 435 -334 446.5 -353 c 128,-1,38
 458 -372 458 -372 482.5 -383 c 128,-1,39
 507 -394 507 -394 553 -401 c 1,40,-1
 561 -489 l 1,41,42
 486 -477 486 -477 424 -474 c 128,-1,43
 362 -471 362 -471 307 -471 c 0,44,45
 250 -471 250 -471 198.5 -474 c 128,-1,46
 147 -477 147 -477 90 -489 c 1,47,-1
 95 -401 l 1,48,49
 144 -394 144 -394 169.5 -385 c 128,-1,50
 195 -376 195 -376 206 -359.5 c 128,-1,51
 217 -343 217 -343 218 -317 c 128,-1,52
 219 -291 219 -291 219 -250 c 2,53,-1
 219 831 l 2,54,55
 219 854 219 854 218 877.5 c 128,-1,56
 217 901 217 901 212 921 c 1,57,58
 176 936 176 936 124 936 c 2,59,-1
 27 936 l 1,60,-1
 27 1032 l 1,61,62
 39 1035 39 1035 64 1038.5 c 128,-1,63
 89 1042 89 1042 122 1045 c 128,-1,64
 155 1048 155 1048 192.5 1050 c 128,-1,65
 230 1052 230 1052 268 1052 c 0,66,67
 316 1052 316 1052 358.5 1047.5 c 128,-1,68
 401 1043 401 1043 429 1032 c 1,69,-1
 428 917 l 1,17,-1
EndSplineSet
EndChar

StartChar: q
Encoding: 113 113 88
Width: 1337
Flags: W
LayerCount: 2
Fore
SplineSet
900 1032 m 1,0,1
 912 1035 912 1035 937 1038.5 c 128,-1,2
 962 1042 962 1042 994.5 1045 c 128,-1,3
 1027 1048 1027 1048 1064.5 1050 c 128,-1,4
 1102 1052 1102 1052 1140 1052 c 0,5,6
 1188 1052 1188 1052 1230.5 1047.5 c 128,-1,7
 1273 1043 1273 1043 1301 1032 c 1,8,-1
 1301 936 l 1,9,-1
 1204 936 l 2,10,11
 1152 936 1152 936 1116 921 c 1,12,13
 1111 901 1111 901 1110 877.5 c 128,-1,14
 1109 854 1109 854 1109 831 c 2,15,-1
 1109 -250 l 2,16,17
 1109 -291 1109 -291 1110 -317 c 128,-1,18
 1111 -343 1111 -343 1122 -359.5 c 128,-1,19
 1133 -376 1133 -376 1158.5 -385 c 128,-1,20
 1184 -394 1184 -394 1233 -401 c 1,21,-1
 1238 -489 l 1,22,23
 1181 -477 1181 -477 1129.5 -474 c 128,-1,24
 1078 -471 1078 -471 1021 -471 c 0,25,26
 966 -471 966 -471 904 -474 c 128,-1,27
 842 -477 842 -477 767 -489 c 1,28,-1
 775 -401 l 1,29,30
 821 -394 821 -394 845.5 -383 c 128,-1,31
 870 -372 870 -372 881 -353 c 128,-1,32
 892 -334 892 -334 894 -304 c 128,-1,33
 896 -274 896 -274 896 -229 c 2,34,-1
 896 91 l 1,35,36
 824 37 824 37 743.5 6.5 c 128,-1,37
 663 -24 663 -24 570 -24 c 0,38,39
 478 -24 478 -24 395 10.5 c 128,-1,40
 312 45 312 45 249.5 114.5 c 128,-1,41
 187 184 187 184 150 289.5 c 128,-1,42
 113 395 113 395 113 537 c 0,43,44
 113 661 113 661 143 759 c 128,-1,45
 173 857 173 857 228.5 924 c 128,-1,46
 284 991 284 991 363 1026.5 c 128,-1,47
 442 1062 442 1062 540 1062 c 0,48,49
 649 1062 649 1062 740 1031.5 c 128,-1,50
 831 1001 831 1001 900 947 c 1,51,-1
 900 1032 l 1,0,1
886 832 m 1,52,53
 847 864 847 864 806 886 c 128,-1,54
 765 908 765 908 724.5 921.5 c 128,-1,55
 684 935 684 935 645.5 940.5 c 128,-1,56
 607 946 607 946 573 946 c 0,57,58
 452 946 452 946 396 840 c 128,-1,59
 340 734 340 734 340 522 c 0,60,61
 340 426 340 426 356.5 348.5 c 128,-1,62
 373 271 373 271 407.5 216 c 128,-1,63
 442 161 442 161 496 131 c 128,-1,64
 550 101 550 101 624 101 c 0,65,66
 713 101 713 101 777.5 133.5 c 128,-1,67
 842 166 842 166 886 212 c 1,68,-1
 886 832 l 1,52,53
EndSplineSet
EndChar

StartChar: r
Encoding: 114 114 89
Width: 994
Flags: W
LayerCount: 2
Fore
SplineSet
463 791 m 1,0,1
 500 850 500 850 536 900 c 128,-1,2
 572 950 572 950 613.5 986 c 128,-1,3
 655 1022 655 1022 705 1042 c 128,-1,4
 755 1062 755 1062 820 1062 c 0,5,6
 882 1062 882 1062 914 1052 c 128,-1,7
 946 1042 946 1042 963 1032 c 1,8,-1
 938 756 l 1,9,-1
 848 756 l 1,10,-1
 824 902 l 1,11,-1
 799 905 l 2,12,13
 787 907 787 907 774 908 c 128,-1,14
 761 909 761 909 750 909 c 0,15,16
 704 909 704 909 654.5 879.5 c 128,-1,17
 605 850 605 850 564 802 c 128,-1,18
 523 754 523 754 496.5 692.5 c 128,-1,19
 470 631 470 631 470 568 c 2,20,-1
 470 242 l 2,21,22
 470 197 470 197 471.5 167 c 128,-1,23
 473 137 473 137 484.5 118 c 128,-1,24
 496 99 496 99 520.5 88.5 c 128,-1,25
 545 78 545 78 591 71 c 1,26,-1
 600 -13 l 1,27,28
 528 -7 528 -7 469 -3.5 c 128,-1,29
 410 0 410 0 353 0 c 0,30,31
 299 0 299 0 244.5 -3 c 128,-1,32
 190 -6 190 -6 129 -13 c 1,33,-1
 133 71 l 1,34,35
 182 77 182 77 208 86 c 128,-1,36
 234 95 234 95 245 111.5 c 128,-1,37
 256 128 256 128 257 154 c 128,-1,38
 258 180 258 180 258 221 c 2,39,-1
 258 852 l 2,40,41
 258 870 258 870 256.5 887.5 c 128,-1,42
 255 905 255 905 250 921 c 1,43,44
 236 928 236 928 220 932 c 128,-1,45
 204 936 204 936 181 936 c 2,46,-1
 68 936 l 1,47,-1
 68 1032 l 1,48,49
 80 1035 80 1035 104 1038.5 c 128,-1,50
 128 1042 128 1042 159.5 1045 c 128,-1,51
 191 1048 191 1048 227.5 1050 c 128,-1,52
 264 1052 264 1052 302 1052 c 0,53,54
 350 1052 350 1052 392.5 1047.5 c 128,-1,55
 435 1043 435 1043 463 1032 c 1,56,-1
 463 791 l 1,0,1
EndSplineSet
EndChar

StartChar: s
Encoding: 115 115 90
Width: 1010
Flags: W
LayerCount: 2
Fore
SplineSet
255 295 m 1,0,1
 257 244 257 244 259 205.5 c 128,-1,2
 261 167 261 167 263 132 c 1,3,4
 308 109 308 109 366.5 98 c 128,-1,5
 425 87 425 87 512 87 c 0,6,7
 566 87 566 87 605 99.5 c 128,-1,8
 644 112 644 112 669 134 c 128,-1,9
 694 156 694 156 706 184 c 128,-1,10
 718 212 718 212 718 244 c 0,11,12
 718 275 718 275 704 300 c 128,-1,13
 690 325 690 325 664.5 346 c 128,-1,14
 639 367 639 367 603 384.5 c 128,-1,15
 567 402 567 402 523 419 c 2,16,-1
 437 452 l 2,17,18
 357 483 357 483 297 511 c 128,-1,19
 237 539 237 539 197 573.5 c 128,-1,20
 157 608 157 608 137 653 c 128,-1,21
 117 698 117 698 117 763 c 0,22,23
 117 831 117 831 146 886.5 c 128,-1,24
 175 942 175 942 230 981 c 128,-1,25
 285 1020 285 1020 365.5 1041 c 128,-1,26
 446 1062 446 1062 548 1062 c 0,27,28
 653 1062 653 1062 732 1043.5 c 128,-1,29
 811 1025 811 1025 854 997 c 1,30,31
 854 985 854 985 850 959.5 c 128,-1,32
 846 934 846 934 839.5 900.5 c 128,-1,33
 833 867 833 867 825.5 828 c 128,-1,34
 818 789 818 789 811 750 c 1,35,-1
 711 767 l 1,36,37
 709 812 709 812 707 849 c 128,-1,38
 705 886 705 886 703 911 c 1,39,40
 661 934 661 934 610 940 c 128,-1,41
 559 946 559 946 492 946 c 0,42,43
 396 946 396 946 350.5 909 c 128,-1,44
 305 872 305 872 305 808 c 0,45,46
 305 770 305 770 321 742 c 128,-1,47
 337 714 337 714 364.5 693 c 128,-1,48
 392 672 392 672 429.5 655.5 c 128,-1,49
 467 639 467 639 510 624 c 2,50,-1
 612 588 l 2,51,52
 691 561 691 561 749 531.5 c 128,-1,53
 807 502 807 502 845 466.5 c 128,-1,54
 883 431 883 431 901.5 389 c 128,-1,55
 920 347 920 347 920 296 c 0,56,57
 920 215 920 215 888 155 c 128,-1,58
 856 95 856 95 799 55.5 c 128,-1,59
 742 16 742 16 663.5 -4 c 128,-1,60
 585 -24 585 -24 493 -24 c 0,61,62
 433 -24 433 -24 372.5 -15 c 128,-1,63
 312 -6 312 -6 258.5 8.5 c 128,-1,64
 205 23 205 23 161.5 41.5 c 128,-1,65
 118 60 118 60 92 78 c 1,66,-1
 141 328 l 1,67,-1
 255 295 l 1,0,1
EndSplineSet
EndChar

StartChar: t
Encoding: 116 116 91
Width: 894
Flags: W
LayerCount: 2
Fore
SplineSet
280 1217 m 1,0,1
 282 1238 282 1238 289.5 1262.5 c 128,-1,2
 297 1287 297 1287 305 1307 c 2,3,-1
 323 1355 l 1,4,-1
 455 1355 l 1,5,-1
 455 1032 l 1,6,-1
 777 1032 l 1,7,-1
 777 980 l 2,8,9
 777 957 777 957 773 943.5 c 128,-1,10
 769 930 769 930 760.5 923 c 128,-1,11
 752 916 752 916 738.5 914 c 128,-1,12
 725 912 725 912 706 912 c 2,13,-1
 455 912 l 1,14,-1
 455 319 l 2,15,16
 455 259 455 259 464.5 217 c 128,-1,17
 474 175 474 175 492 149 c 128,-1,18
 510 123 510 123 537 111.5 c 128,-1,19
 564 100 564 100 600 100 c 0,20,21
 650 100 650 100 690.5 140.5 c 128,-1,22
 731 181 731 181 766 279 c 1,23,-1
 847 279 l 1,24,-1
 847 98 l 1,25,26
 783 41 783 41 706 15 c 128,-1,27
 629 -11 629 -11 538 -11 c 0,28,29
 392 -11 392 -11 317.5 66 c 128,-1,30
 243 143 243 143 243 299 c 2,31,-1
 242 912 l 1,32,-1
 39 912 l 1,33,-1
 39 966 l 2,34,35
 39 992 39 992 50.5 1000 c 128,-1,36
 62 1008 62 1008 86 1011 c 2,37,-1
 253 1032 l 1,38,-1
 280 1217 l 1,0,1
EndSplineSet
EndChar

StartChar: u
Encoding: 117 117 92
Width: 1353
Flags: W
LayerCount: 2
Fore
SplineSet
1128 269 m 2,0,1
 1128 212 1128 212 1133 171.5 c 128,-1,2
 1138 131 1138 131 1145 101 c 1,3,-1
 1306 101 l 1,4,-1
 1306 15 l 1,5,6
 1254 2 1254 2 1188.5 -5.5 c 128,-1,7
 1123 -13 1123 -13 1042 -13 c 0,8,9
 1004 -13 1004 -13 976.5 -10.5 c 128,-1,10
 949 -8 949 -8 932 1.5 c 128,-1,11
 915 11 915 11 907 30 c 128,-1,12
 899 49 899 49 899 81 c 2,13,-1
 899 115 l 1,14,15
 867 92 867 92 831.5 67 c 128,-1,16
 796 42 796 42 751.5 22 c 128,-1,17
 707 2 707 2 649.5 -11 c 128,-1,18
 592 -24 592 -24 516 -24 c 0,19,20
 364 -24 364 -24 294 58 c 128,-1,21
 224 140 224 140 224 299 c 2,22,-1
 224 829 l 2,23,24
 224 858 224 858 221 881.5 c 128,-1,25
 218 905 218 905 213 925 c 1,26,27
 195 931 195 931 174 933.5 c 128,-1,28
 153 936 153 936 130 936 c 2,29,-1
 47 936 l 1,30,-1
 47 1032 l 1,31,32
 60 1035 60 1035 86 1038.5 c 128,-1,33
 112 1042 112 1042 146.5 1045 c 128,-1,34
 181 1048 181 1048 221.5 1050 c 128,-1,35
 262 1052 262 1052 304 1052 c 0,36,37
 342 1052 342 1052 377 1047.5 c 128,-1,38
 412 1043 412 1043 435 1032 c 1,39,-1
 436 375 l 2,40,41
 436 319 436 319 438 269.5 c 128,-1,42
 440 220 440 220 456.5 182.5 c 128,-1,43
 473 145 473 145 510 123 c 128,-1,44
 547 101 547 101 616 101 c 0,45,46
 666 101 666 101 716 116.5 c 128,-1,47
 766 132 766 132 806.5 150.5 c 128,-1,48
 847 169 847 169 872.5 185.5 c 128,-1,49
 898 202 898 202 899 205 c 0,50,51
 910 272 910 272 913 356 c 128,-1,52
 916 440 916 440 916 531 c 2,53,-1
 916 829 l 2,54,55
 916 886 916 886 904 925 c 1,56,57
 887 931 887 931 866 933.5 c 128,-1,58
 845 936 845 936 822 936 c 2,59,-1
 739 936 l 1,60,-1
 739 1032 l 1,61,62
 752 1035 752 1035 778 1038.5 c 128,-1,63
 804 1042 804 1042 838.5 1045 c 128,-1,64
 873 1048 873 1048 913.5 1050 c 128,-1,65
 954 1052 954 1052 996 1052 c 0,66,67
 1034 1052 1034 1052 1069.5 1047.5 c 128,-1,68
 1105 1043 1105 1043 1128 1032 c 1,69,-1
 1128 269 l 2,0,1
EndSplineSet
EndChar

StartChar: v
Encoding: 118 118 93
Width: 1320
Flags: W
LayerCount: 2
Fore
SplineSet
966 835 m 2,0,1
 975 858 975 858 981 879.5 c 128,-1,2
 987 901 987 901 993 921 c 1,3,4
 979 929 979 929 960.5 932.5 c 128,-1,5
 942 936 942 936 914 936 c 2,6,-1
 859 936 l 1,7,-1
 870 1032 l 1,8,9
 909 1043 909 1043 965.5 1047.5 c 128,-1,10
 1022 1052 1022 1052 1094 1052 c 0,11,12
 1167 1052 1167 1052 1224.5 1047.5 c 128,-1,13
 1282 1043 1282 1043 1314 1032 c 1,14,-1
 1313 936 l 1,15,-1
 1259 936 l 2,16,17
 1209 936 1209 936 1167 921 c 1,18,19
 1153 901 1153 901 1129 850.5 c 128,-1,20
 1105 800 1105 800 1075 731 c 128,-1,21
 1045 662 1045 662 1012 582 c 128,-1,22
 979 502 979 502 947 423.5 c 128,-1,23
 915 345 915 345 886.5 277.5 c 128,-1,24
 858 210 858 210 838 166 c 2,25,-1
 759 -8 l 1,26,-1
 655 -8 l 2,27,28
 637 -8 637 -8 624 -8 c 128,-1,29
 611 -8 611 -8 600.5 -5.5 c 128,-1,30
 590 -3 590 -3 581 3 c 128,-1,31
 572 9 572 9 562 20 c 1,32,-1
 218 835 l 2,33,34
 208 858 208 858 196.5 879.5 c 128,-1,35
 185 901 185 901 171 921 c 1,36,37
 150 929 150 929 128 932.5 c 128,-1,38
 106 936 106 936 79 936 c 2,39,-1
 24 936 l 1,40,-1
 8 1032 l 1,41,42
 43 1043 43 1043 103 1047.5 c 128,-1,43
 163 1052 163 1052 244 1052 c 0,44,45
 335 1052 335 1052 410.5 1047.5 c 128,-1,46
 486 1043 486 1043 535 1032 c 1,47,-1
 552 936 l 1,48,-1
 497 936 l 2,49,50
 445 936 445 936 417 921 c 1,51,52
 421 901 421 901 430.5 879.5 c 128,-1,53
 440 858 440 858 448 835 c 0,54,55
 525 620 525 620 590 453.5 c 128,-1,56
 655 287 655 287 710 157 c 1,57,-1
 966 835 l 2,0,1
EndSplineSet
EndChar

StartChar: w
Encoding: 119 119 94
Width: 1906
Flags: W
LayerCount: 2
Fore
SplineSet
1556 835 m 2,0,1
 1563 858 1563 858 1565.5 879.5 c 128,-1,2
 1568 901 1568 901 1577 921 c 1,3,4
 1563 929 1563 929 1547 932.5 c 128,-1,5
 1531 936 1531 936 1504 936 c 2,6,-1
 1449 936 l 1,7,-1
 1460 1032 l 1,8,9
 1499 1043 1499 1043 1555 1047.5 c 128,-1,10
 1611 1052 1611 1052 1683 1052 c 0,11,12
 1756 1052 1756 1052 1814 1047.5 c 128,-1,13
 1872 1043 1872 1043 1904 1032 c 1,14,-1
 1903 936 l 1,15,-1
 1849 936 l 2,16,17
 1797 936 1797 936 1757 921 c 1,18,19
 1721 821 1721 821 1685.5 722 c 128,-1,20
 1650 623 1650 623 1616.5 529.5 c 128,-1,21
 1583 436 1583 436 1552.5 351 c 128,-1,22
 1522 266 1522 266 1496.5 195.5 c 128,-1,23
 1471 125 1471 125 1452 72.5 c 128,-1,24
 1433 20 1433 20 1423 -8 c 1,25,-1
 1308 -8 l 2,26,27
 1275 -8 1275 -8 1255 -3 c 128,-1,28
 1235 2 1235 2 1222.5 13.5 c 128,-1,29
 1210 25 1210 25 1202 42 c 128,-1,30
 1194 59 1194 59 1186 83 c 2,31,-1
 974 710 l 1,32,33
 947 629 947 629 914.5 535.5 c 128,-1,34
 882 442 882 442 848 345.5 c 128,-1,35
 814 249 814 249 780.5 158 c 128,-1,36
 747 67 747 67 719 -8 c 1,37,-1
 604 -8 l 2,38,39
 545 -8 545 -8 523 4.5 c 128,-1,40
 501 17 501 17 496 35 c 1,41,-1
 210 835 l 2,42,43
 202 858 202 858 189.5 879.5 c 128,-1,44
 177 901 177 901 163 921 c 1,45,46
 124 936 124 936 72 936 c 2,47,-1
 18 936 l 1,48,-1
 2 1032 l 1,49,50
 35 1043 35 1043 92 1047.5 c 128,-1,51
 149 1052 149 1052 227 1052 c 0,52,53
 318 1052 318 1052 393.5 1047.5 c 128,-1,54
 469 1043 469 1043 518 1032 c 1,55,-1
 535 936 l 1,56,-1
 480 936 l 2,57,58
 428 936 428 936 401 921 c 1,59,60
 421 863 421 863 442 799 c 0,61,62
 460 744 460 744 483 675 c 128,-1,63
 506 606 506 606 530 534 c 2,64,-1
 657 146 l 1,65,-1
 767 489 l 2,66,67
 789 558 789 558 812.5 631 c 128,-1,68
 836 704 836 704 858 772.5 c 128,-1,69
 880 841 880 841 899.5 900.5 c 128,-1,70
 919 960 919 960 933 1004 c 1,71,-1
 988 1004 l 2,72,73
 1030 1004 1030 1004 1055 998.5 c 128,-1,74
 1080 993 1080 993 1088 969 c 2,75,-1
 1360 133 l 1,76,-1
 1556 835 l 2,0,1
EndSplineSet
EndChar

StartChar: x
Encoding: 120 120 95
Width: 1241
Flags: W
LayerCount: 2
Fore
SplineSet
973 242 m 1,0,1
 1003 201 1003 201 1023 173.5 c 128,-1,2
 1043 146 1043 146 1063.5 128 c 128,-1,3
 1084 110 1084 110 1110.5 99 c 128,-1,4
 1137 88 1137 88 1181 81 c 1,5,-1
 1221 -13 l 1,6,7
 1204 -10 1204 -10 1176 -7.5 c 128,-1,8
 1148 -5 1148 -5 1113.5 -3.5 c 128,-1,9
 1079 -2 1079 -2 1039.5 -1 c 128,-1,10
 1000 0 1000 0 960 0 c 0,11,12
 890 0 890 0 828 -3 c 128,-1,13
 766 -6 766 -6 732 -13 c 1,14,-1
 723 71 l 1,15,16
 769 77 769 77 789 86 c 128,-1,17
 809 95 809 95 809 112 c 1,18,19
 808 126 808 126 792 153 c 128,-1,20
 776 180 776 180 747 221 c 2,21,-1
 598 434 l 1,22,-1
 459 242 l 2,23,24
 424 194 424 194 405 164 c 128,-1,25
 386 134 386 134 386 115 c 0,26,27
 386 98 386 98 403.5 88 c 128,-1,28
 421 78 421 78 460 71 c 1,29,-1
 426 -13 l 1,30,31
 400 -6 400 -6 346.5 -3 c 128,-1,32
 293 0 293 0 231 0 c 0,33,34
 198 0 198 0 164.5 -1 c 128,-1,35
 131 -2 131 -2 102 -3.5 c 128,-1,36
 73 -5 73 -5 49 -7.5 c 128,-1,37
 25 -10 25 -10 10 -13 c 1,38,-1
 46 71 l 1,39,40
 102 77 102 77 134 87 c 128,-1,41
 166 97 166 97 188.5 114.5 c 128,-1,42
 211 132 211 132 231.5 157.5 c 128,-1,43
 252 183 252 183 286 221 c 1,44,-1
 528 515 l 1,45,-1
 295 835 l 2,46,47
 278 858 278 858 258 879 c 128,-1,48
 238 900 238 900 216 921 c 1,49,50
 171 936 171 936 119 936 c 2,51,-1
 86 936 l 1,52,-1
 59 1032 l 1,53,54
 92 1043 92 1043 154 1047.5 c 128,-1,55
 216 1052 216 1052 304 1052 c 256,56,57
 392 1052 392 1052 468.5 1047.5 c 128,-1,58
 545 1043 545 1043 596 1032 c 1,59,-1
 613 936 l 1,60,-1
 557 936 l 2,61,62
 506 936 506 936 484 921 c 1,63,64
 496 901 496 901 512.5 879.5 c 128,-1,65
 529 858 529 858 547 835 c 1,66,-1
 687 642 l 1,67,68
 732 699 732 699 784.5 773.5 c 128,-1,69
 837 848 837 848 887 921 c 1,70,71
 875 929 875 929 861 932.5 c 128,-1,72
 847 936 847 936 819 936 c 2,73,-1
 764 936 l 1,74,-1
 788 1032 l 1,75,76
 833 1043 833 1043 895 1047.5 c 128,-1,77
 957 1052 957 1052 1032 1052 c 0,78,79
 1101 1052 1101 1052 1153 1047.5 c 128,-1,80
 1205 1043 1205 1043 1231 1032 c 1,81,-1
 1197 936 l 1,82,-1
 1154 936 l 2,83,84
 1103 936 1103 936 1057 921 c 1,85,-1
 934 771 l 2,86,87
 909 741 909 741 883 710 c 128,-1,88
 857 679 857 679 833 650.5 c 128,-1,89
 809 622 809 622 788 598 c 128,-1,90
 767 574 767 574 753 559 c 1,91,-1
 973 242 l 1,0,1
EndSplineSet
EndChar

StartChar: y
Encoding: 121 121 96
Width: 1318
Flags: W
LayerCount: 2
Fore
SplineSet
970 835 m 1,0,1
 977 858 977 858 984 879.5 c 128,-1,2
 991 901 991 901 996 921 c 1,3,4
 982 929 982 929 963.5 932.5 c 128,-1,5
 945 936 945 936 918 936 c 2,6,-1
 862 936 l 1,7,-1
 874 1032 l 1,8,9
 913 1043 913 1043 969 1047.5 c 128,-1,10
 1025 1052 1025 1052 1097 1052 c 0,11,12
 1170 1052 1170 1052 1228 1047.5 c 128,-1,13
 1286 1043 1286 1043 1318 1032 c 1,14,-1
 1317 936 l 1,15,-1
 1263 936 l 2,16,17
 1235 936 1235 936 1213 932.5 c 128,-1,18
 1191 929 1191 929 1171 921 c 1,19,20
 1169 919 1169 919 1166 912.5 c 128,-1,21
 1163 906 1163 906 1155 889 c 128,-1,22
 1147 872 1147 872 1133 841 c 128,-1,23
 1119 810 1119 810 1097 761 c 2,24,-1
 682 -196 l 2,25,26
 644 -283 644 -283 600.5 -339.5 c 128,-1,27
 557 -396 557 -396 506.5 -429 c 128,-1,28
 456 -462 456 -462 398.5 -475 c 128,-1,29
 341 -488 341 -488 275 -488 c 0,30,31
 248 -488 248 -488 222.5 -485.5 c 128,-1,32
 197 -483 197 -483 176 -479.5 c 128,-1,33
 155 -476 155 -476 140.5 -471 c 128,-1,34
 126 -466 126 -466 120 -460 c 1,35,-1
 152 -321 l 1,36,37
 190 -335 190 -335 232 -342 c 128,-1,38
 274 -349 274 -349 304 -349 c 0,39,40
 349 -349 349 -349 383 -340 c 128,-1,41
 417 -331 417 -331 448.5 -299.5 c 128,-1,42
 480 -268 480 -268 513 -208.5 c 128,-1,43
 546 -149 546 -149 590 -47 c 1,44,-1
 217 834 l 2,45,46
 207 857 207 857 196 878.5 c 128,-1,47
 185 900 185 900 170 920 c 1,48,49
 131 935 131 935 79 935 c 2,50,-1
 25 935 l 1,51,-1
 8 1031 l 1,52,53
 43 1042 43 1042 104 1047 c 128,-1,54
 165 1052 165 1052 244 1052 c 0,55,56
 335 1052 335 1052 411 1047 c 128,-1,57
 487 1042 487 1042 536 1031 c 1,58,-1
 551 935 l 1,59,-1
 496 935 l 2,60,61
 470 935 470 935 447.5 931.5 c 128,-1,62
 425 928 425 928 411 920 c 1,63,64
 412 915 412 915 425.5 880 c 128,-1,65
 439 845 439 845 460 791.5 c 128,-1,66
 481 738 481 738 507.5 671.5 c 128,-1,67
 534 605 534 605 561 536 c 2,68,-1
 706 171 l 1,69,-1
 970 835 l 1,0,1
EndSplineSet
EndChar

StartChar: z
Encoding: 122 122 97
Width: 1094
Flags: W
LayerCount: 2
Fore
SplineSet
638 105 m 1,0,-1
 698 105 l 2,1,2
 738 105 738 105 773 108.5 c 128,-1,3
 808 112 808 112 834 127 c 1,4,-1
 876 279 l 1,5,6
 900 281 900 281 924 282 c 128,-1,7
 948 283 948 283 972 283 c 1,8,-1
 978 115 l 2,9,10
 979 101 979 101 979 89.5 c 128,-1,11
 979 78 979 78 979 70 c 2,12,-1
 980 -10 l 1,13,14
 946 -6 946 -6 896.5 -4 c 128,-1,15
 847 -2 847 -2 792 -1 c 128,-1,16
 737 0 737 0 682.5 0 c 128,-1,17
 628 0 628 0 583 0 c 2,18,-1
 133 0 l 2,19,20
 121 0 121 0 112.5 2 c 128,-1,21
 104 4 104 4 98 12.5 c 128,-1,22
 92 21 92 21 89 37 c 128,-1,23
 86 53 86 53 86 81 c 2,24,-1
 86 140 l 1,25,-1
 756 927 l 1,26,-1
 450 927 l 1,27,-1
 390 927 l 2,28,29
 350 927 350 927 315 923.5 c 128,-1,30
 280 920 280 920 254 905 c 1,31,-1
 212 753 l 1,32,33
 188 751 188 751 164 750 c 128,-1,34
 140 749 140 749 116 749 c 1,35,36
 113 797 113 797 112 832 c 128,-1,37
 111 867 111 867 110 892 c 128,-1,38
 109 917 109 917 109 933.5 c 128,-1,39
 109 950 109 950 109 962 c 2,40,-1
 108 1037 l 1,41,42
 135 1037 135 1037 172 1036 c 128,-1,43
 209 1035 209 1035 249.5 1034.5 c 128,-1,44
 290 1034 290 1034 331 1033 c 128,-1,45
 372 1032 372 1032 405 1032 c 2,46,-1
 857 1032 l 1,47,48
 879 1031 879 1031 896.5 1029.5 c 128,-1,49
 914 1028 914 1028 926.5 1021 c 128,-1,50
 939 1014 939 1014 945.5 998.5 c 128,-1,51
 952 983 952 983 952 955 c 2,52,-1
 952 877 l 1,53,-1
 295 105 l 1,54,-1
 638 105 l 1,0,-1
EndSplineSet
EndChar

StartChar: braceleft
Encoding: 123 123 98
Width: 702
Flags: W
LayerCount: 2
Fore
SplineSet
393 910 m 2,0,1
 393 813 393 813 360 750 c 128,-1,2
 327 687 327 687 258 665 c 1,3,4
 324 644 324 644 358 584.5 c 128,-1,5
 392 525 392 525 393 422 c 2,6,-1
 396 16 l 2,7,8
 396 -29 396 -29 402.5 -56.5 c 128,-1,9
 409 -84 409 -84 420.5 -100.5 c 128,-1,10
 432 -117 432 -117 448.5 -125.5 c 128,-1,11
 465 -134 465 -134 486 -141 c 0,12,13
 510 -149 510 -149 538.5 -153.5 c 128,-1,14
 567 -158 567 -158 599 -161 c 1,15,-1
 599 -177 l 2,16,17
 599 -209 599 -209 587 -222 c 1,18,19
 569 -227 569 -227 547 -229.5 c 128,-1,20
 525 -232 525 -232 500 -232 c 0,21,22
 438 -232 438 -232 389 -221.5 c 128,-1,23
 340 -211 340 -211 305.5 -183 c 128,-1,24
 271 -155 271 -155 252.5 -106.5 c 128,-1,25
 234 -58 234 -58 234 17 c 2,26,-1
 232 437 l 2,27,28
 231 521 231 521 201.5 570.5 c 128,-1,29
 172 620 172 620 102 646 c 1,30,31
 110 660 110 660 116.5 676 c 128,-1,32
 123 692 123 692 139 703 c 0,33,34
 164 720 164 720 182 738.5 c 128,-1,35
 200 757 200 757 211.5 779.5 c 128,-1,36
 223 802 223 802 228.5 830.5 c 128,-1,37
 234 859 234 859 234 896 c 2,38,-1
 232 1320 l 2,39,40
 232 1395 232 1395 251 1442.5 c 128,-1,41
 270 1490 270 1490 306 1517 c 128,-1,42
 342 1544 342 1544 393.5 1554 c 128,-1,43
 445 1564 445 1564 510 1564 c 0,44,45
 527 1564 527 1564 543 1562.5 c 128,-1,46
 559 1561 559 1561 571.5 1555 c 128,-1,47
 584 1549 584 1549 591.5 1538.5 c 128,-1,48
 599 1528 599 1528 599 1510 c 2,49,-1
 599 1494 l 1,50,51
 530 1490 530 1490 489 1479.5 c 128,-1,52
 448 1469 448 1469 427 1449 c 128,-1,53
 406 1429 406 1429 399.5 1397 c 128,-1,54
 393 1365 393 1365 393 1317 c 2,55,-1
 393 910 l 2,0,1
EndSplineSet
EndChar

StartChar: bar
Encoding: 124 124 99
Width: 1168
Flags: W
LayerCount: 2
Fore
SplineSet
656 -248 m 1,0,-1
 586 -248 l 2,1,2
 564 -248 564 -248 548 -245 c 128,-1,3
 532 -242 532 -242 519 -237 c 1,4,5
 514 -197 514 -197 512 -154.5 c 128,-1,6
 510 -112 510 -112 510 -66 c 2,7,-1
 510 1595 l 1,8,-1
 580 1595 l 2,9,10
 613 1595 613 1595 630.5 1584 c 128,-1,11
 648 1573 648 1573 656 1548 c 1,12,-1
 656 -248 l 1,0,-1
EndSplineSet
EndChar

StartChar: braceright
Encoding: 125 125 100
Width: 701
Flags: W
LayerCount: 2
Fore
SplineSet
191 1564 m 0,0,1
 266 1564 266 1564 318.5 1552 c 128,-1,2
 371 1540 371 1540 404 1509 c 128,-1,3
 437 1478 437 1478 452 1424 c 128,-1,4
 467 1370 467 1370 467 1287 c 2,5,-1
 465 929 l 2,6,7
 464 855 464 855 474 809.5 c 128,-1,8
 484 764 484 764 522 732 c 0,9,10
 539 717 539 717 550.5 706.5 c 128,-1,11
 562 696 562 696 570 686 c 128,-1,12
 578 676 578 676 584.5 667 c 128,-1,13
 591 658 591 658 598 646 c 1,14,15
 554 631 554 631 528 607 c 128,-1,16
 502 583 502 583 488.5 549.5 c 128,-1,17
 475 516 475 516 471 471.5 c 128,-1,18
 467 427 467 427 467 370 c 2,19,-1
 465 17 l 2,20,21
 464 -61 464 -61 444.5 -110 c 128,-1,22
 425 -159 425 -159 390 -186 c 128,-1,23
 355 -213 355 -213 304.5 -222.5 c 128,-1,24
 254 -232 254 -232 191 -232 c 0,25,26
 173 -232 173 -232 157 -230.5 c 128,-1,27
 141 -229 141 -229 129 -223 c 128,-1,28
 117 -217 117 -217 109.5 -206 c 128,-1,29
 102 -195 102 -195 102 -177 c 2,30,-1
 102 -161 l 1,31,32
 168 -157 168 -157 208 -147.5 c 128,-1,33
 248 -138 248 -138 269.5 -118.5 c 128,-1,34
 291 -99 291 -99 298 -66.5 c 128,-1,35
 305 -34 305 -34 305 16 c 2,36,-1
 307 358 l 2,37,38
 307 416 307 416 312 466 c 128,-1,39
 317 516 317 516 331.5 555.5 c 128,-1,40
 346 595 346 595 372.5 623 c 128,-1,41
 399 651 399 651 443 665 c 1,42,43
 400 677 400 677 373 704.5 c 128,-1,44
 346 732 346 732 330.5 769.5 c 128,-1,45
 315 807 315 807 310 851.5 c 128,-1,46
 305 896 305 896 305 943 c 2,47,-1
 307 1288 l 2,48,49
 307 1357 307 1357 297 1396.5 c 128,-1,50
 287 1436 287 1436 263 1456 c 128,-1,51
 239 1476 239 1476 199.5 1483 c 128,-1,52
 160 1490 160 1490 102 1494 c 1,53,-1
 102 1510 l 2,54,55
 102 1528 102 1528 109.5 1538.5 c 128,-1,56
 117 1549 117 1549 129 1555 c 128,-1,57
 141 1561 141 1561 157 1562.5 c 128,-1,58
 173 1564 173 1564 191 1564 c 0,0,1
EndSplineSet
EndChar

StartChar: asciitilde
Encoding: 126 126 101
Width: 1205
Flags: W
LayerCount: 2
Fore
SplineSet
1026 645 m 1,0,1
 1073 585 1073 585 1090 543 c 1,2,3
 1078 505 1078 505 1052.5 477.5 c 128,-1,4
 1027 450 1027 450 993.5 431 c 128,-1,5
 960 412 960 412 922 403 c 128,-1,6
 884 394 884 394 847 394 c 0,7,8
 804 394 804 394 762 404 c 128,-1,9
 720 414 720 414 680 429 c 128,-1,10
 640 444 640 444 601 462 c 128,-1,11
 562 480 562 480 523.5 495 c 128,-1,12
 485 510 485 510 448 520 c 128,-1,13
 411 530 411 530 374 530 c 0,14,15
 316 530 316 530 270 492.5 c 128,-1,16
 224 455 224 455 189 398 c 1,17,18
 130 459 130 459 113 495 c 1,19,20
 123 535 123 535 152.5 568 c 128,-1,21
 182 601 182 601 219.5 623.5 c 128,-1,22
 257 646 257 646 297.5 658.5 c 128,-1,23
 338 671 338 671 370 671 c 0,24,25
 434 671 434 671 495 651.5 c 128,-1,26
 556 632 556 632 614 606 c 0,27,28
 683 574 683 574 733 556 c 128,-1,29
 783 538 783 538 823 538 c 0,30,31
 864 538 864 538 897 548.5 c 128,-1,32
 930 559 930 559 955.5 575 c 128,-1,33
 981 591 981 591 998.5 609.5 c 128,-1,34
 1016 628 1016 628 1026 645 c 1,0,1
EndSplineSet
EndChar

StartChar: exclamdown
Encoding: 161 161 103
Width: 699
Flags: W
LayerCount: 2
Fore
SplineSet
268 733 m 1,0,1
 302 747 302 747 340 747 c 0,2,3
 365 747 365 747 381 742.5 c 128,-1,4
 397 738 397 738 405.5 728 c 128,-1,5
 414 718 414 718 417.5 702 c 128,-1,6
 421 686 421 686 422 663 c 2,7,-1
 457 7 l 2,8,9
 459 -46 459 -46 462.5 -95 c 128,-1,10
 466 -144 466 -144 469.5 -183.5 c 128,-1,11
 473 -223 473 -223 475.5 -250.5 c 128,-1,12
 478 -278 478 -278 478 -287 c 0,13,14
 478 -301 478 -301 465.5 -310.5 c 128,-1,15
 453 -320 453 -320 433.5 -326.5 c 128,-1,16
 414 -333 414 -333 390.5 -336 c 128,-1,17
 367 -339 367 -339 345 -339 c 0,18,19
 310 -339 310 -339 288 -331.5 c 128,-1,20
 266 -324 266 -324 253.5 -309.5 c 128,-1,21
 241 -295 241 -295 236.5 -272.5 c 128,-1,22
 232 -250 232 -250 232 -220 c 1,23,-1
 265 460 l 2,24,25
 267 514 267 514 268.5 572 c 128,-1,26
 270 630 270 630 270 683 c 0,27,28
 270 697 270 697 270 709.5 c 128,-1,29
 270 722 270 722 268 733 c 1,0,1
231 971 m 1,30,31
 220 988 220 988 215.5 1003.5 c 128,-1,32
 211 1019 211 1019 211 1035 c 0,33,34
 211 1070 211 1070 222.5 1095 c 128,-1,35
 234 1120 234 1120 252.5 1136 c 128,-1,36
 271 1152 271 1152 293.5 1159.5 c 128,-1,37
 316 1167 316 1167 338 1167 c 0,38,39
 378 1167 378 1167 406 1156 c 128,-1,40
 434 1145 434 1145 452 1126.5 c 128,-1,41
 470 1108 470 1108 478 1084.5 c 128,-1,42
 486 1061 486 1061 486 1037 c 0,43,44
 486 961 486 961 448.5 925.5 c 128,-1,45
 411 890 411 890 348 890 c 0,46,47
 302 890 302 890 272 911 c 128,-1,48
 242 932 242 932 231 971 c 1,30,31
EndSplineSet
EndChar

StartChar: cent
Encoding: 162 162 104
Width: 1206
Flags: W
LayerCount: 2
Fore
SplineSet
601 1064 m 1,0,1
 500 1024 500 1024 441 917.5 c 128,-1,2
 382 811 382 811 382 636 c 0,3,4
 382 554 382 554 398 488.5 c 128,-1,5
 414 423 414 423 442.5 373 c 128,-1,6
 471 323 471 323 511.5 288.5 c 128,-1,7
 552 254 552 254 601 235 c 1,8,-1
 601 1064 l 1,0,1
1077 312 m 1,9,10
 1056 256 1056 256 1019 216 c 128,-1,11
 982 176 982 176 934 149.5 c 128,-1,12
 886 123 886 123 829.5 108.5 c 128,-1,13
 773 94 773 94 713 90 c 1,14,-1
 713 -76 l 1,15,-1
 668 -76 l 2,16,17
 643 -76 643 -76 629.5 -71.5 c 128,-1,18
 616 -67 616 -67 609.5 -57.5 c 128,-1,19
 603 -48 603 -48 602 -33 c 128,-1,20
 601 -18 601 -18 601 2 c 2,21,-1
 601 92 l 1,22,23
 499 103 499 103 417.5 142.5 c 128,-1,24
 336 182 336 182 279.5 247 c 128,-1,25
 223 312 223 312 192.5 401.5 c 128,-1,26
 162 491 162 491 162 602 c 0,27,28
 162 721 162 721 194.5 816.5 c 128,-1,29
 227 912 227 912 285 983 c 128,-1,30
 343 1054 343 1054 423.5 1100.5 c 128,-1,31
 504 1147 504 1147 601 1168 c 1,32,-1
 601 1347 l 1,33,-1
 645 1347 l 2,34,35
 668 1347 668 1347 681.5 1343 c 128,-1,36
 695 1339 695 1339 702 1330.5 c 128,-1,37
 709 1322 709 1322 711 1308 c 128,-1,38
 713 1294 713 1294 713 1274 c 2,39,-1
 713 1184 l 1,40,41
 727 1186 727 1186 739 1186.5 c 128,-1,42
 751 1187 751 1187 762 1187 c 0,43,44
 772 1187 772 1187 796 1186 c 128,-1,45
 820 1185 820 1185 851 1182 c 128,-1,46
 882 1179 882 1179 916 1173.5 c 128,-1,47
 950 1168 950 1168 981 1159 c 128,-1,48
 1012 1150 1012 1150 1036.5 1137.5 c 128,-1,49
 1061 1125 1061 1125 1072 1108 c 1,50,51
 1072 1086 1072 1086 1069 1061 c 1,52,-1
 1020 885 l 1,53,-1
 920 906 l 1,54,55
 885 984 885 984 836.5 1024 c 128,-1,56
 788 1064 788 1064 713 1072 c 1,57,-1
 713 213 l 1,58,59
 801 213 801 213 870 247 c 128,-1,60
 939 281 939 281 999 350 c 1,61,-1
 1077 312 l 1,9,10
EndSplineSet
EndChar

StartChar: sterling
Encoding: 163 163 105
Width: 1218
Flags: W
LayerCount: 2
Fore
SplineSet
356 375 m 0,0,1
 356 450 356 450 352 530 c 128,-1,2
 348 610 348 610 340 698 c 1,3,-1
 131 698 l 1,4,-1
 131 748 l 2,5,6
 131 769 131 769 134 780.5 c 128,-1,7
 137 792 137 792 144.5 797.5 c 128,-1,8
 152 803 152 803 163.5 804 c 128,-1,9
 175 805 175 805 192 805 c 2,10,-1
 325 805 l 1,11,12
 313 877 313 877 303.5 950.5 c 128,-1,13
 294 1024 294 1024 294 1093 c 0,14,15
 294 1170 294 1170 314 1228 c 128,-1,16
 334 1286 334 1286 367.5 1328 c 128,-1,17
 401 1370 401 1370 445.5 1397 c 128,-1,18
 490 1424 490 1424 539.5 1440 c 128,-1,19
 589 1456 589 1456 640 1462 c 128,-1,20
 691 1468 691 1468 738 1468 c 0,21,22
 783 1468 783 1468 841.5 1463.5 c 128,-1,23
 900 1459 900 1459 956.5 1448 c 128,-1,24
 1013 1437 1013 1437 1059.5 1419.5 c 128,-1,25
 1106 1402 1106 1402 1126 1375 c 1,26,27
 1127 1321 1127 1321 1127.5 1264.5 c 128,-1,28
 1128 1208 1128 1208 1131 1151 c 1,29,-1
 1008 1130 l 1,30,31
 993 1185 993 1185 970 1225 c 128,-1,32
 947 1265 947 1265 913.5 1290.5 c 128,-1,33
 880 1316 880 1316 834 1328.5 c 128,-1,34
 788 1341 788 1341 728 1341 c 0,35,36
 616 1341 616 1341 560.5 1271 c 128,-1,37
 505 1201 505 1201 505 1078 c 0,38,39
 505 1048 505 1048 506.5 1016.5 c 128,-1,40
 508 985 508 985 512 955 c 2,41,-1
 530 805 l 1,42,-1
 867 805 l 1,43,-1
 867 756 l 2,44,45
 867 733 867 733 862.5 721 c 128,-1,46
 858 709 858 709 849 704 c 128,-1,47
 840 699 840 699 826.5 698.5 c 128,-1,48
 813 698 813 698 796 698 c 2,49,-1
 543 698 l 1,50,51
 547 650 547 650 549 609 c 128,-1,52
 551 568 551 568 551 529 c 0,53,54
 551 417 551 417 522 317.5 c 128,-1,55
 493 218 493 218 430 118 c 1,56,-1
 702 118 l 2,57,58
 779 118 779 118 834.5 121.5 c 128,-1,59
 890 125 890 125 933 145 c 128,-1,60
 976 165 976 165 1010 208.5 c 128,-1,61
 1044 252 1044 252 1079 333 c 1,62,-1
 1158 299 l 1,63,64
 1158 218 1158 218 1151.5 147 c 128,-1,65
 1145 76 1145 76 1132 10 c 1,66,67
 1069 1 1069 1 962 -3 c 128,-1,68
 855 -7 855 -7 699 -7 c 0,69,70
 630 -7 630 -7 552 -6.5 c 128,-1,71
 474 -6 474 -6 399 -5 c 128,-1,72
 324 -4 324 -4 258.5 -2.5 c 128,-1,73
 193 -1 193 -1 150 0 c 1,74,75
 118 14 118 14 109 35.5 c 128,-1,76
 100 57 100 57 100 92 c 1,77,78
 167 113 167 113 215.5 138 c 128,-1,79
 264 163 264 163 295.5 196 c 128,-1,80
 327 229 327 229 341.5 272.5 c 128,-1,81
 356 316 356 316 356 375 c 0,0,1
EndSplineSet
EndChar

StartChar: currency
Encoding: 164 164 106
Width: 1251
Flags: W
LayerCount: 2
Fore
SplineSet
989 1002 m 1,0,1
 1079 885 1079 885 1079 730 c 0,2,3
 1079 574 1079 574 988 462 c 1,4,-1
 1118 330 l 1,5,6
 1096 308 1096 308 1071.5 285 c 128,-1,7
 1047 262 1047 262 1024 252 c 1,8,9
 1011 257 1011 257 995 270.5 c 128,-1,10
 979 284 979 284 962 301 c 128,-1,11
 945 318 945 318 928.5 336 c 128,-1,12
 912 354 912 354 897 369 c 1,13,14
 839 327 839 327 769 303 c 128,-1,15
 699 279 699 279 624 279 c 256,16,17
 549 279 549 279 481.5 302.5 c 128,-1,18
 414 326 414 326 357 369 c 1,19,-1
 226 240 l 1,20,21
 204 261 204 261 180.5 284.5 c 128,-1,22
 157 308 157 308 146 328 c 1,23,24
 159 356 159 356 184 381 c 2,25,-1
 266 462 l 1,26,27
 176 576 176 576 176 731 c 256,28,29
 176 886 176 886 266 1000 c 1,30,-1
 133 1131 l 1,31,32
 156 1152 156 1152 179.5 1176 c 128,-1,33
 203 1200 203 1200 226 1210 c 1,34,35
 238 1203 238 1203 250.5 1194.5 c 128,-1,36
 263 1186 263 1186 276 1173 c 2,37,-1
 356 1093 l 1,38,39
 479 1184 479 1184 625 1184 c 0,40,41
 698 1184 698 1184 766 1160.5 c 128,-1,42
 834 1137 834 1137 895 1092 c 1,43,-1
 1027 1224 l 1,44,45
 1053 1198 1053 1198 1075 1173.5 c 128,-1,46
 1097 1149 1097 1149 1097 1121 c 0,47,48
 1097 1111 1097 1111 1096 1108 c 1,49,-1
 989 1002 l 1,0,1
308 731 m 0,50,51
 308 660 308 660 333 601 c 128,-1,52
 358 542 358 542 401.5 499 c 128,-1,53
 445 456 445 456 503 432 c 128,-1,54
 561 408 561 408 627 408 c 0,55,56
 695 408 695 408 753.5 433 c 128,-1,57
 812 458 812 458 855 501.5 c 128,-1,58
 898 545 898 545 922.5 604 c 128,-1,59
 947 663 947 663 947 731 c 0,60,61
 947 800 947 800 922.5 859 c 128,-1,62
 898 918 898 918 855 961.5 c 128,-1,63
 812 1005 812 1005 753.5 1030 c 128,-1,64
 695 1055 695 1055 627 1055 c 256,65,66
 559 1055 559 1055 501 1030.5 c 128,-1,67
 443 1006 443 1006 400 962.5 c 128,-1,68
 357 919 357 919 332.5 859.5 c 128,-1,69
 308 800 308 800 308 731 c 0,50,51
EndSplineSet
EndChar

StartChar: yen
Encoding: 165 165 107
Width: 1624
Flags: W
LayerCount: 2
Fore
SplineSet
1132 1197 m 0,0,1
 1149 1237 1149 1237 1160.5 1265.5 c 128,-1,2
 1172 1294 1172 1294 1176 1317 c 1,3,4
 1157 1325 1157 1325 1132.5 1326.5 c 128,-1,5
 1108 1328 1108 1328 1078 1328 c 2,6,-1
 1008 1328 l 1,7,-1
 1029 1430 l 1,8,9
 1096 1438 1096 1438 1166.5 1440.5 c 128,-1,10
 1237 1443 1237 1443 1321 1443 c 0,11,12
 1411 1443 1411 1443 1486.5 1441 c 128,-1,13
 1562 1439 1562 1439 1614 1428 c 1,14,-1
 1574 1328 l 1,15,-1
 1492 1328 l 2,16,17
 1463 1328 1463 1328 1436.5 1326.5 c 128,-1,18
 1410 1325 1410 1325 1384 1317 c 1,19,20
 1367 1294 1367 1294 1348.5 1265 c 128,-1,21
 1330 1236 1330 1236 1310 1197 c 2,22,23
 1310 1197 1310 1197 1291 1161 c 128,-1,24
 1272 1125 1272 1125 1239.5 1067.5 c 128,-1,25
 1207 1010 1207 1010 1165 937 c 128,-1,26
 1123 864 1123 864 1077 789 c 2,27,-1
 960 598 l 1,28,-1
 1186 598 l 1,29,-1
 1186 557 l 2,30,31
 1186 534 1186 534 1182 522 c 128,-1,32
 1178 510 1178 510 1170 504.5 c 128,-1,33
 1162 499 1162 499 1149.5 498 c 128,-1,34
 1137 497 1137 497 1120 497 c 2,35,-1
 911 497 l 1,36,-1
 911 389 l 1,37,-1
 1186 389 l 1,38,-1
 1186 349 l 2,39,40
 1186 326 1186 326 1182 314 c 128,-1,41
 1178 302 1178 302 1169.5 296.5 c 128,-1,42
 1161 291 1161 291 1148.5 290 c 128,-1,43
 1136 289 1136 289 1119 289 c 2,44,-1
 911 289 l 1,45,-1
 911 250 l 2,46,47
 911 208 911 208 915 178.5 c 128,-1,48
 919 149 919 149 926 126 c 1,49,50
 948 120 948 120 973.5 118.5 c 128,-1,51
 999 117 999 117 1028 117 c 2,52,-1
 1119 117 l 1,53,-1
 1119 -19 l 1,54,55
 1031 -8 1031 -8 954 -4 c 128,-1,56
 877 0 877 0 802 0 c 0,57,58
 721 0 721 0 644 -5 c 128,-1,59
 567 -10 567 -10 486 -19 c 1,60,-1
 486 117 l 1,61,-1
 575 117 l 2,62,63
 604 117 604 117 629.5 118 c 128,-1,64
 655 119 655 119 678 126 c 1,65,66
 693 171 693 171 693 247 c 2,67,-1
 693 289 l 1,68,-1
 426 289 l 1,69,-1
 426 356 l 1,70,71
 443 376 443 376 467 382.5 c 128,-1,72
 491 389 491 389 527 389 c 2,73,-1
 693 389 l 1,74,-1
 693 488 l 1,75,-1
 688 497 l 1,76,-1
 426 497 l 1,77,-1
 426 564 l 1,78,79
 444 584 444 584 469 591 c 128,-1,80
 494 598 494 598 531 598 c 2,81,-1
 633 598 l 1,82,-1
 283 1197 l 2,83,84
 260 1235 260 1235 247 1264.5 c 128,-1,85
 234 1294 234 1294 215 1317 c 1,86,87
 190 1325 190 1325 163.5 1326.5 c 128,-1,88
 137 1328 137 1328 108 1328 c 2,89,-1
 34 1328 l 1,90,-1
 10 1430 l 1,91,92
 73 1438 73 1438 143 1440.5 c 128,-1,93
 213 1443 213 1443 298 1443 c 0,94,95
 398 1443 398 1443 483.5 1441 c 128,-1,96
 569 1439 569 1439 638 1428 c 1,97,-1
 650 1328 l 1,98,-1
 579 1328 l 2,99,100
 549 1328 549 1328 524 1326.5 c 128,-1,101
 499 1325 499 1325 481 1317 c 1,102,103
 482 1305 482 1305 484.5 1295.5 c 128,-1,104
 487 1286 487 1286 491.5 1275.5 c 128,-1,105
 496 1265 496 1265 503 1252.5 c 128,-1,106
 510 1240 510 1240 521 1222 c 2,107,-1
 847 659 l 1,108,109
 875 707 875 707 905.5 762 c 128,-1,110
 936 817 936 817 965.5 872 c 128,-1,111
 995 927 995 927 1022.5 979.5 c 128,-1,112
 1050 1032 1050 1032 1072.5 1075.5 c 128,-1,113
 1095 1119 1095 1119 1110.5 1151 c 128,-1,114
 1126 1183 1126 1183 1132 1197 c 0,0,1
EndSplineSet
EndChar

StartChar: brokenbar
Encoding: 166 166 108
Width: 551
Flags: W
LayerCount: 2
Fore
SplineSet
343 732 m 1,0,-1
 285 732 l 2,1,2
 256 732 256 732 240.5 738 c 128,-1,3
 225 744 225 744 218 756 c 128,-1,4
 211 768 211 768 210 785.5 c 128,-1,5
 209 803 209 803 209 827 c 2,6,-1
 209 1535 l 1,7,-1
 265 1535 l 2,8,9
 299 1535 299 1535 317 1524 c 128,-1,10
 335 1513 335 1513 343 1488 c 1,11,-1
 343 732 l 1,0,-1
343 -447 m 1,12,-1
 285 -447 l 2,13,14
 256 -447 256 -447 240.5 -441 c 128,-1,15
 225 -435 225 -435 218 -423.5 c 128,-1,16
 211 -412 211 -412 210 -394.5 c 128,-1,17
 209 -377 209 -377 209 -353 c 2,18,-1
 209 354 l 1,19,-1
 265 354 l 2,20,21
 299 354 299 354 317 343.5 c 128,-1,22
 335 333 335 333 343 308 c 1,23,-1
 343 -447 l 1,12,-1
EndSplineSet
EndChar

StartChar: section
Encoding: 167 167 109
Width: 1063
Flags: W
LayerCount: 2
Fore
SplineSet
597 1518 m 0,0,1
 825 1518 825 1518 889 1442 c 1,2,3
 889 1420 889 1420 888 1398.5 c 128,-1,4
 887 1377 887 1377 883 1355 c 1,5,-1
 852 1235 l 1,6,-1
 760 1254 l 1,7,8
 746 1295 746 1295 730 1323 c 128,-1,9
 714 1351 714 1351 690.5 1368 c 128,-1,10
 667 1385 667 1385 633.5 1392.5 c 128,-1,11
 600 1400 600 1400 552 1400 c 0,12,13
 464 1400 464 1400 413.5 1361.5 c 128,-1,14
 363 1323 363 1323 363 1251 c 0,15,16
 363 1218 363 1218 374.5 1191.5 c 128,-1,17
 386 1165 386 1165 411.5 1141.5 c 128,-1,18
 437 1118 437 1118 478 1095.5 c 128,-1,19
 519 1073 519 1073 579 1049 c 1,20,21
 699 994 699 994 773.5 951 c 128,-1,22
 848 908 848 908 889.5 867.5 c 128,-1,23
 931 827 931 827 945 784.5 c 128,-1,24
 959 742 959 742 959 688 c 0,25,26
 959 601 959 601 920.5 529.5 c 128,-1,27
 882 458 882 458 801 419 c 1,28,29
 873 377 873 377 907 311.5 c 128,-1,30
 941 246 941 246 941 176 c 0,31,32
 941 99 941 99 911.5 40.5 c 128,-1,33
 882 -18 882 -18 829.5 -57.5 c 128,-1,34
 777 -97 777 -97 703 -117 c 128,-1,35
 629 -137 629 -137 541 -137 c 0,36,37
 499 -137 499 -137 443 -128 c 128,-1,38
 387 -119 387 -119 332 -103 c 128,-1,39
 277 -87 277 -87 231.5 -66.5 c 128,-1,40
 186 -46 186 -46 164 -23 c 1,41,42
 164 16 164 16 165 55.5 c 128,-1,43
 166 95 166 95 169 137 c 1,44,-1
 265 198 l 1,45,46
 284 138 284 138 310.5 96.5 c 128,-1,47
 337 55 337 55 372.5 29.5 c 128,-1,48
 408 4 408 4 454.5 -7 c 128,-1,49
 501 -18 501 -18 560 -18 c 0,50,51
 604 -18 604 -18 642.5 -8 c 128,-1,52
 681 2 681 2 709 22 c 128,-1,53
 737 42 737 42 753 72 c 128,-1,54
 769 102 769 102 769 141 c 0,55,56
 769 181 769 181 744.5 210.5 c 128,-1,57
 720 240 720 240 677.5 265.5 c 128,-1,58
 635 291 635 291 577.5 316.5 c 128,-1,59
 520 342 520 342 454 375 c 0,60,61
 389 407 389 407 335 440.5 c 128,-1,62
 281 474 281 474 242 514 c 128,-1,63
 203 554 203 554 181.5 603.5 c 128,-1,64
 160 653 160 653 160 717 c 0,65,66
 160 811 160 811 200.5 871.5 c 128,-1,67
 241 932 241 932 326 971 c 1,68,69
 257 1022 257 1022 226 1080 c 128,-1,70
 195 1138 195 1138 195 1216 c 0,71,72
 195 1285 195 1285 221 1341 c 128,-1,73
 247 1397 247 1397 298 1436 c 128,-1,74
 349 1475 349 1475 424 1496.5 c 128,-1,75
 499 1518 499 1518 597 1518 c 0,0,1
670 483 m 1,76,77
 733 515 733 515 764 557.5 c 128,-1,78
 795 600 795 600 795 648 c 0,79,80
 795 685 795 685 766 719 c 128,-1,81
 737 753 737 753 688 784.5 c 128,-1,82
 639 816 639 816 575.5 846 c 128,-1,83
 512 876 512 876 443 906 c 1,84,85
 325 845 325 845 325 744 c 0,86,87
 325 697 325 697 352 661.5 c 128,-1,88
 379 626 379 626 449 589 c 0,89,90
 500 561 500 561 556.5 535 c 128,-1,91
 613 509 613 509 670 483 c 1,76,77
EndSplineSet
EndChar

StartChar: dieresis
Encoding: 168 168 110
Width: 877
Flags: W
LayerCount: 2
Fore
SplineSet
511 1517 m 1,0,1
 549 1508 549 1508 566.5 1482 c 128,-1,2
 584 1456 584 1456 584 1421 c 0,3,4
 584 1361 584 1361 553.5 1330.5 c 128,-1,5
 523 1300 523 1300 469 1300 c 0,6,7
 452 1300 452 1300 439 1303 c 1,8,9
 424 1300 424 1300 408 1300 c 0,10,11
 351 1300 351 1300 321 1333 c 128,-1,12
 291 1366 291 1366 291 1415 c 0,13,14
 291 1475 291 1475 321 1505.5 c 128,-1,15
 351 1536 351 1536 399 1536 c 0,16,17
 416 1536 416 1536 427 1532 c 1,18,19
 439 1536 439 1536 456 1536 c 0,20,21
 479 1536 479 1536 491 1530.5 c 128,-1,22
 503 1525 503 1525 511 1517 c 1,0,1
EndSplineSet
EndChar

StartChar: copyright
Encoding: 169 169 111
Width: 1774
Flags: W
LayerCount: 2
Fore
SplineSet
1176 347 m 1,0,1
 1125 316 1125 316 1051 299 c 128,-1,2
 977 282 977 282 895 282 c 0,3,4
 802 282 802 282 724 310.5 c 128,-1,5
 646 339 646 339 589.5 393 c 128,-1,6
 533 447 533 447 501.5 525.5 c 128,-1,7
 470 604 470 604 470 705 c 0,8,9
 470 813 470 813 503 896 c 128,-1,10
 536 979 536 979 594.5 1036 c 128,-1,11
 653 1093 653 1093 733 1122.5 c 128,-1,12
 813 1152 813 1152 907 1152 c 0,13,14
 988 1152 988 1152 1059 1131 c 128,-1,15
 1130 1110 1130 1110 1173 1071 c 1,16,-1
 1160 911 l 1,17,-1
 1103 911 l 1,18,19
 1065 989 1065 989 1014 1025.5 c 128,-1,20
 963 1062 963 1062 890 1062 c 0,21,22
 836 1062 836 1062 791 1039 c 128,-1,23
 746 1016 746 1016 713 975 c 128,-1,24
 680 934 680 934 662 876 c 128,-1,25
 644 818 644 818 644 749 c 0,26,27
 644 651 644 651 665.5 580.5 c 128,-1,28
 687 510 687 510 723.5 465 c 128,-1,29
 760 420 760 420 809 399 c 128,-1,30
 858 378 858 378 914 378 c 0,31,32
 987 378 987 378 1048.5 395.5 c 128,-1,33
 1110 413 1110 413 1165 450 c 1,34,-1
 1176 347 l 1,0,1
113 720 m 256,35,36
 113 827 113 827 140.5 925.5 c 128,-1,37
 168 1024 168 1024 218.5 1110 c 128,-1,38
 269 1196 269 1196 340 1267 c 128,-1,39
 411 1338 411 1338 497 1388.5 c 128,-1,40
 583 1439 583 1439 681.5 1466.5 c 128,-1,41
 780 1494 780 1494 887 1494 c 256,42,43
 994 1494 994 1494 1092.5 1466.5 c 128,-1,44
 1191 1439 1191 1439 1277 1388.5 c 128,-1,45
 1363 1338 1363 1338 1434 1267 c 128,-1,46
 1505 1196 1505 1196 1555.5 1110 c 128,-1,47
 1606 1024 1606 1024 1633.5 925.5 c 128,-1,48
 1661 827 1661 827 1661 720 c 256,49,50
 1661 613 1661 613 1633.5 514.5 c 128,-1,51
 1606 416 1606 416 1555.5 330 c 128,-1,52
 1505 244 1505 244 1434 173 c 128,-1,53
 1363 102 1363 102 1277 51.5 c 128,-1,54
 1191 1 1191 1 1092.5 -26.5 c 128,-1,55
 994 -54 994 -54 887 -54 c 256,56,57
 780 -54 780 -54 681.5 -26.5 c 128,-1,58
 583 1 583 1 497 51.5 c 128,-1,59
 411 102 411 102 340 173 c 128,-1,60
 269 244 269 244 218.5 330 c 128,-1,61
 168 416 168 416 140.5 514.5 c 128,-1,62
 113 613 113 613 113 720 c 256,35,36
225 720 m 256,63,64
 225 583 225 583 277 462.5 c 128,-1,65
 329 342 329 342 419 252 c 128,-1,66
 509 162 509 162 629.5 110 c 128,-1,67
 750 58 750 58 887 58 c 256,68,69
 1024 58 1024 58 1144.5 110 c 128,-1,70
 1265 162 1265 162 1355 252 c 128,-1,71
 1445 342 1445 342 1497 462.5 c 128,-1,72
 1549 583 1549 583 1549 720 c 256,73,74
 1549 857 1549 857 1497 977.5 c 128,-1,75
 1445 1098 1445 1098 1355 1188 c 128,-1,76
 1265 1278 1265 1278 1144.5 1330 c 128,-1,77
 1024 1382 1024 1382 887 1382 c 256,78,79
 750 1382 750 1382 629.5 1330 c 128,-1,80
 509 1278 509 1278 419 1188 c 128,-1,81
 329 1098 329 1098 277 977.5 c 128,-1,82
 225 857 225 857 225 720 c 256,63,64
EndSplineSet
EndChar

StartChar: ordfeminine
Encoding: 170 170 112
Width: 793
Flags: W
LayerCount: 2
Fore
SplineSet
759 826 m 1,0,1
 724 817 724 817 683.5 813 c 128,-1,2
 643 809 643 809 594 809 c 0,3,4
 522 809 522 809 510 845 c 1,5,-1
 510 896 l 1,6,-1
 507 896 l 1,7,8
 463 854 463 854 411 826 c 128,-1,9
 359 798 359 798 287 798 c 0,10,11
 239 798 239 798 199 810 c 128,-1,12
 159 822 159 822 131 845.5 c 128,-1,13
 103 869 103 869 87.5 904 c 128,-1,14
 72 939 72 939 72 985 c 0,15,16
 72 1088 72 1088 154.5 1140 c 128,-1,17
 237 1192 237 1192 414 1192 c 2,18,-1
 507 1192 l 1,19,-1
 507 1248 l 2,20,21
 507 1295 507 1295 499 1327 c 128,-1,22
 491 1359 491 1359 476 1378.5 c 128,-1,23
 461 1398 461 1398 439.5 1406.5 c 128,-1,24
 418 1415 418 1415 391 1415 c 0,25,26
 355 1415 355 1415 326.5 1406 c 128,-1,27
 298 1397 298 1397 274 1380.5 c 128,-1,28
 250 1364 250 1364 228.5 1340.5 c 128,-1,29
 207 1317 207 1317 185 1287 c 1,30,-1
 116 1327 l 1,31,32
 104 1331 104 1331 91 1344 c 1,33,34
 91 1368 91 1368 110 1392.5 c 128,-1,35
 129 1417 129 1417 164 1437.5 c 128,-1,36
 199 1458 199 1458 249 1470.5 c 128,-1,37
 299 1483 299 1483 362 1483 c 0,38,39
 449 1483 449 1483 505 1464 c 128,-1,40
 561 1445 561 1445 593.5 1412.5 c 128,-1,41
 626 1380 626 1380 639 1336.5 c 128,-1,42
 652 1293 652 1293 652 1244 c 0,43,44
 652 1187 652 1187 651.5 1131 c 128,-1,45
 651 1075 651 1075 651 1024 c 0,46,47
 651 982 651 982 651.5 949 c 128,-1,48
 652 916 652 916 656 890 c 1,49,50
 676 884 676 884 700.5 882.5 c 128,-1,51
 725 881 725 881 759 881 c 1,52,-1
 759 826 l 1,0,1
496 956 m 1,53,54
 502 998 502 998 504.5 1036 c 128,-1,55
 507 1074 507 1074 507 1119 c 1,56,-1
 407 1119 l 2,57,58
 314 1119 314 1119 266 1087.5 c 128,-1,59
 218 1056 218 1056 218 992 c 0,60,61
 218 949 218 949 248.5 921.5 c 128,-1,62
 279 894 279 894 331 894 c 0,63,64
 371 894 371 894 414 912 c 128,-1,65
 457 930 457 930 496 956 c 1,53,54
EndSplineSet
EndChar

StartChar: guillemotleft
Encoding: 171 171 113
Width: 1028
Flags: W
LayerCount: 2
Fore
SplineSet
482 531 m 1,0,1
 484 551 484 551 494.5 571.5 c 128,-1,2
 505 592 505 592 519 612 c 2,3,-1
 741 928 l 2,4,5
 751 942 751 942 760 951 c 128,-1,6
 769 960 769 960 777 968 c 1,7,8
 791 969 791 969 804.5 964 c 128,-1,9
 818 959 818 959 842 948 c 2,10,-1
 895 925 l 1,11,-1
 662 548 l 1,12,-1
 882 171 l 1,13,14
 848 144 848 144 831 133 c 128,-1,15
 814 122 814 122 797 122 c 0,16,17
 786 122 786 122 775.5 124 c 128,-1,18
 765 126 765 126 754 134 c 1,19,-1
 482 531 l 1,0,1
133 531 m 1,20,21
 138 550 138 550 147 570.5 c 128,-1,22
 156 591 156 591 171 612 c 2,23,-1
 421 962 l 2,24,25
 431 976 431 976 440.5 985.5 c 128,-1,26
 450 995 450 995 458 1003 c 1,27,28
 471 1003 471 1003 485.5 998.5 c 128,-1,29
 500 994 500 994 521 981 c 1,30,-1
 574 959 l 1,31,-1
 313 548 l 1,32,-1
 561 138 l 1,33,34
 527 112 527 112 509.5 100.5 c 128,-1,35
 492 89 492 89 477 89 c 0,36,37
 455 89 455 89 434 101 c 1,38,-1
 133 531 l 1,20,21
EndSplineSet
EndChar

StartChar: logicalnot
Encoding: 172 172 114
Width: 1257
Flags: W
LayerCount: 2
Fore
SplineSet
980 685 m 1,0,-1
 133 685 l 1,1,-1
 133 752 l 2,2,3
 133 782 133 782 140 798 c 128,-1,4
 147 814 147 814 159.5 820.5 c 128,-1,5
 172 827 172 827 191 828 c 128,-1,6
 210 829 210 829 234 829 c 2,7,-1
 1124 829 l 1,8,-1
 1124 255 l 1,9,-1
 1056 255 l 2,10,11
 1023 255 1023 255 1005 265.5 c 128,-1,12
 987 276 987 276 980 301 c 1,13,-1
 980 685 l 1,0,-1
EndSplineSet
EndChar

StartChar: uni00AD
Encoding: 173 173 115
Width: 898
Flags: W
LayerCount: 2
Fore
SplineSet
170 473 m 1,0,-1
 170 561 l 2,1,2
 170 583 170 583 175.5 595 c 128,-1,3
 181 607 181 607 191.5 613 c 128,-1,4
 202 619 202 619 216.5 620.5 c 128,-1,5
 231 622 231 622 250 622 c 2,6,-1
 728 622 l 1,7,-1
 728 537 l 2,8,9
 728 507 728 507 717 492.5 c 128,-1,10
 706 478 706 478 682 473 c 1,11,-1
 170 473 l 1,0,-1
EndSplineSet
EndChar

StartChar: registered
Encoding: 174 174 116
Width: 1774
Flags: W
LayerCount: 2
Fore
SplineSet
113 720 m 256,0,1
 113 827 113 827 140.5 925.5 c 128,-1,2
 168 1024 168 1024 218.5 1110 c 128,-1,3
 269 1196 269 1196 340 1267 c 128,-1,4
 411 1338 411 1338 497 1388.5 c 128,-1,5
 583 1439 583 1439 681.5 1466.5 c 128,-1,6
 780 1494 780 1494 887 1494 c 256,7,8
 994 1494 994 1494 1092.5 1466.5 c 128,-1,9
 1191 1439 1191 1439 1277 1388.5 c 128,-1,10
 1363 1338 1363 1338 1434 1267 c 128,-1,11
 1505 1196 1505 1196 1555.5 1110 c 128,-1,12
 1606 1024 1606 1024 1633.5 925.5 c 128,-1,13
 1661 827 1661 827 1661 720 c 256,14,15
 1661 613 1661 613 1633.5 514.5 c 128,-1,16
 1606 416 1606 416 1555.5 330 c 128,-1,17
 1505 244 1505 244 1434 173 c 128,-1,18
 1363 102 1363 102 1277 51.5 c 128,-1,19
 1191 1 1191 1 1092.5 -26.5 c 128,-1,20
 994 -54 994 -54 887 -54 c 256,21,22
 780 -54 780 -54 681.5 -26.5 c 128,-1,23
 583 1 583 1 497 51.5 c 128,-1,24
 411 102 411 102 340 173 c 128,-1,25
 269 244 269 244 218.5 330 c 128,-1,26
 168 416 168 416 140.5 514.5 c 128,-1,27
 113 613 113 613 113 720 c 256,0,1
225 720 m 256,28,29
 225 583 225 583 277 462.5 c 128,-1,30
 329 342 329 342 419 252 c 128,-1,31
 509 162 509 162 629.5 110 c 128,-1,32
 750 58 750 58 887 58 c 256,33,34
 1024 58 1024 58 1144.5 110 c 128,-1,35
 1265 162 1265 162 1355 252 c 128,-1,36
 1445 342 1445 342 1497 462.5 c 128,-1,37
 1549 583 1549 583 1549 720 c 256,38,39
 1549 857 1549 857 1497 977.5 c 128,-1,40
 1445 1098 1445 1098 1355 1188 c 128,-1,41
 1265 1278 1265 1278 1144.5 1330 c 128,-1,42
 1024 1382 1024 1382 887 1382 c 256,43,44
 750 1382 750 1382 629.5 1330 c 128,-1,45
 509 1278 509 1278 419 1188 c 128,-1,46
 329 1098 329 1098 277 977.5 c 128,-1,47
 225 857 225 857 225 720 c 256,28,29
633 981 m 2,48,49
 633 1021 633 1021 624 1044 c 1,50,51
 604 1048 604 1048 576 1048 c 2,52,-1
 501 1046 l 1,53,-1
 501 1106 l 1,54,55
 524 1108 524 1108 557 1114.5 c 128,-1,56
 590 1121 590 1121 648 1126 c 0,57,58
 699 1130 699 1130 751 1130.5 c 128,-1,59
 803 1131 803 1131 857 1131 c 0,60,61
 944 1131 944 1131 1011 1118.5 c 128,-1,62
 1078 1106 1078 1106 1123.5 1077 c 128,-1,63
 1169 1048 1169 1048 1192 1001.5 c 128,-1,64
 1215 955 1215 955 1215 888 c 0,65,66
 1215 840 1215 840 1199.5 801.5 c 128,-1,67
 1184 763 1184 763 1157 733.5 c 128,-1,68
 1130 704 1130 704 1093 683 c 128,-1,69
 1056 662 1056 662 1014 650 c 1,70,71
 1042 641 1042 641 1068 621.5 c 128,-1,72
 1094 602 1094 602 1116 578 c 128,-1,73
 1138 554 1138 554 1155.5 527.5 c 128,-1,74
 1173 501 1173 501 1184 478 c 2,75,-1
 1221 407 l 2,76,77
 1231 388 1231 388 1239.5 372 c 128,-1,78
 1248 356 1248 356 1260 356 c 0,79,80
 1261 356 1261 356 1263 356.5 c 128,-1,81
 1265 357 1265 357 1272.5 360.5 c 128,-1,82
 1280 364 1280 364 1295.5 371.5 c 128,-1,83
 1311 379 1311 379 1338 393 c 1,84,-1
 1354 347 l 1,85,86
 1320 319 1320 319 1279.5 297.5 c 128,-1,87
 1239 276 1239 276 1203 276 c 0,88,89
 1191 276 1191 276 1177 277 c 128,-1,90
 1163 278 1163 278 1149.5 283 c 128,-1,91
 1136 288 1136 288 1124 299 c 128,-1,92
 1112 310 1112 310 1104 330 c 0,93,94
 1065 425 1065 425 1021 500.5 c 128,-1,95
 977 576 977 576 921 644 c 1,96,97
 885 644 885 644 849 644.5 c 128,-1,98
 813 645 813 645 778 647 c 1,99,-1
 778 437 l 2,100,101
 778 413 778 413 780.5 396.5 c 128,-1,102
 783 380 783 380 787 366 c 1,103,104
 800 362 800 362 814.5 361 c 128,-1,105
 829 360 829 360 846 360 c 2,106,-1
 898 360 l 1,107,-1
 898 282 l 1,108,109
 841 288 841 288 792.5 290.5 c 128,-1,110
 744 293 744 293 696 293 c 256,111,112
 648 293 648 293 604.5 290 c 128,-1,113
 561 287 561 287 513 282 c 1,114,-1
 513 360 l 1,115,-1
 565 360 l 2,116,117
 582 360 582 360 596.5 360.5 c 128,-1,118
 611 361 611 361 624 366 c 1,119,120
 633 391 633 391 633 435 c 2,121,-1
 633 981 l 2,48,49
868 1053 m 0,122,123
 818 1053 818 1053 778 1050 c 1,124,-1
 778 714 l 1,125,126
 801 713 801 713 826.5 712.5 c 128,-1,127
 852 712 852 712 882 712 c 0,128,129
 978 712 978 712 1021.5 756.5 c 128,-1,130
 1065 801 1065 801 1065 883 c 0,131,132
 1065 931 1065 931 1054 963.5 c 128,-1,133
 1043 996 1043 996 1019.5 1016 c 128,-1,134
 996 1036 996 1036 958.5 1044.5 c 128,-1,135
 921 1053 921 1053 868 1053 c 0,122,123
EndSplineSet
EndChar

StartChar: macron
Encoding: 175 175 117
Width: 591
Flags: W
LayerCount: 2
Fore
SplineSet
2 1421 m 1,0,-1
 589 1421 l 1,1,-1
 589 1298 l 1,2,-1
 2 1298 l 1,3,-1
 2 1421 l 1,0,-1
EndSplineSet
EndChar

StartChar: degree
Encoding: 176 176 118
Width: 839
Flags: W
LayerCount: 2
Fore
SplineSet
98 1126 m 0,0,1
 98 1193 98 1193 123 1251.5 c 128,-1,2
 148 1310 148 1310 191.5 1353.5 c 128,-1,3
 235 1397 235 1397 293 1422 c 128,-1,4
 351 1447 351 1447 417 1447 c 0,5,6
 484 1447 484 1447 543 1421.5 c 128,-1,7
 602 1396 602 1396 645.5 1352.5 c 128,-1,8
 689 1309 689 1309 714 1250.5 c 128,-1,9
 739 1192 739 1192 739 1126 c 256,10,11
 739 1060 739 1060 714 1001.5 c 128,-1,12
 689 943 689 943 645.5 899.5 c 128,-1,13
 602 856 602 856 543 830.5 c 128,-1,14
 484 805 484 805 417 805 c 0,15,16
 351 805 351 805 293 830.5 c 128,-1,17
 235 856 235 856 191.5 899.5 c 128,-1,18
 148 943 148 943 123 1001.5 c 128,-1,19
 98 1060 98 1060 98 1126 c 0,0,1
208 1126 m 0,20,21
 208 1082 208 1082 225 1043.5 c 128,-1,22
 242 1005 242 1005 271 976.5 c 128,-1,23
 300 948 300 948 338 932 c 128,-1,24
 376 916 376 916 417 916 c 0,25,26
 460 916 460 916 498.5 932.5 c 128,-1,27
 537 949 537 949 565.5 977.5 c 128,-1,28
 594 1006 594 1006 610.5 1044 c 128,-1,29
 627 1082 627 1082 627 1126 c 0,30,31
 627 1169 627 1169 610.5 1207 c 128,-1,32
 594 1245 594 1245 565.5 1274 c 128,-1,33
 537 1303 537 1303 498.5 1320 c 128,-1,34
 460 1337 460 1337 417 1337 c 256,35,36
 374 1337 374 1337 336 1320 c 128,-1,37
 298 1303 298 1303 269.5 1274 c 128,-1,38
 241 1245 241 1245 224.5 1207 c 128,-1,39
 208 1169 208 1169 208 1126 c 0,20,21
EndSplineSet
EndChar

StartChar: plusminus
Encoding: 177 177 119
Width: 1257
Flags: W
LayerCount: 2
Fore
SplineSet
701 673 m 1,0,-1
 701 299 l 1,1,-1
 632 299 l 2,2,3
 606 299 606 299 590.5 302.5 c 128,-1,4
 575 306 575 306 567.5 315 c 128,-1,5
 560 324 560 324 558 339 c 128,-1,6
 556 354 556 354 556 378 c 2,7,-1
 556 673 l 1,8,-1
 133 673 l 1,9,-1
 133 740 l 2,10,11
 133 767 133 767 137 782 c 128,-1,12
 141 797 141 797 150.5 804.5 c 128,-1,13
 160 812 160 812 176 814 c 128,-1,14
 192 816 192 816 215 816 c 2,15,-1
 556 816 l 1,16,-1
 556 1191 l 1,17,-1
 623 1191 l 2,18,19
 648 1191 648 1191 663.5 1188 c 128,-1,20
 679 1185 679 1185 687 1176 c 128,-1,21
 695 1167 695 1167 698 1151.5 c 128,-1,22
 701 1136 701 1136 701 1111 c 2,23,-1
 701 816 l 1,24,-1
 1124 816 l 1,25,-1
 1124 750 l 2,26,27
 1124 716 1124 716 1113 698.5 c 128,-1,28
 1102 681 1102 681 1076 673 c 1,29,-1
 701 673 l 1,0,-1
133 35 m 1,30,-1
 133 103 l 2,31,32
 133 128 133 128 136 143 c 128,-1,33
 139 158 139 158 148 166 c 128,-1,34
 157 174 157 174 172.5 176.5 c 128,-1,35
 188 179 188 179 213 179 c 2,36,-1
 1124 179 l 1,37,-1
 1124 112 l 2,38,39
 1124 78 1124 78 1113 60.5 c 128,-1,40
 1102 43 1102 43 1076 35 c 1,41,-1
 133 35 l 1,30,-1
EndSplineSet
EndChar

StartChar: twosuperior
Encoding: 178 178 120
Width: 891
Flags: W
LayerCount: 2
Fore
SplineSet
397 692 m 1,0,1
 436 693 436 693 480 695 c 128,-1,2
 524 697 524 697 566.5 704.5 c 128,-1,3
 609 712 609 712 646.5 729.5 c 128,-1,4
 684 747 684 747 709 780 c 1,5,6
 720 780 720 780 730.5 780 c 128,-1,7
 741 780 741 780 752 779 c 1,8,9
 752 741 752 741 757 707.5 c 128,-1,10
 762 674 762 674 762 647 c 0,11,12
 762 619 762 619 749.5 604.5 c 128,-1,13
 737 590 737 590 715 583.5 c 128,-1,14
 693 577 693 577 662.5 576 c 128,-1,15
 632 575 632 575 596 575 c 2,16,-1
 466 575 l 2,17,18
 423 575 423 575 383 574.5 c 128,-1,19
 343 574 343 574 305 574 c 2,20,-1
 217 574 l 1,21,22
 168 585 168 585 143 602.5 c 128,-1,23
 118 620 118 620 118 654 c 1,24,25
 209 742 209 742 268.5 800 c 128,-1,26
 328 858 328 858 368.5 899.5 c 128,-1,27
 409 941 409 941 436 971 c 128,-1,28
 463 1001 463 1001 488 1033 c 1,29,30
 540 1096 540 1096 559 1141.5 c 128,-1,31
 578 1187 578 1187 578 1228 c 0,32,33
 578 1257 578 1257 569 1282.5 c 128,-1,34
 560 1308 560 1308 541.5 1327.5 c 128,-1,35
 523 1347 523 1347 495.5 1358 c 128,-1,36
 468 1369 468 1369 431 1369 c 0,37,38
 390 1369 390 1369 356 1348.5 c 128,-1,39
 322 1328 322 1328 298 1302 c 128,-1,40
 274 1276 274 1276 260.5 1251.5 c 128,-1,41
 247 1227 247 1227 247 1219 c 1,42,-1
 166 1271 l 2,43,44
 158 1275 158 1275 151.5 1278.5 c 128,-1,45
 145 1282 145 1282 138 1287 c 1,46,47
 138 1317 138 1317 158 1349.5 c 128,-1,48
 178 1382 178 1382 216 1408 c 128,-1,49
 254 1434 254 1434 308 1451 c 128,-1,50
 362 1468 362 1468 431 1468 c 0,51,52
 515 1468 515 1468 575.5 1449.5 c 128,-1,53
 636 1431 636 1431 675 1399.5 c 128,-1,54
 714 1368 714 1368 732 1327 c 128,-1,55
 750 1286 750 1286 750 1240 c 0,56,57
 750 1204 750 1204 741 1170 c 128,-1,58
 732 1136 732 1136 710.5 1099.5 c 128,-1,59
 689 1063 689 1063 655 1022.5 c 128,-1,60
 621 982 621 982 571 933.5 c 128,-1,61
 521 885 521 885 454 826 c 128,-1,62
 387 767 387 767 301 694 c 1,63,-1
 301 692 l 1,64,-1
 397 692 l 1,0,1
EndSplineSet
EndChar

StartChar: threesuperior
Encoding: 179 179 121
Width: 875
Flags: W
LayerCount: 2
Fore
SplineSet
601 818 m 0,0,1
 601 862 601 862 586 892 c 128,-1,2
 571 922 571 922 543 941 c 128,-1,3
 515 960 515 960 476.5 968 c 128,-1,4
 438 976 438 976 390 976 c 2,5,-1
 311 976 l 1,6,-1
 311 1039 l 2,7,8
 311 1060 311 1060 316 1078 c 1,9,10
 363 1098 363 1098 404 1119.5 c 128,-1,11
 445 1141 445 1141 476.5 1168.5 c 128,-1,12
 508 1196 508 1196 527.5 1231 c 128,-1,13
 547 1266 547 1266 551 1312 c 1,14,15
 536 1336 536 1336 502.5 1351 c 128,-1,16
 469 1366 469 1366 421 1366 c 0,17,18
 382 1366 382 1366 351 1355.5 c 128,-1,19
 320 1345 320 1345 296.5 1328.5 c 128,-1,20
 273 1312 273 1312 257 1292 c 128,-1,21
 241 1272 241 1272 233 1253 c 1,22,23
 221 1255 221 1255 208 1258.5 c 128,-1,24
 195 1262 195 1262 181 1267 c 1,25,26
 161 1292 161 1292 148.5 1307 c 128,-1,27
 136 1322 136 1322 131 1326 c 1,28,29
 131 1351 131 1351 146.5 1376.5 c 128,-1,30
 162 1402 162 1402 197 1422 c 128,-1,31
 232 1442 232 1442 287.5 1455 c 128,-1,32
 343 1468 343 1468 423 1468 c 0,33,34
 507 1468 507 1468 563 1461 c 128,-1,35
 619 1454 619 1454 652.5 1439 c 128,-1,36
 686 1424 686 1424 700 1399.5 c 128,-1,37
 714 1375 714 1375 714 1339 c 0,38,39
 714 1282 714 1282 688 1231 c 128,-1,40
 662 1180 662 1180 614 1133 c 0,41,42
 600 1119 600 1119 582 1105 c 128,-1,43
 564 1091 564 1091 547.5 1079.5 c 128,-1,44
 531 1068 531 1068 519 1060.5 c 128,-1,45
 507 1053 507 1053 505 1053 c 1,46,47
 634 1040 634 1040 700.5 980 c 128,-1,48
 767 920 767 920 767 808 c 0,49,50
 767 748 767 748 741.5 700.5 c 128,-1,51
 716 653 716 653 670.5 620.5 c 128,-1,52
 625 588 625 588 562.5 571 c 128,-1,53
 500 554 500 554 427 554 c 0,54,55
 343 554 343 554 285 568 c 128,-1,56
 227 582 227 582 191 602.5 c 128,-1,57
 155 623 155 623 138.5 646.5 c 128,-1,58
 122 670 122 670 122 690 c 0,59,60
 122 713 122 713 130.5 742 c 128,-1,61
 139 771 139 771 147 797 c 1,62,-1
 247 772 l 1,63,64
 263 749 263 749 280.5 728.5 c 128,-1,65
 298 708 298 708 319 692.5 c 128,-1,66
 340 677 340 677 365 668 c 128,-1,67
 390 659 390 659 421 659 c 0,68,69
 464 659 464 659 498 671 c 128,-1,70
 532 683 532 683 554.5 704.5 c 128,-1,71
 577 726 577 726 589 755 c 128,-1,72
 601 784 601 784 601 818 c 0,0,1
EndSplineSet
EndChar

StartChar: acute
Encoding: 180 180 122
Width: 1225
Flags: W
LayerCount: 2
Fore
SplineSet
408 1264 m 2,0,1
 392 1264 392 1264 391 1265 c 1,2,-1
 461 1385 l 2,3,4
 490 1436 490 1436 522 1490.5 c 128,-1,5
 554 1545 554 1545 580 1587 c 1,6,-1
 831 1587 l 1,7,8
 831 1587 831 1587 822.5 1576.5 c 128,-1,9
 814 1566 814 1566 801 1552 c 128,-1,10
 788 1538 788 1538 774 1521.5 c 128,-1,11
 760 1505 760 1505 748 1493 c 2,12,-1
 528 1264 l 1,13,-1
 408 1264 l 2,0,1
EndSplineSet
EndChar

StartChar: mu
Encoding: 181 181 123
Width: 1521
Flags: W
LayerCount: 2
Fore
SplineSet
1045 834 m 2,0,1
 1045 891 1045 891 1033 930 c 1,2,3
 1016 936 1016 936 995 938.5 c 128,-1,4
 974 941 974 941 951 941 c 2,5,-1
 868 941 l 1,6,-1
 868 1027 l 1,7,8
 934 1041 934 1041 1024 1047.5 c 128,-1,9
 1114 1054 1114 1054 1225 1054 c 0,10,11
 1232 1054 1232 1054 1238 1054 c 128,-1,12
 1244 1054 1244 1054 1250 1052 c 1,13,14
 1255 1039 1255 1039 1256 1024 c 128,-1,15
 1257 1009 1257 1009 1257 991 c 2,16,-1
 1257 269 l 2,17,18
 1257 212 1257 212 1262.5 172 c 128,-1,19
 1268 132 1268 132 1280 102 c 1,20,21
 1299 100 1299 100 1320 99 c 128,-1,22
 1341 98 1341 98 1364 98 c 2,23,-1
 1435 98 l 1,24,-1
 1435 15 l 1,25,26
 1326 -11 1326 -11 1171 -11 c 0,27,28
 1133 -11 1133 -11 1105.5 -8.5 c 128,-1,29
 1078 -6 1078 -6 1061 3 c 128,-1,30
 1044 12 1044 12 1036 30.5 c 128,-1,31
 1028 49 1028 49 1028 81 c 2,32,-1
 1028 115 l 1,33,-1
 1026 115 l 1,34,35
 989 89 989 89 949.5 63.5 c 128,-1,36
 910 38 910 38 868 18 c 128,-1,37
 826 -2 826 -2 781.5 -14.5 c 128,-1,38
 737 -27 737 -27 691 -27 c 0,39,40
 661 -27 661 -27 629.5 -21 c 128,-1,41
 598 -15 598 -15 566 -1 c 1,42,-1
 566 -120 l 2,43,44
 566 -185 566 -185 579 -231 c 1,45,46
 596 -243 596 -243 618.5 -250 c 128,-1,47
 641 -257 641 -257 668 -257 c 1,48,-1
 667 -340 l 1,49,50
 630 -353 630 -353 581 -358.5 c 128,-1,51
 532 -364 532 -364 472 -364 c 0,52,53
 450 -364 450 -364 427.5 -360.5 c 128,-1,54
 405 -357 405 -357 387 -347.5 c 128,-1,55
 369 -338 369 -338 357.5 -321.5 c 128,-1,56
 346 -305 346 -305 346 -278 c 0,57,58
 346 -229 346 -229 349.5 -181 c 128,-1,59
 353 -133 353 -133 353 -70 c 2,60,-1
 353 834 l 2,61,62
 353 863 353 863 350 886.5 c 128,-1,63
 347 910 347 910 342 930 c 1,64,65
 324 936 324 936 303 938.5 c 128,-1,66
 282 941 282 941 259 941 c 2,67,-1
 176 941 l 1,68,-1
 176 1027 l 1,69,70
 242 1041 242 1041 332 1047.5 c 128,-1,71
 422 1054 422 1054 533 1054 c 0,72,73
 540 1054 540 1054 546 1054 c 128,-1,74
 552 1054 552 1054 558 1052 c 1,75,76
 563 1039 563 1039 564 1024 c 128,-1,77
 565 1009 565 1009 565 991 c 2,78,-1
 565 680 l 1,79,-1
 566 679 l 1,80,-1
 566 284 l 1,81,82
 568 242 568 242 575.5 206.5 c 128,-1,83
 583 171 583 171 602.5 145.5 c 128,-1,84
 622 120 622 120 656 105.5 c 128,-1,85
 690 91 690 91 745 91 c 0,86,87
 795 91 795 91 845 107.5 c 128,-1,88
 895 124 895 124 935.5 144.5 c 128,-1,89
 976 165 976 165 1001.5 183.5 c 128,-1,90
 1027 202 1027 202 1028 205 c 0,91,92
 1039 272 1039 272 1042 356 c 128,-1,93
 1045 440 1045 440 1045 531 c 2,94,-1
 1045 834 l 2,0,1
EndSplineSet
EndChar

StartChar: paragraph
Encoding: 182 182 124
Width: 1208
Flags: W
LayerCount: 2
Fore
SplineSet
797 1387 m 2,0,1
 894 1387 894 1387 977.5 1385 c 128,-1,2
 1061 1383 1061 1383 1124 1372 c 1,3,-1
 1124 1272 l 1,4,-1
 1032 1272 l 2,5,6
 1002 1272 1002 1272 976 1270.5 c 128,-1,7
 950 1269 950 1269 929 1261 c 1,8,9
 921 1238 921 1238 917.5 1209 c 128,-1,10
 914 1180 914 1180 914 1141 c 2,11,-1
 914 64 l 2,12,13
 914 -12 914 -12 930 -57 c 1,14,15
 952 -64 952 -64 977.5 -65 c 128,-1,16
 1003 -66 1003 -66 1033 -66 c 2,17,-1
 1122 -66 l 1,18,-1
 1122 -202 l 1,19,20
 1041 -194 1041 -194 948 -188.5 c 128,-1,21
 855 -183 855 -183 774 -183 c 1,22,-1
 774 1311 l 1,23,-1
 620 1311 l 1,24,-1
 620 -183 l 1,25,26
 579 -183 579 -183 535 -184.5 c 128,-1,27
 491 -186 491 -186 446 -188.5 c 128,-1,28
 401 -191 401 -191 356.5 -194.5 c 128,-1,29
 312 -198 312 -198 272 -202 c 1,30,-1
 272 -66 l 1,31,-1
 361 -66 l 2,32,33
 391 -66 391 -66 416.5 -65 c 128,-1,34
 442 -64 442 -64 464 -57 c 1,35,36
 480 -12 480 -12 480 64 c 2,37,-1
 480 595 l 1,38,39
 375 595 375 595 299.5 624 c 128,-1,40
 224 653 224 653 176 706.5 c 128,-1,41
 128 760 128 760 105 835.5 c 128,-1,42
 82 911 82 911 82 1004 c 0,43,44
 82 1107 82 1107 117 1180 c 128,-1,45
 152 1253 152 1253 223.5 1299 c 128,-1,46
 295 1345 295 1345 402.5 1366 c 128,-1,47
 510 1387 510 1387 655 1387 c 2,48,-1
 797 1387 l 2,0,1
EndSplineSet
EndChar

StartChar: periodcentered
Encoding: 183 183 125
Width: 554
Flags: W
LayerCount: 2
Fore
SplineSet
166 597 m 0,0,1
 166 621 166 621 175 641.5 c 128,-1,2
 184 662 184 662 199.5 677 c 128,-1,3
 215 692 215 692 235.5 701 c 128,-1,4
 256 710 256 710 279 710 c 256,5,6
 302 710 302 710 322.5 701 c 128,-1,7
 343 692 343 692 358.5 677 c 128,-1,8
 374 662 374 662 383 641.5 c 128,-1,9
 392 621 392 621 392 597 c 0,10,11
 392 574 392 574 383 553.5 c 128,-1,12
 374 533 374 533 358.5 518 c 128,-1,13
 343 503 343 503 322.5 494 c 128,-1,14
 302 485 302 485 279 485 c 256,15,16
 256 485 256 485 235.5 494 c 128,-1,17
 215 503 215 503 199.5 518 c 128,-1,18
 184 533 184 533 175 553.5 c 128,-1,19
 166 574 166 574 166 597 c 0,0,1
EndSplineSet
EndChar

StartChar: cedilla
Encoding: 184 184 126
Width: 695
Flags: W
LayerCount: 2
Fore
SplineSet
129 -366 m 1,0,1
 162 -376 162 -376 197 -383 c 128,-1,2
 232 -390 232 -390 263 -390 c 0,3,4
 326 -390 326 -390 361.5 -363.5 c 128,-1,5
 397 -337 397 -337 397 -291 c 0,6,7
 397 -237 397 -237 369.5 -211 c 128,-1,8
 342 -185 342 -185 297 -178 c 1,9,10
 289 -178 289 -178 280 -180.5 c 128,-1,11
 271 -183 271 -183 260 -186 c 1,12,13
 248 -178 248 -178 235 -173.5 c 128,-1,14
 222 -169 222 -169 209 -163 c 1,15,-1
 294 11 l 1,16,-1
 395 11 l 1,17,-1
 339 -96 l 1,18,19
 391 -99 391 -99 432.5 -109 c 128,-1,20
 474 -119 474 -119 503 -139 c 128,-1,21
 532 -159 532 -159 548 -191.5 c 128,-1,22
 564 -224 564 -224 564 -272 c 0,23,24
 564 -330 564 -330 544.5 -372.5 c 128,-1,25
 525 -415 525 -415 490.5 -443 c 128,-1,26
 456 -471 456 -471 408.5 -484.5 c 128,-1,27
 361 -498 361 -498 306 -498 c 0,28,29
 243 -498 243 -498 199 -486 c 128,-1,30
 155 -474 155 -474 129 -457 c 1,31,32
 123 -441 123 -441 123 -417 c 256,33,34
 123 -393 123 -393 129 -366 c 1,0,1
EndSplineSet
EndChar

StartChar: onesuperior
Encoding: 185 185 127
Width: 707
Flags: W
LayerCount: 2
Fore
SplineSet
273 573 m 1,0,1
 231 589 231 589 231 642 c 1,2,-1
 256 725 l 1,3,4
 279 745 279 745 287.5 774 c 128,-1,5
 296 803 296 803 296 851 c 2,6,-1
 296 1305 l 1,7,8
 276 1323 276 1323 238 1323 c 0,9,10
 230 1323 230 1323 220 1322 c 128,-1,11
 210 1321 210 1321 199 1319 c 2,12,-1
 138 1309 l 1,13,-1
 128 1386 l 1,14,15
 162 1396 162 1396 198.5 1407.5 c 128,-1,16
 235 1419 235 1419 272.5 1429.5 c 128,-1,17
 310 1440 310 1440 347 1448 c 128,-1,18
 384 1456 384 1456 420 1459 c 1,19,20
 438 1448 438 1448 443 1432 c 128,-1,21
 448 1416 448 1416 448 1390 c 2,22,-1
 448 883 l 2,23,24
 448 841 448 841 456.5 813.5 c 128,-1,25
 465 786 465 786 486 765 c 1,26,-1
 511 725 l 1,27,28
 511 671 511 671 515 637.5 c 128,-1,29
 519 604 519 604 521 585 c 1,30,31
 401 573 401 573 273 573 c 1,0,1
EndSplineSet
EndChar

StartChar: ordmasculine
Encoding: 186 186 128
Width: 845
Flags: W
LayerCount: 2
Fore
SplineSet
773 1139 m 256,0,1
 773 1058 773 1058 746.5 994.5 c 128,-1,2
 720 931 720 931 673 887.5 c 128,-1,3
 626 844 626 844 562.5 821 c 128,-1,4
 499 798 499 798 424 798 c 256,5,6
 349 798 349 798 284.5 821 c 128,-1,7
 220 844 220 844 172.5 887.5 c 128,-1,8
 125 931 125 931 98.5 994.5 c 128,-1,9
 72 1058 72 1058 72 1139 c 256,10,11
 72 1220 72 1220 99 1284 c 128,-1,12
 126 1348 126 1348 173.5 1392.5 c 128,-1,13
 221 1437 221 1437 285 1460 c 128,-1,14
 349 1483 349 1483 424 1483 c 256,15,16
 499 1483 499 1483 562.5 1459.5 c 128,-1,17
 626 1436 626 1436 673 1392 c 128,-1,18
 720 1348 720 1348 746.5 1284 c 128,-1,19
 773 1220 773 1220 773 1139 c 256,0,1
425 1407 m 0,20,21
 332 1407 332 1407 288 1342 c 128,-1,22
 244 1277 244 1277 244 1140 c 0,23,24
 244 1002 244 1002 289.5 938.5 c 128,-1,25
 335 875 335 875 425 875 c 0,26,27
 516 875 516 875 559 940 c 128,-1,28
 602 1005 602 1005 602 1141 c 256,29,30
 602 1277 602 1277 559 1342 c 128,-1,31
 516 1407 516 1407 425 1407 c 0,20,21
EndSplineSet
EndChar

StartChar: guillemotright
Encoding: 187 187 129
Width: 1028
Flags: W
LayerCount: 2
Fore
SplineSet
284 162 m 2,0,1
 274 148 274 148 265.5 139 c 128,-1,2
 257 130 257 130 249 122 c 1,3,4
 237 121 237 121 223.5 126 c 128,-1,5
 210 131 210 131 193 140 c 2,6,-1
 133 171 l 1,7,-1
 366 548 l 1,8,-1
 146 925 l 1,9,-1
 196 948 l 2,10,11
 215 956 215 956 230 962 c 128,-1,12
 245 968 245 968 257 968 c 1,13,14
 265 960 265 960 274.5 951 c 128,-1,15
 284 942 284 942 294 928 c 2,16,-1
 509 612 l 1,17,18
 539 573 539 573 547 531 c 1,19,-1
 284 162 l 2,0,1
605 129 m 2,20,21
 594 114 594 114 585 105.5 c 128,-1,22
 576 97 576 97 568 89 c 1,23,24
 557 89 557 89 545.5 91.5 c 128,-1,25
 534 94 534 94 521 100 c 128,-1,26
 508 106 508 106 492.5 115 c 128,-1,27
 477 124 477 124 456 138 c 1,28,-1
 715 548 l 1,29,-1
 465 959 l 1,30,-1
 515 981 l 1,31,32
 534 992 534 992 550 997 c 128,-1,33
 566 1002 566 1002 577 1003 c 1,34,35
 585 995 585 995 594.5 985 c 128,-1,36
 604 975 604 975 613 962 c 2,37,-1
 856 612 l 1,38,39
 887 571 887 571 895 531 c 1,40,-1
 605 129 l 2,20,21
EndSplineSet
EndChar

